999
dxfrw 0.6.3
  0
SECTION
  2
HEADER
  9
$ACADVER
  1
AC1021
  9
$DWGCODEPAGE
  3
ANSI_1252
  9
$INSBASE
 10
0
 20
0
 30
0
  9
$EXTMIN
 10
-65.625
 20
-5
 30
0
  9
$EXTMAX
 10
591.25
 20
275.625
 30
0
  9
$LIMMIN
 10
0
 20
0
  9
$LIMMAX
 10
420
 20
297
  9
$ORTHOMODE
 70
    0
  9
$REGENMODE
 70
    1
  9
$FILLMODE
 70
    1
  9
$QTEXTMODE
 70
    0
  9
$MIRRTEXT
 70
    0
  9
$LTSCALE
 40
1
  9
$ATTMODE
 70
    0
  9
$TEXTSIZE
 40
2.5
  9
$TRACEWID
 40
15.68
  9
$TEXTSTYLE
  7
STANDARD
  9
$CLAYER
  8
measurements
  9
$CELTYPE
  6
BYLAYER
  9
$CECOLOR
 62
  256
  9
$CELTSCALE
 40
1
  9
$DISPSILH
 70
    0
  9
$DIMSCALE
 40
1
  9
$DIMASZ
 40
2.5
  9
$DIMEXO
 40
0.625
  9
$DIMDLI
 40
3.75
  9
$DIMRND
 40
0
  9
$DIMDLE
 40
0
  9
$DIMEXE
 40
1.25
  9
$DIMTP
 40
0
  9
$DIMTM
 40
0
  9
$DIMTXT
 40
5
  9
$DIMCEN
 40
2.5
  9
$DIMTSZ
 40
0
  9
$DIMTOL
 70
    0
  9
$DIMLIM
 70
    0
  9
$DIMTIH
 70
    0
  9
$DIMTOH
 70
    0
  9
$DIMSE1
 70
    0
  9
$DIMSE2
 70
    0
  9
$DIMTAD
 70
    1
  9
$DIMZIN
 70
    1
  9
$DIMBLK
  1

  9
$DIMASO
 70
    1
  9
$DIMSHO
 70
    1
  9
$DIMPOST
  1

  9
$DIMAPOST
  1

  9
$DIMALT
 70
    0
  9
$DIMALTD
 70
    3
  9
$DIMALTF
 40
0.03937
  9
$DIMLFAC
 40
1
  9
$DIMTOFL
 70
    1
  9
$DIMTVP
 40
0
  9
$DIMTIX
 70
    0
  9
$DIMSOXD
 70
    0
  9
$DIMSAH
 70
    0
  9
$DIMBLK1
  1

  9
$DIMBLK2
  1

  9
$DIMSTYLE
  2
STANDARD
  9
$DIMCLRD
 70
    0
  9
$DIMCLRE
 70
    0
  9
$DIMCLRT
 70
    0
  9
$DIMTFAC
 40
1
  9
$DIMGAP
 40
0.625
  9
$DIMJUST
 70
    0
  9
$DIMSD1
 70
    0
  9
$DIMSD2
 70
    0
  9
$DIMTOLJ
 70
    0
  9
$DIMTZIN
 70
    8
  9
$DIMALTZ
 70
    0
  9
$DIMALTTZ
 70
    0
  9
$DIMUPT
 70
    0
  9
$DIMDEC
 70
    0
  9
$DIMTDEC
 70
    2
  9
$DIMALTU
 70
    2
  9
$DIMALTTD
 70
    3
  9
$DIMTXSTY
  7
standard
  9
$DIMAUNIT
 70
    0
  9
$DIMADEC
 70
    0
  9
$DIMALTRND
 40
0
  9
$DIMAZIN
 70
    0
  9
$DIMDSEP
 70
    0
  9
$DIMATFIT
 70
    3
  9
$DIMFRAC
 70
    0
  9
$DIMLDRBLK
  1
STANDARD
  9
$DIMLUNIT
 70
    2
  9
$DIMLWD
 70
   -2
  9
$DIMLWE
 70
   -2
  9
$DIMTMOVE
 70
    0
  9
$DIMFXL
 40
1
  9
$DIMFXLON
 70
    0
  9
$DIMJOGANG
 40
0.7854
  9
$DIMTFILL
 70
    0
  9
$DIMTFILLCLR
 70
    0
  9
$DIMARCSYM
 70
    0
  9
$DIMLTYPE
  6

  9
$DIMLTEX1
  6

  9
$DIMLTEX2
  6

  9
$LUNITS
 70
    2
  9
$LUPREC
 70
    4
  9
$SKETCHINC
 40
1
  9
$FILLETRAD
 40
0
  9
$AUNITS
 70
    0
  9
$AUPREC
 70
    2
  9
$MENU
  1
.
  9
$ELEVATION
 40
0
  9
$PELEVATION
 40
0
  9
$THICKNESS
 40
0
  9
$LIMCHECK
 70
    0
  9
$CHAMFERA
 40
0
  9
$CHAMFERB
 40
0
  9
$CHAMFERC
 40
0
  9
$CHAMFERD
 40
0
  9
$SKPOLY
 70
    0
  9
$USRTIMER
 70
    1
  9
$ANGBASE
 50
0
  9
$ANGDIR
 70
    0
  9
$PDMODE
 70
   34
  9
$PDSIZE
 40
0
  9
$PLINEWID
 40
0
  9
$SPLFRAME
 70
    0
  9
$SPLINETYPE
 70
    2
  9
$SPLINESEGS
 70
    8
  9
$HANDSEED
  5
20000
  9
$SURFTAB1
 70
    6
  9
$SURFTAB2
 70
    6
  9
$SURFTYPE
 70
    6
  9
$SURFU
 70
    6
  9
$SURFV
 70
    6
  9
$UCSBASE
  2

  9
$UCSNAME
  2

  9
$UCSORG
 10
0
 20
0
 30
0
  9
$UCSXDIR
 10
1
 20
0
 30
0
  9
$UCSYDIR
 10
0
 20
1
 30
0
  9
$UCSORTHOREF
  2

  9
$UCSORTHOVIEW
 70
    0
  9
$UCSORGTOP
 10
0
 20
0
 30
0
  9
$UCSORGBOTTOM
 10
0
 20
0
 30
0
  9
$UCSORGLEFT
 10
0
 20
0
 30
0
  9
$UCSORGRIGHT
 10
0
 20
0
 30
0
  9
$UCSORGFRONT
 10
0
 20
0
 30
0
  9
$UCSORGBACK
 10
0
 20
0
 30
0
  9
$PUCSBASE
  2

  9
$PUCSNAME
  2

  9
$PUCSORG
 10
0
 20
0
 30
0
  9
$PUCSXDIR
 10
1
 20
0
 30
0
  9
$PUCSYDIR
 10
0
 20
1
 30
0
  9
$PUCSORTHOREF
  2

  9
$PUCSORTHOVIEW
 70
    0
  9
$PUCSORGTOP
 10
0
 20
0
 30
0
  9
$PUCSORGBOTTOM
 10
0
 20
0
 30
0
  9
$PUCSORGLEFT
 10
0
 20
0
 30
0
  9
$PUCSORGRIGHT
 10
0
 20
0
 30
0
  9
$PUCSORGFRONT
 10
0
 20
0
 30
0
  9
$PUCSORGBACK
 10
0
 20
0
 30
0
  9
$USERI1
 70
    0
  9
$USERI2
 70
    0
  9
$USERI3
 70
    0
  9
$USERI4
 70
    0
  9
$USERI5
 70
    0
  9
$USERR1
 40
0
  9
$USERR2
 40
0
  9
$USERR3
 40
0
  9
$USERR4
 40
0
  9
$USERR5
 40
0
  9
$WORLDVIEW
 70
    1
  9
$SHADEDGE
 70
    3
  9
$SHADEDIF
 70
   70
  9
$TILEMODE
 70
    1
  9
$MAXACTVP
 70
   64
  9
$PINSBASE
 10
12.5
 20
45.993883792
 30
0
  9
$PLIMCHECK
 70
    0
  9
$PEXTMIN
 10
0
 20
0
 30
0
  9
$PEXTMAX
 10
0
 20
0
 30
0
  9
$GRIDMODE
 70
    1
  9
$SNAPSTYLE
 70
    0
  9
$GRIDUNIT
 10
0
 20
0
  9
$PLIMMIN
 10
0
 20
0
  9
$PLIMMAX
 10
297
 20
210
  9
$UNITMODE
 70
    0
  9
$VISRETAIN
 70
    1
  9
$PLINEGEN
 70
    0
  9
$PSLTSCALE
 70
    1
  9
$TREEDEPTH
 70
 3020
  9
$CMLSTYLE
  2
Standard
  9
$CMLJUST
 70
    0
  9
$CMLSCALE
 40
20
  9
$PROXYGRAPHICS
 70
    1
  9
$MEASUREMENT
 70
    1
  9
$CELWEIGHT
370
   -1
  9
$ENDCAPS
280
    0
  9
$JOINSTYLE
280
    0
  9
$LWDISPLAY
290
    0
  9
$INSUNITS
 70
    4
  9
$HYPERLINKBASE
  1

  9
$STYLESHEET
  1

  9
$XEDIT
290
    1
  9
$CEPSNTYPE
380
    0
  9
$PSTYLEMODE
290
    1
  9
$EXTNAMES
290
    1
  9
$PSVPSCALE
 40
0.519877516857
  9
$OLESTARTUP
290
    0
  9
$SORTENTS
280
  127
  9
$INDEXCTL
280
    0
  9
$HIDETEXT
280
    1
  9
$XCLIPFRAME
290
    0
  9
$HALOGAP
280
    0
  9
$OBSCOLOR
 70
  257
  9
$OBSLTYPE
280
    0
  9
$INTERSECTIONDISPLAY
280
    0
  9
$INTERSECTIONCOLOR
 70
  257
  9
$DIMASSOC
280
    1
  9
$PROJECTNAME
  1

  9
$CAMERADISPLAY
290
    0
  9
$LENSLENGTH
 40
50
  9
$CAMERAHEIGHT
 40
0
  9
$STEPSPERSEC
 40
2
  9
$STEPSIZE
 40
50
  9
$3DDWFPREC
 40
2
  9
$PSOLWIDTH
 40
5
  9
$PSOLHEIGHT
 40
80
  9
$LOFTANG1
 40
1.570796326794897
  9
$LOFTANG2
 40
1.570796326794897
  9
$LOFTMAG1
 40
0
  9
$LOFTMAG2
 40
0
  9
$LOFTPARAM
 70
    7
  9
$LOFTNORMALS
280
    1
  9
$LATITUDE
 40
1
  9
$LONGITUDE
 40
1
  9
$NORTHDIRECTION
 40
0
  9
$TIMEZONE
 70
-8000
  9
$LIGHTGLYPHDISPLAY
280
    1
  9
$TILEMODELIGHTSYNCH
280
    1
  9
$SOLIDHIST
280
    1
  9
$SHOWHIST
280
    1
  9
$DWFFRAME
280
    2
  9
$DGNFRAME
280
    0
  9
$REALWORLDSCALE
290
    1
  9
$INTERFERECOLOR
 62
    1
  9
$CSHADOW
280
    0
  9
$SHADOWPLANELOCATION
 40
0
  0
ENDSEC
  0
SECTION
  2
CLASSES
  0
ENDSEC
  0
SECTION
  2
TABLES
  0
TABLE
  2
VPORT
  5
8
330
0
100
AcDbSymbolTable
 70
    1
  0
VPORT
  5
31
330
2
100
AcDbSymbolTableRecord
100
AcDbViewportTableRecord
  2
*ACTIVE
 70
    0
 10
0
 20
0
 11
1
 21
1
 12
239.5423541955011
 22
141.8648893779181
 13
0
 23
0
 14
10
 24
10
 15
10
 25
10
 16
0
 26
0
 36
1
 17
0
 27
0
 37
0
 40
304.328427799
 41
2.207423580786026
 42
50
 43
0
 44
0
 50
0
 51
0
 71
    0
 72
  100
 73
    1
 74
    3
 75
    0
 76
    1
 77
    0
 78
    0
281
    0
 65
    1
110
0
120
0
130
0
111
1
121
0
131
0
112
0
122
1
132
0
 79
    0
146
0
348
10020
 60
    7
 61
    5
292
1
282
    1
141
0
142
0
 63
  250
421
3358443
  0
ENDTAB
  0
TABLE
  2
LTYPE
  5
5
330
0
100
AcDbSymbolTable
 70
    4
  0
LTYPE
  5
14
330
5
100
AcDbSymbolTableRecord
100
AcDbLinetypeTableRecord
  2
ByBlock
 70
    0
  3

 72
   65
 73
    0
 40
0
  0
LTYPE
  5
15
330
5
100
AcDbSymbolTableRecord
100
AcDbLinetypeTableRecord
  2
ByLayer
 70
    0
  3

 72
   65
 73
    0
 40
0
  0
LTYPE
  5
16
330
5
100
AcDbSymbolTableRecord
100
AcDbLinetypeTableRecord
  2
Continuous
 70
    0
  3
Solid line
 72
   65
 73
    0
 40
0
  0
LTYPE
  5
32
330
5
100
AcDbSymbolTableRecord
100
AcDbLinetypeTableRecord
  2
DOT
 70
    0
  3
Dot . . . . . . . . . . . . . . . . . . . . . .
 72
   65
 73
    2
 40
6.35
 49
0
 74
    0
 49
-6.35
 74
    0
  0
LTYPE
  5
33
330
5
100
AcDbSymbolTableRecord
100
AcDbLinetypeTableRecord
  2
DOTTINY
 70
    0
  3
Dot (.15x) .....................................
 72
   65
 73
    2
 40
0.9525
 49
0
 74
    0
 49
-0.9525
 74
    0
  0
LTYPE
  5
34
330
5
100
AcDbSymbolTableRecord
100
AcDbLinetypeTableRecord
  2
DOT2
 70
    0
  3
Dot (.5x) .....................................
 72
   65
 73
    2
 40
3.175
 49
0
 74
    0
 49
-3.175
 74
    0
  0
LTYPE
  5
35
330
5
100
AcDbSymbolTableRecord
100
AcDbLinetypeTableRecord
  2
DOTX2
 70
    0
  3
Dot (2x) .  .  .  .  .  .  .  .  .  .  .  .  .
 72
   65
 73
    2
 40
12.7
 49
0
 74
    0
 49
-12.7
 74
    0
  0
LTYPE
  5
36
330
5
100
AcDbSymbolTableRecord
100
AcDbLinetypeTableRecord
  2
DASHED
 70
    0
  3
Dashed _ _ _ _ _ _ _ _ _ _ _ _ _ _ _ _ _
 72
   65
 73
    2
 40
19.05
 49
12.7
 74
    0
 49
-6.35
 74
    0
  0
LTYPE
  5
37
330
5
100
AcDbSymbolTableRecord
100
AcDbLinetypeTableRecord
  2
DASHEDTINY
 70
    0
  3
Dashed (.15x) _ _ _ _ _ _ _ _ _ _ _ _ _ _ _ _ _
 72
   65
 73
    2
 40
2.8575
 49
1.905
 74
    0
 49
-0.9525
 74
    0
  0
LTYPE
  5
38
330
5
100
AcDbSymbolTableRecord
100
AcDbLinetypeTableRecord
  2
DASHED2
 70
    0
  3
Dashed (.5x) _ _ _ _ _ _ _ _ _ _ _ _ _ _ _ _ _
 72
   65
 73
    2
 40
9.524999999999999
 49
6.35
 74
    0
 49
-3.175
 74
    0
  0
LTYPE
  5
39
330
5
100
AcDbSymbolTableRecord
100
AcDbLinetypeTableRecord
  2
DASHEDX2
 70
    0
  3
Dashed (2x) ____  ____  ____  ____  ____  ___
 72
   65
 73
    2
 40
38.09999999999999
 49
25.4
 74
    0
 49
-12.7
 74
    0
  0
LTYPE
  5
3A
330
5
100
AcDbSymbolTableRecord
100
AcDbLinetypeTableRecord
  2
DASHDOT
 70
    0
  3
Dash dot __ . __ . __ . __ . __ . __ . __ . __
 72
   65
 73
    4
 40
25.4
 49
12.7
 74
    0
 49
-6.35
 74
    0
 49
0
 74
    0
 49
-6.35
 74
    0
  0
LTYPE
  5
3B
330
5
100
AcDbSymbolTableRecord
100
AcDbLinetypeTableRecord
  2
DASHDOTTINY
 70
    0
  3
Dash dot (.15x) _._._._._._._._._._._._._._._.
 72
   65
 73
    4
 40
3.81
 49
1.905
 74
    0
 49
-0.9525
 74
    0
 49
0
 74
    0
 49
-0.9525
 74
    0
  0
LTYPE
  5
3C
330
5
100
AcDbSymbolTableRecord
100
AcDbLinetypeTableRecord
  2
DASHDOT2
 70
    0
  3
Dash dot (.5x) _._._._._._._._._._._._._._._.
 72
   65
 73
    4
 40
12.7
 49
6.35
 74
    0
 49
-3.175
 74
    0
 49
0
 74
    0
 49
-3.175
 74
    0
  0
LTYPE
  5
3D
330
5
100
AcDbSymbolTableRecord
100
AcDbLinetypeTableRecord
  2
DASHDOTX2
 70
    0
  3
Dash dot (2x) ____  .  ____  .  ____  .  ___
 72
   65
 73
    4
 40
50.8
 49
25.4
 74
    0
 49
-12.7
 74
    0
 49
0
 74
    0
 49
-12.7
 74
    0
  0
LTYPE
  5
3E
330
5
100
AcDbSymbolTableRecord
100
AcDbLinetypeTableRecord
  2
DIVIDE
 70
    0
  3
Divide ____ . . ____ . . ____ . . ____ . . ____
 72
   65
 73
    6
 40
31.75
 49
12.7
 74
    0
 49
-6.35
 74
    0
 49
0
 74
    0
 49
-6.35
 74
    0
 49
0
 74
    0
 49
-6.35
 74
    0
  0
LTYPE
  5
3F
330
5
100
AcDbSymbolTableRecord
100
AcDbLinetypeTableRecord
  2
DIVIDETINY
 70
    0
  3
Divide (.15x) __..__..__..__..__..__..__..__.._
 72
   65
 73
    6
 40
4.7625
 49
1.905
 74
    0
 49
-0.9525
 74
    0
 49
0
 74
    0
 49
-0.9525
 74
    0
 49
0
 74
    0
 49
-0.9525
 74
    0
  0
LTYPE
  5
40
330
5
100
AcDbSymbolTableRecord
100
AcDbLinetypeTableRecord
  2
DIVIDE2
 70
    0
  3
Divide (.5x) __..__..__..__..__..__..__..__.._
 72
   65
 73
    6
 40
15.875
 49
6.35
 74
    0
 49
-3.175
 74
    0
 49
0
 74
    0
 49
-3.175
 74
    0
 49
0
 74
    0
 49
-3.175
 74
    0
  0
LTYPE
  5
41
330
5
100
AcDbSymbolTableRecord
100
AcDbLinetypeTableRecord
  2
DIVIDEX2
 70
    0
  3
Divide (2x) ________  .  .  ________  .  .  _
 72
   65
 73
    6
 40
63.5
 49
25.4
 74
    0
 49
-12.7
 74
    0
 49
0
 74
    0
 49
-12.7
 74
    0
 49
0
 74
    0
 49
-12.7
 74
    0
  0
LTYPE
  5
42
330
5
100
AcDbSymbolTableRecord
100
AcDbLinetypeTableRecord
  2
BORDER
 70
    0
  3
Border __ __ . __ __ . __ __ . __ __ . __ __ .
 72
   65
 73
    6
 40
44.45
 49
12.7
 74
    0
 49
-6.35
 74
    0
 49
12.7
 74
    0
 49
-6.35
 74
    0
 49
0
 74
    0
 49
-6.35
 74
    0
  0
LTYPE
  5
43
330
5
100
AcDbSymbolTableRecord
100
AcDbLinetypeTableRecord
  2
BORDERTINY
 70
    0
  3
Border (.15x) __.__.__.__.__.__.__.__.__.__.__.
 72
   65
 73
    6
 40
6.6675
 49
1.905
 74
    0
 49
-0.9525
 74
    0
 49
1.905
 74
    0
 49
-0.9525
 74
    0
 49
0
 74
    0
 49
-0.9525
 74
    0
  0
LTYPE
  5
44
330
5
100
AcDbSymbolTableRecord
100
AcDbLinetypeTableRecord
  2
BORDER2
 70
    0
  3
Border (.5x) __.__.__.__.__.__.__.__.__.__.__.
 72
   65
 73
    6
 40
22.225
 49
6.35
 74
    0
 49
-3.175
 74
    0
 49
6.35
 74
    0
 49
-3.175
 74
    0
 49
0
 74
    0
 49
-3.175
 74
    0
  0
LTYPE
  5
45
330
5
100
AcDbSymbolTableRecord
100
AcDbLinetypeTableRecord
  2
BORDERX2
 70
    0
  3
Border (2x) ____  ____  .  ____  ____  .  ___
 72
   65
 73
    6
 40
88.89999999999999
 49
25.4
 74
    0
 49
-12.7
 74
    0
 49
25.4
 74
    0
 49
-12.7
 74
    0
 49
0
 74
    0
 49
-12.7
 74
    0
  0
LTYPE
  5
46
330
5
100
AcDbSymbolTableRecord
100
AcDbLinetypeTableRecord
  2
CENTER
 70
    0
  3
Center ____ _ ____ _ ____ _ ____ _ ____ _ ____
 72
   65
 73
    4
 40
50.8
 49
31.75
 74
    0
 49
-6.35
 74
    0
 49
6.35
 74
    0
 49
-6.35
 74
    0
  0
LTYPE
  5
47
330
5
100
AcDbSymbolTableRecord
100
AcDbLinetypeTableRecord
  2
CENTERTINY
 70
    0
  3
Center (.15x) ___ _ ___ _ ___ _ ___ _ ___ _ ___
 72
   65
 73
    4
 40
7.619999999999999
 49
4.7625
 74
    0
 49
-0.9525
 74
    0
 49
0.9525
 74
    0
 49
-0.9525
 74
    0
  0
LTYPE
  5
48
330
5
100
AcDbSymbolTableRecord
100
AcDbLinetypeTableRecord
  2
CENTER2
 70
    0
  3
Center (.5x) ___ _ ___ _ ___ _ ___ _ ___ _ ___
 72
   65
 73
    4
 40
28.575
 49
19.05
 74
    0
 49
-3.175
 74
    0
 49
3.175
 74
    0
 49
-3.175
 74
    0
  0
LTYPE
  5
49
330
5
100
AcDbSymbolTableRecord
100
AcDbLinetypeTableRecord
  2
CENTERX2
 70
    0
  3
Center (2x) ________  __  ________  __  _____
 72
   65
 73
    4
 40
101.6
 49
63.5
 74
    0
 49
-12.7
 74
    0
 49
12.7
 74
    0
 49
-12.7
 74
    0
  0
ENDTAB
  0
TABLE
  2
LAYER
  5
2
330
0
100
AcDbSymbolTable
 70
    1
  0
LAYER
  5
10
330
2
100
AcDbSymbolTableRecord
100
AcDbLayerTableRecord
  2
0
 70
    0
 62
    7
  6
CONTINUOUS
370
    0
390
F
  0
LAYER
  5
4A
330
2
100
AcDbSymbolTableRecord
100
AcDbLayerTableRecord
  2
invisible lines
 70
    0
 62
    7
  6
DASHED2
370
    0
390
F
  0
LAYER
  5
4B
330
2
100
AcDbSymbolTableRecord
100
AcDbLayerTableRecord
  2
measurements
 70
    0
 62
    3
  6
CONTINUOUS
370
    0
390
F
  0
ENDTAB
  0
TABLE
  2
STYLE
  5
3
330
0
100
AcDbSymbolTable
 70
    3
  0
STYLE
  5
4C
330
2
100
AcDbSymbolTableRecord
100
AcDbTextStyleTableRecord
  2
Standard
 70
    0
 40
0
 41
1
 50
0
 71
    0
 42
1
  3
txt
  4

  0
ENDTAB
  0
TABLE
  2
VIEW
  5
6
330
0
100
AcDbSymbolTable
 70
    0
  0
ENDTAB
  0
TABLE
  2
UCS
  5
7
330
0
100
AcDbSymbolTable
 70
    0
  0
ENDTAB
  0
TABLE
  2
APPID
  5
9
330
0
100
AcDbSymbolTable
 70
    1
  0
APPID
  5
12
330
9
100
AcDbSymbolTableRecord
100
AcDbRegAppTableRecord
  2
ACAD
 70
    0
  0
APPID
  5
4D
330
9
100
AcDbSymbolTableRecord
100
AcDbRegAppTableRecord
  2
LibreCad
 70
    0
  0
ENDTAB
  0
TABLE
  2
DIMSTYLE
  5
A
330
0
100
AcDbSymbolTable
 70
    1
100
AcDbDimStyleTable
 71
    1
  0
DIMSTYLE
105
4E
330
A
100
AcDbSymbolTableRecord
100
AcDbDimStyleTableRecord
  2
Standard
 70
    0
 40
1
 41
2.5
 42
0.625
 43
0.38
 44
1.25
 45
0
 46
0
 47
0
 48
0
 49
1
140
5
141
0.09
142
0
143
25.4
144
1
145
0
146
1
147
0.625
148
0
 71
    0
 72
    0
 73
    0
 74
    1
 75
    0
 76
    0
 77
    0
 78
    1
 79
    0
170
    0
171
    2
172
    0
173
    0
174
    0
175
    0
176
    0
177
    0
178
    0
179
    0
271
    0
272
    4
273
    2
274
    2
275
    0
276
    0
277
    2
278
    0
279
    0
280
    0
281
    0
282
    0
283
    1
284
    0
285
    0
286
    0
288
    0
289
    3
340
standard
341

371
   -2
372
   -2
  0
ENDTAB
  0
TABLE
  2
BLOCK_RECORD
  5
1
330
0
100
AcDbSymbolTable
 70
    2
  0
BLOCK_RECORD
  5
1F
330
1
100
AcDbSymbolTableRecord
100
AcDbBlockTableRecord
  2
*Model_Space
 70
    0
280
    1
281
    0
  0
BLOCK_RECORD
  5
1E
330
1
100
AcDbSymbolTableRecord
100
AcDbBlockTableRecord
  2
*Paper_Space
 70
    0
280
    1
281
    0
  0
BLOCK_RECORD
  5
4F
330
1
100
AcDbSymbolTableRecord
100
AcDbBlockTableRecord
  2
*D12
 70
    0
280
    1
281
    0
  0
BLOCK_RECORD
  5
52
330
1
100
AcDbSymbolTableRecord
100
AcDbBlockTableRecord
  2
*D27
 70
    0
280
    1
281
    0
  0
BLOCK_RECORD
  5
55
330
1
100
AcDbSymbolTableRecord
100
AcDbBlockTableRecord
  2
*D32
 70
    0
280
    1
281
    0
  0
BLOCK_RECORD
  5
58
330
1
100
AcDbSymbolTableRecord
100
AcDbBlockTableRecord
  2
*D4
 70
    0
280
    1
281
    0
  0
BLOCK_RECORD
  5
5B
330
1
100
AcDbSymbolTableRecord
100
AcDbBlockTableRecord
  2
*D17
 70
    0
280
    1
281
    0
  0
BLOCK_RECORD
  5
5E
330
1
100
AcDbSymbolTableRecord
100
AcDbBlockTableRecord
  2
*D30
 70
    0
280
    1
281
    0
  0
BLOCK_RECORD
  5
61
330
1
100
AcDbSymbolTableRecord
100
AcDbBlockTableRecord
  2
*D9
 70
    0
280
    1
281
    0
  0
BLOCK_RECORD
  5
64
330
1
100
AcDbSymbolTableRecord
100
AcDbBlockTableRecord
  2
*D13
 70
    0
280
    1
281
    0
  0
BLOCK_RECORD
  5
67
330
1
100
AcDbSymbolTableRecord
100
AcDbBlockTableRecord
  2
*D22
 70
    0
280
    1
281
    0
  0
BLOCK_RECORD
  5
6A
330
1
100
AcDbSymbolTableRecord
100
AcDbBlockTableRecord
  2
*D3
 70
    0
280
    1
281
    0
  0
BLOCK_RECORD
  5
6D
330
1
100
AcDbSymbolTableRecord
100
AcDbBlockTableRecord
  2
*D33
 70
    0
280
    1
281
    0
  0
BLOCK_RECORD
  5
70
330
1
100
AcDbSymbolTableRecord
100
AcDbBlockTableRecord
  2
*D7
 70
    0
280
    1
281
    0
  0
BLOCK_RECORD
  5
73
330
1
100
AcDbSymbolTableRecord
100
AcDbBlockTableRecord
  2
*D14
 70
    0
280
    1
281
    0
  0
BLOCK_RECORD
  5
76
330
1
100
AcDbSymbolTableRecord
100
AcDbBlockTableRecord
  2
*D21
 70
    0
280
    1
281
    0
  0
BLOCK_RECORD
  5
79
330
1
100
AcDbSymbolTableRecord
100
AcDbBlockTableRecord
  2
*D6
 70
    0
280
    1
281
    0
  0
BLOCK_RECORD
  5
7C
330
1
100
AcDbSymbolTableRecord
100
AcDbBlockTableRecord
  2
*D16
 70
    0
280
    1
281
    0
  0
BLOCK_RECORD
  5
7F
330
1
100
AcDbSymbolTableRecord
100
AcDbBlockTableRecord
  2
*D15
 70
    0
280
    1
281
    0
  0
BLOCK_RECORD
  5
82
330
1
100
AcDbSymbolTableRecord
100
AcDbBlockTableRecord
  2
*D10
 70
    0
280
    1
281
    0
  0
BLOCK_RECORD
  5
85
330
1
100
AcDbSymbolTableRecord
100
AcDbBlockTableRecord
  2
*D1
 70
    0
280
    1
281
    0
  0
BLOCK_RECORD
  5
88
330
1
100
AcDbSymbolTableRecord
100
AcDbBlockTableRecord
  2
*D26
 70
    0
280
    1
281
    0
  0
BLOCK_RECORD
  5
8B
330
1
100
AcDbSymbolTableRecord
100
AcDbBlockTableRecord
  2
*D23
 70
    0
280
    1
281
    0
  0
BLOCK_RECORD
  5
8E
330
1
100
AcDbSymbolTableRecord
100
AcDbBlockTableRecord
  2
*D24
 70
    0
280
    1
281
    0
  0
BLOCK_RECORD
  5
91
330
1
100
AcDbSymbolTableRecord
100
AcDbBlockTableRecord
  2
*D18
 70
    0
280
    1
281
    0
  0
BLOCK_RECORD
  5
94
330
1
100
AcDbSymbolTableRecord
100
AcDbBlockTableRecord
  2
*D5
 70
    0
280
    1
281
    0
  0
BLOCK_RECORD
  5
97
330
1
100
AcDbSymbolTableRecord
100
AcDbBlockTableRecord
  2
*D11
 70
    0
280
    1
281
    0
  0
BLOCK_RECORD
  5
9A
330
1
100
AcDbSymbolTableRecord
100
AcDbBlockTableRecord
  2
*D2
 70
    0
280
    1
281
    0
  0
BLOCK_RECORD
  5
9D
330
1
100
AcDbSymbolTableRecord
100
AcDbBlockTableRecord
  2
*D8
 70
    0
280
    1
281
    0
  0
BLOCK_RECORD
  5
A0
330
1
100
AcDbSymbolTableRecord
100
AcDbBlockTableRecord
  2
*D34
 70
    0
280
    1
281
    0
  0
BLOCK_RECORD
  5
A3
330
1
100
AcDbSymbolTableRecord
100
AcDbBlockTableRecord
  2
*D20
 70
    0
280
    1
281
    0
  0
BLOCK_RECORD
  5
A6
330
1
100
AcDbSymbolTableRecord
100
AcDbBlockTableRecord
  2
*D28
 70
    0
280
    1
281
    0
  0
BLOCK_RECORD
  5
A9
330
1
100
AcDbSymbolTableRecord
100
AcDbBlockTableRecord
  2
*D25
 70
    0
280
    1
281
    0
  0
BLOCK_RECORD
  5
AC
330
1
100
AcDbSymbolTableRecord
100
AcDbBlockTableRecord
  2
*D29
 70
    0
280
    1
281
    0
  0
BLOCK_RECORD
  5
AF
330
1
100
AcDbSymbolTableRecord
100
AcDbBlockTableRecord
  2
*D19
 70
    0
280
    1
281
    0
  0
BLOCK_RECORD
  5
B2
330
1
100
AcDbSymbolTableRecord
100
AcDbBlockTableRecord
  2
*D31
 70
    0
280
    1
281
    0
  0
ENDTAB
  0
ENDSEC
  0
SECTION
  2
BLOCKS
  0
BLOCK
  5
20
330
1F
100
AcDbEntity
  8
0
100
AcDbBlockBegin
  2
*Model_Space
 70
    0
 10
0
 20
0
 30
0
  3
*Model_Space
  1

  0
ENDBLK
  5
21
330
1F
100
AcDbEntity
  8
0
100
AcDbBlockEnd
  0
BLOCK
  5
1C
330
1B
100
AcDbEntity
  8
0
100
AcDbBlockBegin
  2
*Paper_Space
 70
    0
 10
0
 20
0
 30
0
  3
*Paper_Space
  1

  0
ENDBLK
  5
1D
330
1F
100
AcDbEntity
  8
0
100
AcDbBlockEnd
  0
BLOCK
  5
50
330
4F
100
AcDbEntity
  8
0
100
AcDbBlockBegin
  2
*D12
 70
    1
 10
0
 20
0
  3
*D12
  1

  0
LINE
  5
B5
100
AcDbEntity
  8
measurements
  6
ByBlock
 62
    0
370
   -2
100
AcDbLine
 10
500
 20
240
 11
520
 21
240
  0
SOLID
  5
B6
100
AcDbEntity
  8
measurements
  6
ByBlock
 62
    0
370
   -2
100
AcDbTrace
 10
500
 20
240
 30
0
 11
502.5
 21
240.4162846577728
 31
0
 12
502.5
 22
239.5837153422272
 32
0
 13
502.5
 23
239.5837153422272
 33
0
  0
SOLID
  5
B7
100
AcDbEntity
  8
measurements
  6
ByBlock
 62
    0
370
   -2
100
AcDbTrace
 10
520
 20
240
 30
0
 11
517.5
 21
239.5837153422272
 31
0
 12
517.5
 22
240.4162846577728
 32
0
 13
517.5
 23
240.4162846577728
 33
0
  0
MTEXT
  5
B8
100
AcDbEntity
  8
measurements
  6
CONTINUOUS
 62
    0
370
   -2
100
AcDbMText
 10
510
 20
243.125
 30
0
 40
5
 41
6.111111111111112
 71
    5
 72
    1
  1
20
  7
standard
210
0
220
0
230
1
 50
0
 73
    2
 44
1
  0
LINE
  5
B9
100
AcDbEntity
  8
measurements
  6
ByBlock
 62
    0
370
   -2
100
AcDbLine
 10
500
 20
230.625
 11
500
 21
241.25
  0
LINE
  5
BA
100
AcDbEntity
  8
measurements
  6
ByBlock
 62
    0
370
   -2
100
AcDbLine
 10
520
 20
231.625
 11
520
 21
241.25
  0
ENDBLK
  5
51
330
4F
100
AcDbEntity
  8
0
100
AcDbBlockEnd
  0
BLOCK
  5
53
330
52
100
AcDbEntity
  8
0
100
AcDbBlockBegin
  2
*D27
 70
    1
 10
0
 20
0
  3
*D27
  1

  0
LINE
  5
BB
100
AcDbEntity
  8
measurements
  6
ByBlock
 62
    0
370
   -2
100
AcDbLine
 10
15
 20
240
 11
1
 21
240
  0
SOLID
  5
BC
100
AcDbEntity
  8
measurements
  6
ByBlock
 62
    0
370
   -2
100
AcDbTrace
 10
15
 20
240
 30
0
 11
12.5
 21
239.5837153422272
 31
0
 12
12.5
 22
240.4162846577728
 32
0
 13
12.5
 23
240.4162846577728
 33
0
  0
SOLID
  5
BD
100
AcDbEntity
  8
measurements
  6
ByBlock
 62
    0
370
   -2
100
AcDbTrace
 10
1
 20
240
 30
0
 11
3.5
 21
240.4162846577728
 31
0
 12
3.5
 22
239.5837153422272
 32
0
 13
3.5
 23
239.5837153422272
 33
0
  0
MTEXT
  5
BE
100
AcDbEntity
  8
measurements
  6
CONTINUOUS
 62
    0
370
   -2
100
AcDbMText
 10
8
 20
243.125
 30
0
 40
5
 41
5.555555555555555
 71
    5
 72
    1
  1
14
  7
standard
210
0
220
0
230
1
 50
360
 73
    2
 44
1
  0
LINE
  5
BF
100
AcDbEntity
  8
measurements
  6
ByBlock
 62
    0
370
   -2
100
AcDbLine
 10
15
 20
207.625
 11
15
 21
241.25
  0
LINE
  5
C0
100
AcDbEntity
  8
measurements
  6
ByBlock
 62
    0
370
   -2
100
AcDbLine
 10
1
 20
214.625
 11
1
 21
241.25
  0
ENDBLK
  5
54
330
52
100
AcDbEntity
  8
0
100
AcDbBlockEnd
  0
BLOCK
  5
56
330
55
100
AcDbEntity
  8
0
100
AcDbBlockBegin
  2
*D32
 70
    1
 10
0
 20
0
  3
*D32
  1

  0
LINE
  5
C1
100
AcDbEntity
  8
measurements
  6
ByBlock
 62
    0
370
   -2
100
AcDbLine
 10
0
 20
270
 11
445
 21
270
  0
SOLID
  5
C2
100
AcDbEntity
  8
measurements
  6
ByBlock
 62
    0
370
   -2
100
AcDbTrace
 10
0
 20
270
 30
0
 11
2.5
 21
270.4162846577728
 31
0
 12
2.5
 22
269.5837153422272
 32
0
 13
2.5
 23
269.5837153422272
 33
0
  0
SOLID
  5
C3
100
AcDbEntity
  8
measurements
  6
ByBlock
 62
    0
370
   -2
100
AcDbTrace
 10
445
 20
270
 30
0
 11
442.5
 21
269.5837153422272
 31
0
 12
442.5
 22
270.4162846577728
 32
0
 13
442.5
 23
270.4162846577728
 33
0
  0
MTEXT
  5
C4
100
AcDbEntity
  8
measurements
  6
CONTINUOUS
 62
    0
370
   -2
100
AcDbMText
 10
222.5
 20
273.125
 30
0
 40
5
 41
11.11111111111142
 71
    5
 72
    1
  1
445
  7
standard
210
0
220
0
230
1
 50
0
 73
    2
 44
1
  0
LINE
  5
C5
100
AcDbEntity
  8
measurements
  6
ByBlock
 62
    0
370
   -2
100
AcDbLine
 10
3.827021247335479e-17
 20
231.625
 11
7.654042494670958e-17
 21
271.25
  0
LINE
  5
C6
100
AcDbEntity
  8
measurements
  6
ByBlock
 62
    0
370
   -2
100
AcDbLine
 10
445
 20
231.625
 11
445
 21
271.25
  0
ENDBLK
  5
57
330
55
100
AcDbEntity
  8
0
100
AcDbBlockEnd
  0
BLOCK
  5
59
330
58
100
AcDbEntity
  8
0
100
AcDbBlockBegin
  2
*D4
 70
    1
 10
0
 20
0
  3
*D4
  1

  0
LINE
  5
C7
100
AcDbEntity
  8
measurements
  6
ByBlock
 62
    0
370
   -2
100
AcDbLine
 10
570
 20
219
 11
570
 21
203.5
  0
SOLID
  5
C8
100
AcDbEntity
  8
measurements
  6
ByBlock
 62
    0
370
   -2
100
AcDbTrace
 10
570
 20
214
 30
0
 11
569.5837153422272
 21
216.5
 31
0
 12
570.4162846577728
 22
216.5
 32
0
 13
570.4162846577728
 23
216.5
 33
0
  0
SOLID
  5
C9
100
AcDbEntity
  8
measurements
  6
ByBlock
 62
    0
370
   -2
100
AcDbTrace
 10
570
 20
208.5
 30
0
 11
570.4162846577728
 21
206
 31
0
 12
569.5837153422272
 22
206
 32
0
 13
569.5837153422272
 23
206
 33
0
  0
MTEXT
  5
CA
100
AcDbEntity
  8
measurements
  6
CONTINUOUS
 62
    0
370
   -2
100
AcDbMText
 10
566.875
 20
211.25
 30
0
 40
5
 41
2.222222222222532
 71
    5
 72
    1
  1
6
  7
standard
210
0
220
0
230
1
 50
90
 73
    2
 44
1
  0
LINE
  5
CB
100
AcDbEntity
  8
measurements
  6
ByBlock
 62
    0
370
   -2
100
AcDbLine
 10
554.625
 20
214
 11
571.25
 21
214
  0
LINE
  5
CC
100
AcDbEntity
  8
measurements
  6
ByBlock
 62
    0
370
   -2
100
AcDbLine
 10
554.625
 20
208.5
 11
571.25
 21
208.5
  0
ENDBLK
  5
5A
330
58
100
AcDbEntity
  8
0
100
AcDbBlockEnd
  0
BLOCK
  5
5C
330
5B
100
AcDbEntity
  8
0
100
AcDbBlockBegin
  2
*D17
 70
    1
 10
0
 20
0
  3
*D17
  1

  0
LINE
  5
CD
100
AcDbEntity
  8
measurements
  6
ByBlock
 62
    0
370
   -2
100
AcDbLine
 10
-20
 20
3.552713678800501e-15
 11
-20
 21
16
  0
SOLID
  5
CE
100
AcDbEntity
  8
measurements
  6
ByBlock
 62
    0
370
   -2
100
AcDbTrace
 10
-20
 20
3.552713678800501e-15
 30
0
 11
-20.41628465777284
 21
2.500000000000004
 31
0
 12
-19.58371534222716
 22
2.500000000000004
 32
0
 13
-19.58371534222716
 23
2.500000000000004
 33
0
  0
SOLID
  5
CF
100
AcDbEntity
  8
measurements
  6
ByBlock
 62
    0
370
   -2
100
AcDbTrace
 10
-20
 20
16
 30
0
 11
-19.58371534222716
 21
13.5
 31
0
 12
-20.41628465777284
 22
13.5
 32
0
 13
-20.41628465777284
 23
13.5
 33
0
  0
MTEXT
  5
D0
100
AcDbEntity
  8
measurements
  6
CONTINUOUS
 62
    0
370
   -2
100
AcDbMText
 10
-23.125
 20
8.000000000000002
 30
0
 40
5
 41
5.000000000000311
 71
    5
 72
    1
  1
16
  7
standard
210
0
220
0
230
1
 50
90
 73
    2
 44
1
  0
LINE
  5
D1
100
AcDbEntity
  8
measurements
  6
ByBlock
 62
    0
370
   -2
100
AcDbLine
 10
-0.625
 20
7.654042494670958e-17
 11
-21.25
 21
3.70579452869392e-15
  0
LINE
  5
D2
100
AcDbEntity
  8
measurements
  6
ByBlock
 62
    0
370
   -2
100
AcDbLine
 10
-0.625
 20
16
 11
-21.25
 21
16
  0
ENDBLK
  5
5D
330
5B
100
AcDbEntity
  8
0
100
AcDbBlockEnd
  0
BLOCK
  5
5F
330
5E
100
AcDbEntity
  8
0
100
AcDbBlockBegin
  2
*D30
 70
    1
 10
0
 20
0
  3
*D30
  1

  0
LINE
  5
D3
100
AcDbEntity
  8
measurements
  6
ByBlock
 62
    0
370
   -2
100
AcDbLine
 10
132.5
 20
250
 11
167.5
 21
250
  0
SOLID
  5
D4
100
AcDbEntity
  8
measurements
  6
ByBlock
 62
    0
370
   -2
100
AcDbTrace
 10
132.5
 20
250
 30
0
 11
135
 21
250.4162846577728
 31
0
 12
135
 22
249.5837153422272
 32
0
 13
135
 23
249.5837153422272
 33
0
  0
SOLID
  5
D5
100
AcDbEntity
  8
measurements
  6
ByBlock
 62
    0
370
   -2
100
AcDbTrace
 10
167.5
 20
250
 30
0
 11
165
 21
249.5837153422272
 31
0
 12
165
 22
250.4162846577728
 32
0
 13
165
 23
250.4162846577728
 33
0
  0
MTEXT
  5
D6
100
AcDbEntity
  8
measurements
  6
CONTINUOUS
 62
    0
370
   -2
100
AcDbMText
 10
150
 20
253.125
 30
0
 40
5
 41
6.111111111111732
 71
    5
 72
    1
  1
35
  7
standard
210
0
220
0
230
1
 50
0
 73
    2
 44
1
  0
LINE
  5
D7
100
AcDbEntity
  8
measurements
  6
ByBlock
 62
    0
370
   -2
100
AcDbLine
 10
132.5
 20
197.625
 11
132.5
 21
251.25
  0
LINE
  5
D8
100
AcDbEntity
  8
measurements
  6
ByBlock
 62
    0
370
   -2
100
AcDbLine
 10
167.5
 20
197.625
 11
167.5
 21
251.25
  0
ENDBLK
  5
60
330
5E
100
AcDbEntity
  8
0
100
AcDbBlockEnd
  0
BLOCK
  5
62
330
61
100
AcDbEntity
  8
0
100
AcDbBlockBegin
  2
*D9
 70
    1
 10
0
 20
0
  3
*D9
  1

  0
LINE
  5
D9
100
AcDbEntity
  8
measurements
  6
ByBlock
 62
    0
370
   -2
100
AcDbLine
 10
490
 20
231
 11
490
 21
197
  0
SOLID
  5
DA
100
AcDbEntity
  8
measurements
  6
ByBlock
 62
    0
370
   -2
100
AcDbTrace
 10
490
 20
231
 30
0
 11
490.4162846577728
 21
228.5
 31
0
 12
489.5837153422272
 22
228.5
 32
0
 13
489.5837153422272
 23
228.5
 33
0
  0
SOLID
  5
DB
100
AcDbEntity
  8
measurements
  6
ByBlock
 62
    0
370
   -2
100
AcDbTrace
 10
490
 20
197
 30
0
 11
489.5837153422272
 21
199.5
 31
0
 12
490.4162846577728
 22
199.5
 32
0
 13
490.4162846577728
 23
199.5
 33
0
  0
MTEXT
  5
DC
100
AcDbEntity
  8
measurements
  6
CONTINUOUS
 62
    0
370
   -2
100
AcDbMText
 10
486.875
 20
214
 30
0
 40
5
 41
6.666666666666977
 71
    5
 72
    1
  1
34
  7
standard
210
0
220
0
230
1
 50
90
 73
    2
 44
1
  0
LINE
  5
DD
100
AcDbEntity
  8
measurements
  6
ByBlock
 62
    0
370
   -2
100
AcDbLine
 10
499.375
 20
231
 11
488.75
 21
231
  0
LINE
  5
DE
100
AcDbEntity
  8
measurements
  6
ByBlock
 62
    0
370
   -2
100
AcDbLine
 10
499.375
 20
197
 11
488.75
 21
197
  0
ENDBLK
  5
63
330
61
100
AcDbEntity
  8
0
100
AcDbBlockEnd
  0
BLOCK
  5
65
330
64
100
AcDbEntity
  8
0
100
AcDbBlockBegin
  2
*D13
 70
    1
 10
0
 20
0
  3
*D13
  1

  0
LINE
  5
DF
100
AcDbEntity
  8
measurements
  6
ByBlock
 62
    0
370
   -2
100
AcDbLine
 10
590
 20
231
 11
590
 21
214
  0
SOLID
  5
E0
100
AcDbEntity
  8
measurements
  6
ByBlock
 62
    0
370
   -2
100
AcDbTrace
 10
590
 20
231
 30
0
 11
590.4162846577728
 21
228.5
 31
0
 12
589.5837153422272
 22
228.5
 32
0
 13
589.5837153422272
 23
228.5
 33
0
  0
SOLID
  5
E1
100
AcDbEntity
  8
measurements
  6
ByBlock
 62
    0
370
   -2
100
AcDbTrace
 10
590
 20
214
 30
0
 11
589.5837153422272
 21
216.5
 31
0
 12
590.4162846577728
 22
216.5
 32
0
 13
590.4162846577728
 23
216.5
 33
0
  0
MTEXT
  5
E2
100
AcDbEntity
  8
measurements
  6
CONTINUOUS
 62
    0
370
   -2
100
AcDbMText
 10
586.875
 20
222.5
 30
0
 40
5
 41
5
 71
    5
 72
    1
  1
17
  7
standard
210
0
220
0
230
1
 50
90
 73
    2
 44
1
  0
LINE
  5
E3
100
AcDbEntity
  8
measurements
  6
ByBlock
 62
    0
370
   -2
100
AcDbLine
 10
520.625
 20
231
 11
591.25
 21
231
  0
LINE
  5
E4
100
AcDbEntity
  8
measurements
  6
ByBlock
 62
    0
370
   -2
100
AcDbLine
 10
520.625
 20
214
 11
591.25
 21
214
  0
ENDBLK
  5
66
330
64
100
AcDbEntity
  8
0
100
AcDbBlockEnd
  0
BLOCK
  5
68
330
67
100
AcDbEntity
  8
0
100
AcDbBlockBegin
  2
*D22
 70
    1
 10
0
 20
0
  3
*D22
  1

  0
LINE
  5
E5
100
AcDbEntity
  8
measurements
  6
ByBlock
 62
    0
370
   -2
100
AcDbLine
 10
-5
 20
30
 11
6
 21
30
  0
SOLID
  5
E6
100
AcDbEntity
  8
measurements
  6
ByBlock
 62
    0
370
   -2
100
AcDbTrace
 10
0
 20
30
 30
0
 11
-2.5
 21
29.58371534222716
 31
0
 12
-2.5
 22
30.41628465777284
 32
0
 13
-2.5
 23
30.41628465777284
 33
0
  0
SOLID
  5
E7
100
AcDbEntity
  8
measurements
  6
ByBlock
 62
    0
370
   -2
100
AcDbTrace
 10
1
 20
30
 30
0
 11
3.5
 21
30.41628465777284
 31
0
 12
3.5
 22
29.58371534222716
 32
0
 13
3.5
 23
29.58371534222716
 33
0
  0
MTEXT
  5
E8
100
AcDbEntity
  8
measurements
  6
CONTINUOUS
 62
    0
370
   -2
100
AcDbMText
 10
2.180555555555556
 20
33.125
 30
0
 40
5
 41
1.111111111111111
 71
    5
 72
    1
  1
1
  7
standard
210
0
220
0
230
1
 50
0
 73
    2
 44
1
  0
LINE
  5
E9
100
AcDbEntity
  8
measurements
  6
ByBlock
 62
    0
370
   -2
100
AcDbLine
 10
3.827021247335479e-17
 20
16.625
 11
7.654042494670958e-17
 21
31.25
  0
LINE
  5
EA
100
AcDbEntity
  8
measurements
  6
ByBlock
 62
    0
370
   -2
100
AcDbLine
 10
1
 20
16.625
 11
1
 21
31.25
  0
ENDBLK
  5
69
330
67
100
AcDbEntity
  8
0
100
AcDbBlockEnd
  0
BLOCK
  5
6B
330
6A
100
AcDbEntity
  8
0
100
AcDbBlockBegin
  2
*D3
 70
    1
 10
0
 20
0
  3
*D3
  1

  0
LINE
  5
EB
100
AcDbEntity
  8
measurements
  6
ByBlock
 62
    0
370
   -2
100
AcDbLine
 10
569
 20
11
 11
569
 21
23
  0
SOLID
  5
EC
100
AcDbEntity
  8
measurements
  6
ByBlock
 62
    0
370
   -2
100
AcDbTrace
 10
569
 20
16
 30
0
 11
569.4162846577728
 21
13.5
 31
0
 12
568.5837153422272
 22
13.5
 32
0
 13
568.5837153422272
 23
13.5
 33
0
  0
SOLID
  5
ED
100
AcDbEntity
  8
measurements
  6
ByBlock
 62
    0
370
   -2
100
AcDbTrace
 10
569
 20
18
 30
0
 11
568.5837153422272
 21
20.5
 31
0
 12
569.4162846577728
 22
20.5
 32
0
 13
569.4162846577728
 23
20.5
 33
0
  0
MTEXT
  5
EE
100
AcDbEntity
  8
measurements
  6
CONTINUOUS
 62
    0
370
   -2
100
AcDbMText
 10
565.875
 20
19.73611111111111
 30
0
 40
5
 41
2.222222222222222
 71
    5
 72
    1
  1
2
  7
standard
210
0
220
0
230
1
 50
90
 73
    2
 44
1
  0
LINE
  5
EF
100
AcDbEntity
  8
measurements
  6
ByBlock
 62
    0
370
   -2
100
AcDbLine
 10
528.625
 20
16
 11
570.25
 21
16
  0
LINE
  5
F0
100
AcDbEntity
  8
measurements
  6
ByBlock
 62
    0
370
   -2
100
AcDbLine
 10
554.625
 20
18
 11
570.25
 21
18
  0
ENDBLK
  5
6C
330
6A
100
AcDbEntity
  8
0
100
AcDbBlockEnd
  0
BLOCK
  5
6E
330
6D
100
AcDbEntity
  8
0
100
AcDbBlockBegin
  2
*D33
 70
    1
 10
0
 20
0
  3
*D33
  1

  0
LINE
  5
F1
100
AcDbEntity
  8
measurements
  6
ByBlock
 62
    0
370
   -2
100
AcDbLine
 10
132.5
 20
140
 11
312.5
 21
140
  0
SOLID
  5
F2
100
AcDbEntity
  8
measurements
  6
ByBlock
 62
    0
370
   -2
100
AcDbTrace
 10
132.5
 20
140
 30
0
 11
135
 21
140.4162846577728
 31
0
 12
135
 22
139.5837153422272
 32
0
 13
135
 23
139.5837153422272
 33
0
  0
SOLID
  5
F3
100
AcDbEntity
  8
measurements
  6
ByBlock
 62
    0
370
   -2
100
AcDbTrace
 10
312.5
 20
140
 30
0
 11
310
 21
139.5837153422272
 31
0
 12
310
 22
140.4162846577728
 32
0
 13
310
 23
140.4162846577728
 33
0
  0
MTEXT
  5
F4
100
AcDbEntity
  8
measurements
  6
CONTINUOUS
 62
    0
370
   -2
100
AcDbMText
 10
222.5
 20
143.125
 30
0
 40
5
 41
8.888888888888889
 71
    5
 72
    1
  1
180
  7
standard
210
0
220
0
230
1
 50
0
 73
    2
 44
1
  0
LINE
  5
F5
100
AcDbEntity
  8
measurements
  6
ByBlock
 62
    0
370
   -2
100
AcDbLine
 10
132.5
 20
158.375
 11
132.5
 21
138.75
  0
LINE
  5
F6
100
AcDbEntity
  8
measurements
  6
ByBlock
 62
    0
370
   -2
100
AcDbLine
 10
312.5
 20
158.375
 11
312.5
 21
138.75
  0
ENDBLK
  5
6F
330
6D
100
AcDbEntity
  8
0
100
AcDbBlockEnd
  0
BLOCK
  5
71
330
70
100
AcDbEntity
  8
0
100
AcDbBlockBegin
  2
*D7
 70
    1
 10
0
 20
0
  3
*D7
  1

  0
LINE
  5
F7
100
AcDbEntity
  8
measurements
  6
ByBlock
 62
    0
370
   -2
100
AcDbLine
 10
523
 20
220
 11
537
 21
220
  0
SOLID
  5
F8
100
AcDbEntity
  8
measurements
  6
ByBlock
 62
    0
370
   -2
100
AcDbTrace
 10
528
 20
220
 30
0
 11
525.5
 21
219.5837153422272
 31
0
 12
525.5
 22
220.4162846577728
 32
0
 13
525.5
 23
220.4162846577728
 33
0
  0
SOLID
  5
F9
100
AcDbEntity
  8
measurements
  6
ByBlock
 62
    0
370
   -2
100
AcDbTrace
 10
532
 20
220
 30
0
 11
534.5
 21
220.4162846577728
 31
0
 12
534.5
 22
219.5837153422272
 32
0
 13
534.5
 23
219.5837153422272
 33
0
  0
MTEXT
  5
FA
100
AcDbEntity
  8
measurements
  6
CONTINUOUS
 62
    0
370
   -2
100
AcDbMText
 10
530
 20
223.125
 30
0
 40
5
 41
2.777777777777778
 71
    5
 72
    1
  1
4
  7
standard
210
0
220
0
230
1
 50
0
 73
    2
 44
1
  0
LINE
  5
FB
100
AcDbEntity
  8
measurements
  6
ByBlock
 62
    0
370
   -2
100
AcDbLine
 10
528
 20
214.625
 11
528
 21
221.25
  0
LINE
  5
FC
100
AcDbEntity
  8
measurements
  6
ByBlock
 62
    0
370
   -2
100
AcDbLine
 10
532
 20
214.625
 11
532
 21
221.25
  0
ENDBLK
  5
72
330
70
100
AcDbEntity
  8
0
100
AcDbBlockEnd
  0
BLOCK
  5
74
330
73
100
AcDbEntity
  8
0
100
AcDbBlockBegin
  2
*D14
 70
    1
 10
0
 20
0
  3
*D14
  1

  0
LINE
  5
FD
100
AcDbEntity
  8
measurements
  6
ByBlock
 62
    0
370
   -2
100
AcDbLine
 10
19.59619407739938
 20
211.5961940782661
 11
10.40380592260062
 21
202.4038059217339
  0
SOLID
  5
FE
100
AcDbEntity
  8
measurements
  6
ByBlock
 62
    0
370
   -2
100
AcDbTrace
 10
16.0606601718
 20
208.060660172
 30
0
 11
17.53406942015684
 21
210.1227848295204
 31
0
 12
18.12278482904254
 22
209.5340694207457
 32
0
 13
18.12278482904254
 23
209.5340694207457
 33
0
  0
SOLID
  5
FF
100
AcDbEntity
  8
measurements
  6
ByBlock
 62
    0
370
   -2
100
AcDbTrace
 10
13.9393398282
 20
205.939339828
 30
0
 11
12.46593057984316
 21
203.8772151704796
 31
0
 12
11.87721517095746
 22
204.4659305792543
 32
0
 13
11.87721517095746
 23
204.4659305792543
 33
0
  0
MTEXT
  5
100
100
AcDbEntity
  8
measurements
  6
CONTINUOUS
 62
    0
370
   -2
100
AcDbMText
 10
12.79029130858369
 20
209.2097086909996
 30
0
 40
5
 41
2.222222222222532
 71
    5
 72
    1
  1
3
  7
standard
210
0
220
0
230
1
 50
45.00000000540226
 73
    2
 44
1
  0
ENDBLK
  5
75
330
73
100
AcDbEntity
  8
0
100
AcDbBlockEnd
  0
BLOCK
  5
77
330
76
100
AcDbEntity
  8
0
100
AcDbBlockBegin
  2
*D21
 70
    1
 10
0
 20
0
  3
*D21
  1

  0
LINE
  5
101
100
AcDbEntity
  8
measurements
  6
ByBlock
 62
    0
370
   -2
100
AcDbLine
 10
-10
 20
-4.999999999999999
 11
-9.999999999999998
 21
6.000000000000001
  0
SOLID
  5
102
100
AcDbEntity
  8
measurements
  6
ByBlock
 62
    0
370
   -2
100
AcDbTrace
 10
-10
 20
5.551115123125783e-16
 30
0
 11
-9.58371534222716
 21
-2.5
 31
0
 12
-10.41628465777284
 22
-2.5
 32
0
 13
-10.41628465777284
 23
-2.5
 33
0
  0
SOLID
  5
103
100
AcDbEntity
  8
measurements
  6
ByBlock
 62
    0
370
   -2
100
AcDbTrace
 10
-10
 20
1.000000000000001
 30
0
 11
-10.41628465777284
 21
3.500000000000001
 31
0
 12
-9.583715342227158
 22
3.500000000000001
 32
0
 13
-9.583715342227158
 23
3.500000000000001
 33
0
  0
MTEXT
  5
104
100
AcDbEntity
  8
measurements
  6
CONTINUOUS
 62
    0
370
   -2
100
AcDbMText
 10
-13.125
 20
2.180555555555557
 30
0
 40
5
 41
1.111111111111111
 71
    5
 72
    1
  1
1
  7
standard
210
0
220
0
230
1
 50
89.99999999999999
 73
    2
 44
1
  0
LINE
  5
105
100
AcDbEntity
  8
measurements
  6
ByBlock
 62
    0
370
   -2
100
AcDbLine
 10
-0.625
 20
7.654042494670958e-17
 11
-11.25
 21
7.081923622059974e-16
  0
LINE
  5
106
100
AcDbEntity
  8
measurements
  6
ByBlock
 62
    0
370
   -2
100
AcDbLine
 10
0.375
 20
1
 11
-11.25
 21
1.000000000000001
  0
ENDBLK
  5
78
330
76
100
AcDbEntity
  8
0
100
AcDbBlockEnd
  0
BLOCK
  5
7A
330
79
100
AcDbEntity
  8
0
100
AcDbBlockBegin
  2
*D6
 70
    1
 10
0
 20
0
  3
*D6
  1

  0
LINE
  5
107
100
AcDbEntity
  8
measurements
  6
ByBlock
 62
    0
370
   -2
100
AcDbLine
 10
520
 20
220
 11
528
 21
220
  0
SOLID
  5
108
100
AcDbEntity
  8
measurements
  6
ByBlock
 62
    0
370
   -2
100
AcDbTrace
 10
520
 20
220
 30
0
 11
522.5
 21
220.4162846577728
 31
0
 12
522.5
 22
219.5837153422272
 32
0
 13
522.5
 23
219.5837153422272
 33
0
  0
SOLID
  5
109
100
AcDbEntity
  8
measurements
  6
ByBlock
 62
    0
370
   -2
100
AcDbTrace
 10
528
 20
220
 30
0
 11
525.5
 21
219.5837153422272
 31
0
 12
525.5
 22
220.4162846577728
 32
0
 13
525.5
 23
220.4162846577728
 33
0
  0
MTEXT
  5
10A
100
AcDbEntity
  8
measurements
  6
CONTINUOUS
 62
    0
370
   -2
100
AcDbMText
 10
524
 20
223.125
 30
0
 40
5
 41
2.222222222222222
 71
    5
 72
    1
  1
8
  7
standard
210
0
220
0
230
1
 50
0
 73
    2
 44
1
  0
LINE
  5
10B
100
AcDbEntity
  8
measurements
  6
ByBlock
 62
    0
370
   -2
100
AcDbLine
 10
520
 20
230.375
 11
520
 21
218.75
  0
LINE
  5
10C
100
AcDbEntity
  8
measurements
  6
ByBlock
 62
    0
370
   -2
100
AcDbLine
 10
528
 20
214.625
 11
528
 21
221.25
  0
ENDBLK
  5
7B
330
79
100
AcDbEntity
  8
0
100
AcDbBlockEnd
  0
BLOCK
  5
7D
330
7C
100
AcDbEntity
  8
0
100
AcDbBlockBegin
  2
*D16
 70
    1
 10
0
 20
0
  3
*D16
  1

  0
LINE
  5
10D
100
AcDbEntity
  8
measurements
  6
ByBlock
 62
    0
370
   -2
100
AcDbLine
 10
-20
 20
214
 11
-20
 21
197
  0
SOLID
  5
10E
100
AcDbEntity
  8
measurements
  6
ByBlock
 62
    0
370
   -2
100
AcDbTrace
 10
-20
 20
214
 30
0
 11
-19.58371534222716
 21
211.5
 31
0
 12
-20.41628465777284
 22
211.5
 32
0
 13
-20.41628465777284
 23
211.5
 33
0
  0
SOLID
  5
10F
100
AcDbEntity
  8
measurements
  6
ByBlock
 62
    0
370
   -2
100
AcDbTrace
 10
-20
 20
197
 30
0
 11
-20.41628465777284
 21
199.5
 31
0
 12
-19.58371534222716
 22
199.5
 32
0
 13
-19.58371534222716
 23
199.5
 33
0
  0
MTEXT
  5
110
100
AcDbEntity
  8
measurements
  6
CONTINUOUS
 62
    0
370
   -2
100
AcDbMText
 10
-23.125
 20
205.5
 30
0
 40
5
 41
5
 71
    5
 72
    1
  1
17
  7
standard
210
0
220
0
230
1
 50
90
 73
    2
 44
1
  0
LINE
  5
111
100
AcDbEntity
  8
measurements
  6
ByBlock
 62
    0
370
   -2
100
AcDbLine
 10
0.375
 20
214
 11
-21.25
 21
214
  0
LINE
  5
112
100
AcDbEntity
  8
measurements
  6
ByBlock
 62
    0
370
   -2
100
AcDbLine
 10
0.375
 20
197
 11
-21.25
 21
197
  0
ENDBLK
  5
7E
330
7C
100
AcDbEntity
  8
0
100
AcDbBlockEnd
  0
BLOCK
  5
80
330
7F
100
AcDbEntity
  8
0
100
AcDbBlockBegin
  2
*D15
 70
    1
 10
0
 20
0
  3
*D15
  1

  0
LINE
  5
113
100
AcDbEntity
  8
measurements
  6
ByBlock
 62
    0
370
   -2
100
AcDbLine
 10
-20
 20
214
 11
-20
 21
231
  0
SOLID
  5
114
100
AcDbEntity
  8
measurements
  6
ByBlock
 62
    0
370
   -2
100
AcDbTrace
 10
-20
 20
214
 30
0
 11
-20.41628465777284
 21
216.5
 31
0
 12
-19.58371534222716
 22
216.5
 32
0
 13
-19.58371534222716
 23
216.5
 33
0
  0
SOLID
  5
115
100
AcDbEntity
  8
measurements
  6
ByBlock
 62
    0
370
   -2
100
AcDbTrace
 10
-20
 20
231
 30
0
 11
-19.58371534222716
 21
228.5
 31
0
 12
-20.41628465777284
 22
228.5
 32
0
 13
-20.41628465777284
 23
228.5
 33
0
  0
MTEXT
  5
116
100
AcDbEntity
  8
measurements
  6
CONTINUOUS
 62
    0
370
   -2
100
AcDbMText
 10
-23.125
 20
222.5
 30
0
 40
5
 41
5
 71
    5
 72
    1
  1
17
  7
standard
210
0
220
0
230
1
 50
90
 73
    2
 44
1
  0
LINE
  5
117
100
AcDbEntity
  8
measurements
  6
ByBlock
 62
    0
370
   -2
100
AcDbLine
 10
0.375
 20
214
 11
-21.25
 21
214
  0
LINE
  5
118
100
AcDbEntity
  8
measurements
  6
ByBlock
 62
    0
370
   -2
100
AcDbLine
 10
-0.625
 20
231
 11
-21.25
 21
231
  0
ENDBLK
  5
81
330
7F
100
AcDbEntity
  8
0
100
AcDbBlockEnd
  0
BLOCK
  5
83
330
82
100
AcDbEntity
  8
0
100
AcDbBlockBegin
  2
*D10
 70
    1
 10
0
 20
0
  3
*D10
  1

  0
LINE
  5
119
100
AcDbEntity
  8
measurements
  6
ByBlock
 62
    0
370
   -2
100
AcDbLine
 10
490
 20
197
 11
490
 21
175
  0
SOLID
  5
11A
100
AcDbEntity
  8
measurements
  6
ByBlock
 62
    0
370
   -2
100
AcDbTrace
 10
490
 20
197
 30
0
 11
490.4162846577728
 21
194.5
 31
0
 12
489.5837153422272
 22
194.5
 32
0
 13
489.5837153422272
 23
194.5
 33
0
  0
SOLID
  5
11B
100
AcDbEntity
  8
measurements
  6
ByBlock
 62
    0
370
   -2
100
AcDbTrace
 10
490
 20
175
 30
0
 11
489.5837153422272
 21
177.5
 31
0
 12
490.4162846577728
 22
177.5
 32
0
 13
490.4162846577728
 23
177.5
 33
0
  0
MTEXT
  5
11C
100
AcDbEntity
  8
measurements
  6
CONTINUOUS
 62
    0
370
   -2
100
AcDbMText
 10
486.875
 20
186
 30
0
 40
5
 41
6.111111111111111
 71
    5
 72
    1
  1
22
  7
standard
210
0
220
0
230
1
 50
90
 73
    2
 44
1
  0
LINE
  5
11D
100
AcDbEntity
  8
measurements
  6
ByBlock
 62
    0
370
   -2
100
AcDbLine
 10
499.375
 20
197
 11
488.75
 21
197
  0
LINE
  5
11E
100
AcDbEntity
  8
measurements
  6
ByBlock
 62
    0
370
   -2
100
AcDbLine
 10
499.375
 20
175
 11
488.75
 21
175
  0
ENDBLK
  5
84
330
82
100
AcDbEntity
  8
0
100
AcDbBlockEnd
  0
BLOCK
  5
86
330
85
100
AcDbEntity
  8
0
100
AcDbBlockBegin
  2
*D1
 70
    1
 10
0
 20
0
  3
*D1
  1

  0
LINE
  5
11F
100
AcDbEntity
  8
measurements
  6
ByBlock
 62
    0
370
   -2
100
AcDbLine
 10
540
 20
-5
 11
540
 21
6
  0
SOLID
  5
120
100
AcDbEntity
  8
measurements
  6
ByBlock
 62
    0
370
   -2
100
AcDbTrace
 10
540
 20
0
 30
0
 11
540.4162846577728
 21
-2.5
 31
0
 12
539.5837153422272
 22
-2.5
 32
0
 13
539.5837153422272
 23
-2.5
 33
0
  0
SOLID
  5
121
100
AcDbEntity
  8
measurements
  6
ByBlock
 62
    0
370
   -2
100
AcDbTrace
 10
540
 20
1
 30
0
 11
539.5837153422272
 21
3.5
 31
0
 12
540.4162846577728
 22
3.5
 32
0
 13
540.4162846577728
 23
3.5
 33
0
  0
MTEXT
  5
122
100
AcDbEntity
  8
measurements
  6
CONTINUOUS
 62
    0
370
   -2
100
AcDbMText
 10
536.875
 20
2.180555555555556
 30
0
 40
5
 41
1.111111111111111
 71
    5
 72
    1
  1
1
  7
standard
210
0
220
0
230
1
 50
90
 73
    2
 44
1
  0
LINE
  5
123
100
AcDbEntity
  8
measurements
  6
ByBlock
 62
    0
370
   -2
100
AcDbLine
 10
528.625
 20
0
 11
541.25
 21
0
  0
LINE
  5
124
100
AcDbEntity
  8
measurements
  6
ByBlock
 62
    0
370
   -2
100
AcDbLine
 10
532.625
 20
1
 11
541.25
 21
1
  0
ENDBLK
  5
87
330
85
100
AcDbEntity
  8
0
100
AcDbBlockEnd
  0
BLOCK
  5
89
330
88
100
AcDbEntity
  8
0
100
AcDbBlockBegin
  2
*D26
 70
    1
 10
0
 20
0
  3
*D26
  1

  0
LINE
  5
125
100
AcDbEntity
  8
measurements
  6
ByBlock
 62
    0
370
   -2
100
AcDbLine
 10
470
 20
214
 11
470
 21
3.944304526105059e-31
  0
SOLID
  5
126
100
AcDbEntity
  8
measurements
  6
ByBlock
 62
    0
370
   -2
100
AcDbTrace
 10
470
 20
214
 30
0
 11
470.4162846577728
 21
211.5
 31
0
 12
469.5837153422272
 22
211.5
 32
0
 13
469.5837153422272
 23
211.5
 33
0
  0
SOLID
  5
127
100
AcDbEntity
  8
measurements
  6
ByBlock
 62
    0
370
   -2
100
AcDbTrace
 10
470
 20
3.944304526105059e-31
 30
0
 11
469.5837153422272
 21
2.5
 31
0
 12
470.4162846577728
 22
2.5
 32
0
 13
470.4162846577728
 23
2.5
 33
0
  0
MTEXT
  5
128
100
AcDbEntity
  8
measurements
  6
CONTINUOUS
 62
    0
370
   -2
100
AcDbMText
 10
466.875
 20
107
 30
0
 40
5
 41
9.444444444444445
 71
    5
 72
    1
  1
214
  7
standard
210
0
220
0
230
1
 50
90
 73
    2
 44
1
  0
LINE
  5
129
100
AcDbEntity
  8
measurements
  6
ByBlock
 62
    0
370
   -2
100
AcDbLine
 10
444.625
 20
214
 11
471.25
 21
214
  0
LINE
  5
12A
100
AcDbEntity
  8
measurements
  6
ByBlock
 62
    0
370
   -2
100
AcDbLine
 10
445.625
 20
0
 11
471.25
 21
3.944304526105059e-31
  0
ENDBLK
  5
8A
330
88
100
AcDbEntity
  8
0
100
AcDbBlockEnd
  0
BLOCK
  5
8C
330
8B
100
AcDbEntity
  8
0
100
AcDbBlockBegin
  2
*D23
 70
    1
 10
0
 20
0
  3
*D23
  1

  0
LINE
  5
12B
100
AcDbEntity
  8
measurements
  6
ByBlock
 62
    0
370
   -2
100
AcDbLine
 10
-5
 20
180
 11
6
 21
180
  0
SOLID
  5
12C
100
AcDbEntity
  8
measurements
  6
ByBlock
 62
    0
370
   -2
100
AcDbTrace
 10
0
 20
180
 30
0
 11
-2.5
 21
179.5837153422272
 31
0
 12
-2.5
 22
180.4162846577728
 32
0
 13
-2.5
 23
180.4162846577728
 33
0
  0
SOLID
  5
12D
100
AcDbEntity
  8
measurements
  6
ByBlock
 62
    0
370
   -2
100
AcDbTrace
 10
1
 20
180
 30
0
 11
3.5
 21
180.4162846577728
 31
0
 12
3.5
 22
179.5837153422272
 32
0
 13
3.5
 23
179.5837153422272
 33
0
  0
MTEXT
  5
12E
100
AcDbEntity
  8
measurements
  6
CONTINUOUS
 62
    0
370
   -2
100
AcDbMText
 10
2.180555555555556
 20
183.125
 30
0
 40
5
 41
1.111111111111111
 71
    5
 72
    1
  1
1
  7
standard
210
0
220
0
230
1
 50
0
 73
    2
 44
1
  0
LINE
  5
12F
100
AcDbEntity
  8
measurements
  6
ByBlock
 62
    0
370
   -2
100
AcDbLine
 10
-1.148106374200643e-16
 20
196.375
 11
-2.296212748401287e-16
 21
178.75
  0
LINE
  5
130
100
AcDbEntity
  8
measurements
  6
ByBlock
 62
    0
370
   -2
100
AcDbLine
 10
0.9999999999999999
 20
196.375
 11
0.9999999999999998
 21
178.75
  0
ENDBLK
  5
8D
330
8B
100
AcDbEntity
  8
0
100
AcDbBlockEnd
  0
BLOCK
  5
8F
330
8E
100
AcDbEntity
  8
0
100
AcDbBlockBegin
  2
*D24
 70
    1
 10
0
 20
0
  3
*D24
  1

  0
LINE
  5
131
100
AcDbEntity
  8
measurements
  6
ByBlock
 62
    0
370
   -2
100
AcDbLine
 10
110
 20
197
 11
110
 21
175
  0
SOLID
  5
132
100
AcDbEntity
  8
measurements
  6
ByBlock
 62
    0
370
   -2
100
AcDbTrace
 10
110
 20
197
 30
0
 11
110.4162846577728
 21
194.5
 31
0
 12
109.5837153422272
 22
194.5
 32
0
 13
109.5837153422272
 23
194.5
 33
0
  0
SOLID
  5
133
100
AcDbEntity
  8
measurements
  6
ByBlock
 62
    0
370
   -2
100
AcDbTrace
 10
110
 20
175
 30
0
 11
109.5837153422272
 21
177.5
 31
0
 12
110.4162846577728
 22
177.5
 32
0
 13
110.4162846577728
 23
177.5
 33
0
  0
MTEXT
  5
134
100
AcDbEntity
  8
measurements
  6
CONTINUOUS
 62
    0
370
   -2
100
AcDbMText
 10
106.875
 20
186
 30
0
 40
5
 41
6.111111111111111
 71
    5
 72
    1
  1
22
  7
standard
210
0
220
0
230
1
 50
90
 73
    2
 44
1
  0
LINE
  5
135
100
AcDbEntity
  8
measurements
  6
ByBlock
 62
    0
370
   -2
100
AcDbLine
 10
131.875
 20
197
 11
108.75
 21
197
  0
LINE
  5
136
100
AcDbEntity
  8
measurements
  6
ByBlock
 62
    0
370
   -2
100
AcDbLine
 10
131.875
 20
175
 11
108.75
 21
175
  0
ENDBLK
  5
90
330
8E
100
AcDbEntity
  8
0
100
AcDbBlockEnd
  0
BLOCK
  5
92
330
91
100
AcDbEntity
  8
0
100
AcDbBlockBegin
  2
*D18
 70
    1
 10
0
 20
0
  3
*D18
  1

  0
LINE
  5
137
100
AcDbEntity
  8
measurements
  6
ByBlock
 62
    0
370
   -2
100
AcDbLine
 10
-40.00000000000001
 20
18
 11
-40
 21
214
  0
SOLID
  5
138
100
AcDbEntity
  8
measurements
  6
ByBlock
 62
    0
370
   -2
100
AcDbTrace
 10
-40.00000000000001
 20
18
 30
0
 11
-40.41628465777286
 21
20.5
 31
0
 12
-39.58371534222717
 22
20.5
 32
0
 13
-39.58371534222717
 23
20.5
 33
0
  0
SOLID
  5
139
100
AcDbEntity
  8
measurements
  6
ByBlock
 62
    0
370
   -2
100
AcDbTrace
 10
-40
 20
214
 30
0
 11
-39.58371534222716
 21
211.5
 31
0
 12
-40.41628465777284
 22
211.5
 32
0
 13
-40.41628465777284
 23
211.5
 33
0
  0
MTEXT
  5
13A
100
AcDbEntity
  8
measurements
  6
CONTINUOUS
 62
    0
370
   -2
100
AcDbMText
 10
-43.12500000000001
 20
116
 30
0
 40
5
 41
8.888888888889198
 71
    5
 72
    1
  1
196
  7
standard
210
0
220
0
230
1
 50
90
 73
    2
 44
1
  0
LINE
  5
13B
100
AcDbEntity
  8
measurements
  6
ByBlock
 62
    0
370
   -2
100
AcDbLine
 10
0.375
 20
18
 11
-41.25000000000001
 21
18
  0
LINE
  5
13C
100
AcDbEntity
  8
measurements
  6
ByBlock
 62
    0
370
   -2
100
AcDbLine
 10
-0.625
 20
214
 11
-41.25
 21
214
  0
ENDBLK
  5
93
330
91
100
AcDbEntity
  8
0
100
AcDbBlockEnd
  0
BLOCK
  5
95
330
94
100
AcDbEntity
  8
0
100
AcDbBlockBegin
  2
*D5
 70
    1
 10
0
 20
0
  3
*D5
  1

  0
LINE
  5
13D
100
AcDbEntity
  8
measurements
  6
ByBlock
 62
    0
370
   -2
100
AcDbLine
 10
570
 20
213.5
 11
570
 21
200.5
  0
SOLID
  5
13E
100
AcDbEntity
  8
measurements
  6
ByBlock
 62
    0
370
   -2
100
AcDbTrace
 10
570
 20
208.5
 30
0
 11
569.5837153422272
 21
211
 31
0
 12
570.4162846577728
 22
211
 32
0
 13
570.4162846577728
 23
211
 33
0
  0
SOLID
  5
13F
100
AcDbEntity
  8
measurements
  6
ByBlock
 62
    0
370
   -2
100
AcDbTrace
 10
570
 20
205.5
 30
0
 11
570.4162846577728
 21
203
 31
0
 12
569.5837153422272
 22
203
 32
0
 13
569.5837153422272
 23
203
 33
0
  0
MTEXT
  5
140
100
AcDbEntity
  8
measurements
  6
CONTINUOUS
 62
    0
370
   -2
100
AcDbMText
 10
566.875
 20
207
 30
0
 40
5
 41
2.222222222222532
 71
    5
 72
    1
  1
3
  7
standard
210
0
220
0
230
1
 50
90
 73
    2
 44
1
  0
LINE
  5
141
100
AcDbEntity
  8
measurements
  6
ByBlock
 62
    0
370
   -2
100
AcDbLine
 10
554.625
 20
208.5
 11
571.25
 21
208.5
  0
LINE
  5
142
100
AcDbEntity
  8
measurements
  6
ByBlock
 62
    0
370
   -2
100
AcDbLine
 10
554.625
 20
205.5
 11
571.25
 21
205.5
  0
ENDBLK
  5
96
330
94
100
AcDbEntity
  8
0
100
AcDbBlockEnd
  0
BLOCK
  5
98
330
97
100
AcDbEntity
  8
0
100
AcDbBlockBegin
  2
*D11
 70
    1
 10
0
 20
0
  3
*D11
  1

  0
LINE
  5
143
100
AcDbEntity
  8
measurements
  6
ByBlock
 62
    0
370
   -2
100
AcDbLine
 10
490
 20
175
 11
490
 21
159
  0
SOLID
  5
144
100
AcDbEntity
  8
measurements
  6
ByBlock
 62
    0
370
   -2
100
AcDbTrace
 10
490
 20
175
 30
0
 11
490.4162846577728
 21
172.5
 31
0
 12
489.5837153422272
 22
172.5
 32
0
 13
489.5837153422272
 23
172.5
 33
0
  0
SOLID
  5
145
100
AcDbEntity
  8
measurements
  6
ByBlock
 62
    0
370
   -2
100
AcDbTrace
 10
490
 20
159
 30
0
 11
489.5837153422272
 21
161.5
 31
0
 12
490.4162846577728
 22
161.5
 32
0
 13
490.4162846577728
 23
161.5
 33
0
  0
MTEXT
  5
146
100
AcDbEntity
  8
measurements
  6
CONTINUOUS
 62
    0
370
   -2
100
AcDbMText
 10
486.875
 20
167
 30
0
 40
5
 41
5.000000000000311
 71
    5
 72
    1
  1
16
  7
standard
210
0
220
0
230
1
 50
90
 73
    2
 44
1
  0
LINE
  5
147
100
AcDbEntity
  8
measurements
  6
ByBlock
 62
    0
370
   -2
100
AcDbLine
 10
499.375
 20
175
 11
488.75
 21
175
  0
LINE
  5
148
100
AcDbEntity
  8
measurements
  6
ByBlock
 62
    0
370
   -2
100
AcDbLine
 10
499.375
 20
159
 11
488.75
 21
159
  0
ENDBLK
  5
99
330
97
100
AcDbEntity
  8
0
100
AcDbBlockEnd
  0
BLOCK
  5
9B
330
9A
100
AcDbEntity
  8
0
100
AcDbBlockBegin
  2
*D2
 70
    1
 10
0
 20
0
  3
*D2
  1

  0
LINE
  5
149
100
AcDbEntity
  8
measurements
  6
ByBlock
 62
    0
370
   -2
100
AcDbLine
 10
550
 20
16
 11
550
 21
0
  0
SOLID
  5
14A
100
AcDbEntity
  8
measurements
  6
ByBlock
 62
    0
370
   -2
100
AcDbTrace
 10
550
 20
16
 30
0
 11
550.4162846577728
 21
13.5
 31
0
 12
549.5837153422272
 22
13.5
 32
0
 13
549.5837153422272
 23
13.5
 33
0
  0
SOLID
  5
14B
100
AcDbEntity
  8
measurements
  6
ByBlock
 62
    0
370
   -2
100
AcDbTrace
 10
550
 20
0
 30
0
 11
549.5837153422272
 21
2.5
 31
0
 12
550.4162846577728
 22
2.5
 32
0
 13
550.4162846577728
 23
2.5
 33
0
  0
MTEXT
  5
14C
100
AcDbEntity
  8
measurements
  6
CONTINUOUS
 62
    0
370
   -2
100
AcDbMText
 10
546.875
 20
8.000000000000002
 30
0
 40
5
 41
5.000000000000311
 71
    5
 72
    1
  1
16
  7
standard
210
0
220
0
230
1
 50
90
 73
    2
 44
1
  0
LINE
  5
14D
100
AcDbEntity
  8
measurements
  6
ByBlock
 62
    0
370
   -2
100
AcDbLine
 10
528.625
 20
16
 11
551.25
 21
16
  0
LINE
  5
14E
100
AcDbEntity
  8
measurements
  6
ByBlock
 62
    0
370
   -2
100
AcDbLine
 10
528.625
 20
0
 11
551.25
 21
0
  0
ENDBLK
  5
9C
330
9A
100
AcDbEntity
  8
0
100
AcDbBlockEnd
  0
BLOCK
  5
9E
330
9D
100
AcDbEntity
  8
0
100
AcDbBlockBegin
  2
*D8
 70
    1
 10
0
 20
0
  3
*D8
  1

  0
LINE
  5
14F
100
AcDbEntity
  8
measurements
  6
ByBlock
 62
    0
370
   -2
100
AcDbLine
 10
532
 20
220
 11
554
 21
220
  0
SOLID
  5
150
100
AcDbEntity
  8
measurements
  6
ByBlock
 62
    0
370
   -2
100
AcDbTrace
 10
532
 20
220
 30
0
 11
534.5
 21
220.4162846577728
 31
0
 12
534.5
 22
219.5837153422272
 32
0
 13
534.5
 23
219.5837153422272
 33
0
  0
SOLID
  5
151
100
AcDbEntity
  8
measurements
  6
ByBlock
 62
    0
370
   -2
100
AcDbTrace
 10
554
 20
220
 30
0
 11
551.5
 21
219.5837153422272
 31
0
 12
551.5
 22
220.4162846577728
 32
0
 13
551.5
 23
220.4162846577728
 33
0
  0
MTEXT
  5
152
100
AcDbEntity
  8
measurements
  6
CONTINUOUS
 62
    0
370
   -2
100
AcDbMText
 10
543
 20
223.125
 30
0
 40
5
 41
6.111111111111111
 71
    5
 72
    1
  1
22
  7
standard
210
0
220
0
230
1
 50
0
 73
    2
 44
1
  0
LINE
  5
153
100
AcDbEntity
  8
measurements
  6
ByBlock
 62
    0
370
   -2
100
AcDbLine
 10
532
 20
214.625
 11
532
 21
221.25
  0
LINE
  5
154
100
AcDbEntity
  8
measurements
  6
ByBlock
 62
    0
370
   -2
100
AcDbLine
 10
554
 20
214.625
 11
554
 21
221.25
  0
ENDBLK
  5
9F
330
9D
100
AcDbEntity
  8
0
100
AcDbBlockEnd
  0
BLOCK
  5
A1
330
A0
100
AcDbEntity
  8
0
100
AcDbBlockBegin
  2
*D34
 70
    1
 10
0
 20
0
  3
*D34
  1

  0
LINE
  5
155
100
AcDbEntity
  8
measurements
  6
ByBlock
 62
    0
370
   -2
100
AcDbLine
 10
29
 20
120
 11
416
 21
120
  0
SOLID
  5
156
100
AcDbEntity
  8
measurements
  6
ByBlock
 62
    0
370
   -2
100
AcDbTrace
 10
29
 20
120
 30
0
 11
31.5
 21
120.4162846577728
 31
0
 12
31.5
 22
119.5837153422272
 32
0
 13
31.5
 23
119.5837153422272
 33
0
  0
SOLID
  5
157
100
AcDbEntity
  8
measurements
  6
ByBlock
 62
    0
370
   -2
100
AcDbTrace
 10
416
 20
120
 30
0
 11
413.5
 21
119.5837153422272
 31
0
 12
413.5
 22
120.4162846577728
 32
0
 13
413.5
 23
120.4162846577728
 33
0
  0
MTEXT
  5
158
100
AcDbEntity
  8
measurements
  6
CONTINUOUS
 62
    0
370
   -2
100
AcDbMText
 10
222.5
 20
123.125
 30
0
 40
5
 41
10.00000000000031
 71
    5
 72
    1
  1
387
  7
standard
210
0
220
0
230
1
 50
0
 73
    2
 44
1
  0
LINE
  5
159
100
AcDbEntity
  8
measurements
  6
ByBlock
 62
    0
370
   -2
100
AcDbLine
 10
29
 20
213.375
 11
29
 21
118.75
  0
LINE
  5
15A
100
AcDbEntity
  8
measurements
  6
ByBlock
 62
    0
370
   -2
100
AcDbLine
 10
416
 20
213.375
 11
416
 21
118.75
  0
ENDBLK
  5
A2
330
A0
100
AcDbEntity
  8
0
100
AcDbBlockEnd
  0
BLOCK
  5
A4
330
A3
100
AcDbEntity
  8
0
100
AcDbBlockBegin
  2
*D20
 70
    1
 10
0
 20
0
  3
*D20
  1

  0
LINE
  5
15B
100
AcDbEntity
  8
measurements
  6
ByBlock
 62
    0
370
   -2
100
AcDbLine
 10
-10
 20
23
 11
-10
 21
11
  0
SOLID
  5
15C
100
AcDbEntity
  8
measurements
  6
ByBlock
 62
    0
370
   -2
100
AcDbTrace
 10
-10
 20
18
 30
0
 11
-10.41628465777284
 21
20.5
 31
0
 12
-9.583715342227158
 22
20.5
 32
0
 13
-9.583715342227158
 23
20.5
 33
0
  0
SOLID
  5
15D
100
AcDbEntity
  8
measurements
  6
ByBlock
 62
    0
370
   -2
100
AcDbTrace
 10
-10
 20
16
 30
0
 11
-9.58371534222716
 21
13.5
 31
0
 12
-10.41628465777284
 22
13.5
 32
0
 13
-10.41628465777284
 23
13.5
 33
0
  0
MTEXT
  5
15E
100
AcDbEntity
  8
measurements
  6
CONTINUOUS
 62
    0
370
   -2
100
AcDbMText
 10
-13.125
 20
19.73611111111111
 30
0
 40
5
 41
2.222222222222222
 71
    5
 72
    1
  1
2
  7
standard
210
0
220
0
230
1
 50
90
 73
    2
 44
1
  0
LINE
  5
15F
100
AcDbEntity
  8
measurements
  6
ByBlock
 62
    0
370
   -2
100
AcDbLine
 10
0.375
 20
18
 11
-11.25
 21
18
  0
LINE
  5
160
100
AcDbEntity
  8
measurements
  6
ByBlock
 62
    0
370
   -2
100
AcDbLine
 10
-0.625
 20
16
 11
-11.25
 21
16
  0
ENDBLK
  5
A5
330
A3
100
AcDbEntity
  8
0
100
AcDbBlockEnd
  0
BLOCK
  5
A7
330
A6
100
AcDbEntity
  8
0
100
AcDbBlockBegin
  2
*D28
 70
    1
 10
0
 20
0
  3
*D28
  1

  0
LINE
  5
161
100
AcDbEntity
  8
measurements
  6
ByBlock
 62
    0
370
   -2
100
AcDbLine
 10
15
 20
240
 11
29
 21
240
  0
SOLID
  5
162
100
AcDbEntity
  8
measurements
  6
ByBlock
 62
    0
370
   -2
100
AcDbTrace
 10
15
 20
240
 30
0
 11
17.5
 21
240.4162846577728
 31
0
 12
17.5
 22
239.5837153422272
 32
0
 13
17.5
 23
239.5837153422272
 33
0
  0
SOLID
  5
163
100
AcDbEntity
  8
measurements
  6
ByBlock
 62
    0
370
   -2
100
AcDbTrace
 10
29
 20
240
 30
0
 11
26.5
 21
239.5837153422272
 31
0
 12
26.5
 22
240.4162846577728
 32
0
 13
26.5
 23
240.4162846577728
 33
0
  0
MTEXT
  5
164
100
AcDbEntity
  8
measurements
  6
CONTINUOUS
 62
    0
370
   -2
100
AcDbMText
 10
22
 20
243.125
 30
0
 40
5
 41
5.555555555555555
 71
    5
 72
    1
  1
14
  7
standard
210
0
220
0
230
1
 50
0
 73
    2
 44
1
  0
LINE
  5
165
100
AcDbEntity
  8
measurements
  6
ByBlock
 62
    0
370
   -2
100
AcDbLine
 10
15
 20
207.625
 11
15
 21
241.25
  0
LINE
  5
166
100
AcDbEntity
  8
measurements
  6
ByBlock
 62
    0
370
   -2
100
AcDbLine
 10
29
 20
214.625
 11
29
 21
241.25
  0
ENDBLK
  5
A8
330
A6
100
AcDbEntity
  8
0
100
AcDbBlockEnd
  0
BLOCK
  5
AA
330
A9
100
AcDbEntity
  8
0
100
AcDbBlockBegin
  2
*D25
 70
    1
 10
0
 20
0
  3
*D25
  1

  0
LINE
  5
167
100
AcDbEntity
  8
measurements
  6
ByBlock
 62
    0
370
   -2
100
AcDbLine
 10
590
 20
214
 11
590
 21
1
  0
SOLID
  5
168
100
AcDbEntity
  8
measurements
  6
ByBlock
 62
    0
370
   -2
100
AcDbTrace
 10
590
 20
214
 30
0
 11
590.4162846577728
 21
211.5
 31
0
 12
589.5837153422272
 22
211.5
 32
0
 13
589.5837153422272
 23
211.5
 33
0
  0
SOLID
  5
169
100
AcDbEntity
  8
measurements
  6
ByBlock
 62
    0
370
   -2
100
AcDbTrace
 10
590
 20
1
 30
0
 11
589.5837153422272
 21
3.5
 31
0
 12
590.4162846577728
 22
3.5
 32
0
 13
590.4162846577728
 23
3.5
 33
0
  0
MTEXT
  5
16A
100
AcDbEntity
  8
measurements
  6
CONTINUOUS
 62
    0
370
   -2
100
AcDbMText
 10
586.875
 20
107.5
 30
0
 40
5
 41
8.888888888889198
 71
    5
 72
    1
  1
213
  7
standard
210
0
220
0
230
1
 50
90
 73
    2
 44
1
  0
LINE
  5
16B
100
AcDbEntity
  8
measurements
  6
ByBlock
 62
    0
370
   -2
100
AcDbLine
 10
554.625
 20
214
 11
591.25
 21
214
  0
LINE
  5
16C
100
AcDbEntity
  8
measurements
  6
ByBlock
 62
    0
370
   -2
100
AcDbLine
 10
532.625
 20
1
 11
591.25
 21
1
  0
ENDBLK
  5
AB
330
A9
100
AcDbEntity
  8
0
100
AcDbBlockEnd
  0
BLOCK
  5
AD
330
AC
100
AcDbEntity
  8
0
100
AcDbBlockBegin
  2
*D29
 70
    1
 10
0
 20
0
  3
*D29
  1

  0
LINE
  5
16D
100
AcDbEntity
  8
measurements
  6
ByBlock
 62
    0
370
   -2
100
AcDbLine
 10
132.5
 20
250
 11
1
 21
250
  0
SOLID
  5
16E
100
AcDbEntity
  8
measurements
  6
ByBlock
 62
    0
370
   -2
100
AcDbTrace
 10
132.5
 20
250
 30
0
 11
130
 21
249.5837153422272
 31
0
 12
130
 22
250.4162846577728
 32
0
 13
130
 23
250.4162846577728
 33
0
  0
SOLID
  5
16F
100
AcDbEntity
  8
measurements
  6
ByBlock
 62
    0
370
   -2
100
AcDbTrace
 10
1
 20
250
 30
0
 11
3.5
 21
250.4162846577728
 31
0
 12
3.5
 22
249.5837153422272
 32
0
 13
3.5
 23
249.5837153422272
 33
0
  0
MTEXT
  5
170
100
AcDbEntity
  8
measurements
  6
CONTINUOUS
 62
    0
370
   -2
100
AcDbMText
 10
66.75
 20
253.125
 30
0
 40
5
 41
8.888888888889198
 71
    5
 72
    1
  1
132
  7
standard
210
0
220
0
230
1
 50
360
 73
    2
 44
1
  0
LINE
  5
171
100
AcDbEntity
  8
measurements
  6
ByBlock
 62
    0
370
   -2
100
AcDbLine
 10
132.5
 20
197.625
 11
132.5
 21
251.25
  0
LINE
  5
172
100
AcDbEntity
  8
measurements
  6
ByBlock
 62
    0
370
   -2
100
AcDbLine
 10
1
 20
214.625
 11
1
 21
251.25
  0
ENDBLK
  5
AE
330
AC
100
AcDbEntity
  8
0
100
AcDbBlockEnd
  0
BLOCK
  5
B0
330
AF
100
AcDbEntity
  8
0
100
AcDbBlockBegin
  2
*D19
 70
    1
 10
0
 20
0
  3
*D19
  1

  0
LINE
  5
173
100
AcDbEntity
  8
measurements
  6
ByBlock
 62
    0
370
   -2
100
AcDbLine
 10
-60.00000000000001
 20
0
 11
-60
 21
231
  0
SOLID
  5
174
100
AcDbEntity
  8
measurements
  6
ByBlock
 62
    0
370
   -2
100
AcDbTrace
 10
-60.00000000000001
 20
0
 30
0
 11
-60.41628465777286
 21
2.5
 31
0
 12
-59.58371534222717
 22
2.5
 32
0
 13
-59.58371534222717
 23
2.5
 33
0
  0
SOLID
  5
175
100
AcDbEntity
  8
measurements
  6
ByBlock
 62
    0
370
   -2
100
AcDbTrace
 10
-60
 20
231
 30
0
 11
-59.58371534222716
 21
228.5
 31
0
 12
-60.41628465777284
 22
228.5
 32
0
 13
-60.41628465777284
 23
228.5
 33
0
  0
MTEXT
  5
176
100
AcDbEntity
  8
measurements
  6
CONTINUOUS
 62
    0
370
   -2
100
AcDbMText
 10
-63.12500000000001
 20
115.5
 30
0
 40
5
 41
8.8888888888892
 71
    5
 72
    1
  1
231
  7
standard
210
0
220
0
230
1
 50
90
 73
    2
 44
1
  0
LINE
  5
177
100
AcDbEntity
  8
measurements
  6
ByBlock
 62
    0
370
   -2
100
AcDbLine
 10
-0.625
 20
7.654042494670958e-17
 11
-61.25000000000001
 21
1.530808498934192e-16
  0
LINE
  5
178
100
AcDbEntity
  8
measurements
  6
ByBlock
 62
    0
370
   -2
100
AcDbLine
 10
-0.625
 20
231
 11
-61.25
 21
231
  0
ENDBLK
  5
B1
330
AF
100
AcDbEntity
  8
0
100
AcDbBlockEnd
  0
BLOCK
  5
B3
330
B2
100
AcDbEntity
  8
0
100
AcDbBlockBegin
  2
*D31
 70
    1
 10
0
 20
0
  3
*D31
  1

  0
LINE
  5
179
100
AcDbEntity
  8
measurements
  6
ByBlock
 62
    0
370
   -2
100
AcDbLine
 10
1
 20
260
 11
444
 21
260
  0
SOLID
  5
17A
100
AcDbEntity
  8
measurements
  6
ByBlock
 62
    0
370
   -2
100
AcDbTrace
 10
1
 20
260
 30
0
 11
3.5
 21
260.4162846577728
 31
0
 12
3.5
 22
259.5837153422272
 32
0
 13
3.5
 23
259.5837153422272
 33
0
  0
SOLID
  5
17B
100
AcDbEntity
  8
measurements
  6
ByBlock
 62
    0
370
   -2
100
AcDbTrace
 10
444
 20
260
 30
0
 11
441.5
 21
259.5837153422272
 31
0
 12
441.5
 22
260.4162846577728
 32
0
 13
441.5
 23
260.4162846577728
 33
0
  0
MTEXT
  5
17C
100
AcDbEntity
  8
measurements
  6
CONTINUOUS
 62
    0
370
   -2
100
AcDbMText
 10
222.5
 20
263.125
 30
0
 40
5
 41
11.11111111111142
 71
    5
 72
    1
  1
443
  7
standard
210
0
220
0
230
1
 50
0
 73
    2
 44
1
  0
LINE
  5
17D
100
AcDbEntity
  8
measurements
  6
ByBlock
 62
    0
370
   -2
100
AcDbLine
 10
1
 20
214.625
 11
1
 21
261.25
  0
LINE
  5
17E
100
AcDbEntity
  8
measurements
  6
ByBlock
 62
    0
370
   -2
100
AcDbLine
 10
444
 20
214.625
 11
444
 21
261.25
  0
ENDBLK
  5
B4
330
B2
100
AcDbEntity
  8
0
100
AcDbBlockEnd
  0
ENDSEC
  0
SECTION
  2
ENTITIES
  0
LINE
  5
17F
100
AcDbEntity
  8
0
  6
ByLayer
 62
  256
370
   -1
100
AcDbLine
 10
500
 20
0
 11
528
 21
0
  0
LINE
  5
180
100
AcDbEntity
  8
0
  6
ByLayer
 62
  256
370
   -1
100
AcDbLine
 10
528
 20
0
 11
528
 21
16
  0
LINE
  5
181
100
AcDbEntity
  8
0
  6
ByLayer
 62
  256
370
   -1
100
AcDbLine
 10
528
 20
16
 11
500
 21
16
  0
LINE
  5
182
100
AcDbEntity
  8
0
  6
ByLayer
 62
  256
370
   -1
100
AcDbLine
 10
500
 20
16
 11
500
 21
0
  0
LINE
  5
183
100
AcDbEntity
  8
0
  6
ByLayer
 62
  256
370
   -1
100
AcDbLine
 10
500
 20
197
 11
528
 21
197
  0
LINE
  5
184
100
AcDbEntity
  8
0
  6
ByLayer
 62
  256
370
   -1
100
AcDbLine
 10
528
 20
197
 11
528
 21
214
  0
LINE
  5
185
100
AcDbEntity
  8
0
  6
ByLayer
 62
  256
370
   -1
100
AcDbLine
 10
528
 20
214
 11
520
 21
214
  0
LINE
  5
186
100
AcDbEntity
  8
0
  6
ByLayer
 62
  256
370
   -1
100
AcDbLine
 10
520
 20
214
 11
520
 21
231
  0
LINE
  5
187
100
AcDbEntity
  8
0
  6
ByLayer
 62
  256
370
   -1
100
AcDbLine
 10
520
 20
231
 11
500
 21
231
  0
LINE
  5
188
100
AcDbEntity
  8
0
  6
ByLayer
 62
  256
370
   -1
100
AcDbLine
 10
500
 20
231
 11
500
 21
197
  0
LINE
  5
189
100
AcDbEntity
  8
0
  6
ByLayer
 62
  256
370
   -1
100
AcDbLine
 10
500
 20
197
 11
528
 21
197
  0
LINE
  5
18A
100
AcDbEntity
  8
0
  6
ByLayer
 62
  256
370
   -1
100
AcDbLine
 10
528
 20
197
 11
528
 21
175
  0
LINE
  5
18B
100
AcDbEntity
  8
0
  6
ByLayer
 62
  256
370
   -1
100
AcDbLine
 10
528
 20
175
 11
500
 21
175
  0
LINE
  5
18C
100
AcDbEntity
  8
0
  6
ByLayer
 62
  256
370
   -1
100
AcDbLine
 10
500
 20
175
 11
500
 21
197
  0
LINE
  5
18D
100
AcDbEntity
  8
0
  6
ByLayer
 62
  256
370
   -1
100
AcDbLine
 10
500
 20
175
 11
528
 21
175
  0
LINE
  5
18E
100
AcDbEntity
  8
0
  6
ByLayer
 62
  256
370
   -1
100
AcDbLine
 10
528
 20
175
 11
528
 21
159
  0
LINE
  5
18F
100
AcDbEntity
  8
0
  6
ByLayer
 62
  256
370
   -1
100
AcDbLine
 10
528
 20
159
 11
500
 21
159
  0
LINE
  5
190
100
AcDbEntity
  8
0
  6
ByLayer
 62
  256
370
   -1
100
AcDbLine
 10
500
 20
159
 11
500
 21
175
  0
LINE
  5
191
100
AcDbEntity
  8
0
  6
ByLayer
 62
  256
370
   -1
100
AcDbLine
 10
528
 20
214
 11
532
 21
214
  0
LINE
  5
192
100
AcDbEntity
  8
0
  6
ByLayer
 62
  256
370
   -1
100
AcDbLine
 10
532
 20
214
 11
532
 21
1
  0
LINE
  5
193
100
AcDbEntity
  8
0
  6
ByLayer
 62
  256
370
   -1
100
AcDbLine
 10
532
 20
1
 11
528
 21
1
  0
LINE
  5
194
100
AcDbEntity
  8
0
  6
ByLayer
 62
  256
370
   -1
100
AcDbLine
 10
528
 20
1
 11
528
 21
214
  0
LINE
  5
195
100
AcDbEntity
  8
0
  6
ByLayer
 62
  256
370
   -1
100
AcDbLine
 10
532
 20
214
 11
554
 21
214
  0
LINE
  5
196
100
AcDbEntity
  8
0
  6
ByLayer
 62
  256
370
   -1
100
AcDbLine
 10
554
 20
214
 11
554
 21
18
  0
LINE
  5
197
100
AcDbEntity
  8
0
  6
ByLayer
 62
  256
370
   -1
100
AcDbLine
 10
554
 20
18
 11
532
 21
18
  0
LINE
  5
198
100
AcDbEntity
  8
0
  6
ByLayer
 62
  256
370
   -1
100
AcDbLine
 10
532
 20
18
 11
532
 21
214
  0
LINE
  5
199
100
AcDbEntity
  8
invisible lines
  6
ByLayer
 62
  256
370
   -1
100
AcDbLine
 10
532
 20
208.5
 11
554
 21
208.5
  0
LINE
  5
19A
100
AcDbEntity
  8
invisible lines
  6
ByLayer
 62
  256
370
   -1
100
AcDbLine
 10
554
 20
208.5
 11
554
 21
205.5
  0
LINE
  5
19B
100
AcDbEntity
  8
invisible lines
  6
ByLayer
 62
  256
370
   -1
100
AcDbLine
 10
554
 20
205.5
 11
532
 21
205.5
  0
LINE
  5
19C
100
AcDbEntity
  8
invisible lines
  6
ByLayer
 62
  256
370
   -1
100
AcDbLine
 10
532
 20
205.5
 11
532
 21
208.5
  0
DIMENSION
  5
19D
100
AcDbEntity
  8
measurements
  6
ByLayer
 62
  256
370
   -1
100
AcDbDimension
  2
*D1
 10
540
 20
1
 30
0
 11
536.875
 21
0.5000000000000003
 31
0
 70
   32
 71
    5
 72
    0
  3
Standard
 53
0
210
0
220
0
230
1
100
AcDbAlignedDimension
 13
528
 23
0
 33
0
 14
532
 24
1
 34
0
 50
90
100
AcDbRotatedDimension
  0
DIMENSION
  5
19E
100
AcDbEntity
  8
measurements
  6
ByLayer
 62
  256
370
   -1
100
AcDbDimension
  2
*D2
 10
550
 20
-2.69422295812e-15
 30
0
 11
546.875
 21
8.000000000000002
 31
0
 70
   32
 71
    5
 72
    0
  3
Standard
 53
0
210
0
220
0
230
1
100
AcDbAlignedDimension
 13
528
 23
16
 33
0
 14
528
 24
0
 34
0
 50
90
100
AcDbRotatedDimension
  0
DIMENSION
  5
19F
100
AcDbEntity
  8
measurements
  6
ByLayer
 62
  256
370
   -1
100
AcDbDimension
  2
*D3
 10
569
 20
18
 30
0
 11
565.875
 21
17
 31
0
 70
   32
 71
    5
 72
    0
  3
Standard
 53
0
210
0
220
0
230
1
100
AcDbAlignedDimension
 13
528
 23
16
 33
0
 14
554
 24
18
 34
0
 50
90
100
AcDbRotatedDimension
  0
DIMENSION
  5
1A0
100
AcDbEntity
  8
measurements
  6
ByLayer
 62
  256
370
   -1
100
AcDbDimension
  2
*D4
 10
570
 20
208.5
 30
0
 11
566.875
 21
211.25
 31
0
 70
   32
 71
    5
 72
    0
  3
Standard
 53
0
210
0
220
0
230
1
100
AcDbAlignedDimension
 13
554
 23
214
 33
0
 14
554
 24
208.5
 34
0
 50
90
100
AcDbRotatedDimension
  0
DIMENSION
  5
1A1
100
AcDbEntity
  8
measurements
  6
ByLayer
 62
  256
370
   -1
100
AcDbDimension
  2
*D5
 10
570
 20
205.5
 30
0
 11
566.875
 21
207
 31
0
 70
   32
 71
    5
 72
    0
  3
Standard
 53
0
210
0
220
0
230
1
100
AcDbAlignedDimension
 13
554
 23
208.5
 33
0
 14
554
 24
205.5
 34
0
 50
90
100
AcDbRotatedDimension
  0
DIMENSION
  5
1A2
100
AcDbEntity
  8
measurements
  6
ByLayer
 62
  256
370
   -1
100
AcDbDimension
  2
*D6
 10
528
 20
220
 30
0
 11
524
 21
223.125
 31
0
 70
   32
 71
    5
 72
    0
  3
Standard
 53
0
210
0
220
0
230
1
100
AcDbAlignedDimension
 13
520
 23
231
 33
0
 14
528
 24
214
 34
0
100
AcDbRotatedDimension
  0
DIMENSION
  5
1A3
100
AcDbEntity
  8
measurements
  6
ByLayer
 62
  256
370
   -1
100
AcDbDimension
  2
*D7
 10
532
 20
220
 30
0
 11
530
 21
223.125
 31
0
 70
   32
 71
    5
 72
    0
  3
Standard
 53
0
210
0
220
0
230
1
100
AcDbAlignedDimension
 13
528
 23
214
 33
0
 14
532
 24
214
 34
0
100
AcDbRotatedDimension
  0
DIMENSION
  5
1A4
100
AcDbEntity
  8
measurements
  6
ByLayer
 62
  256
370
   -1
100
AcDbDimension
  2
*D8
 10
554
 20
220
 30
0
 11
543
 21
223.125
 31
0
 70
   32
 71
    5
 72
    0
  3
Standard
 53
0
210
0
220
0
230
1
100
AcDbAlignedDimension
 13
532
 23
214
 33
0
 14
554
 24
214
 34
0
100
AcDbRotatedDimension
  0
DIMENSION
  5
1A5
100
AcDbEntity
  8
measurements
  6
ByLayer
 62
  256
370
   -1
100
AcDbDimension
  2
*D9
 10
490
 20
197
 30
0
 11
486.875
 21
214
 31
0
 70
   32
 71
    5
 72
    0
  3
Standard
 53
0
210
0
220
0
230
1
100
AcDbAlignedDimension
 13
500
 23
231
 33
0
 14
500
 24
197
 34
0
 50
90
100
AcDbRotatedDimension
  0
DIMENSION
  5
1A6
100
AcDbEntity
  8
measurements
  6
ByLayer
 62
  256
370
   -1
100
AcDbDimension
  2
*D10
 10
490
 20
175
 30
0
 11
486.875
 21
186
 31
0
 70
   32
 71
    5
 72
    0
  3
Standard
 53
0
210
0
220
0
230
1
100
AcDbAlignedDimension
 13
500
 23
197
 33
0
 14
500
 24
175
 34
0
 50
90
100
AcDbRotatedDimension
  0
DIMENSION
  5
1A7
100
AcDbEntity
  8
measurements
  6
ByLayer
 62
  256
370
   -1
100
AcDbDimension
  2
*D11
 10
490
 20
159
 30
0
 11
486.875
 21
167
 31
0
 70
   32
 71
    5
 72
    0
  3
Standard
 53
0
210
0
220
0
230
1
100
AcDbAlignedDimension
 13
500
 23
175
 33
0
 14
500
 24
159
 34
0
 50
90
100
AcDbRotatedDimension
  0
DIMENSION
  5
1A8
100
AcDbEntity
  8
measurements
  6
ByLayer
 62
  256
370
   -1
100
AcDbDimension
  2
*D12
 10
520
 20
240
 30
0
 11
510
 21
243.125
 31
0
 70
   32
 71
    5
 72
    0
  3
Standard
 53
0
210
0
220
0
230
1
100
AcDbAlignedDimension
 13
500
 23
230
 33
0
 14
520
 24
231
 34
0
100
AcDbRotatedDimension
  0
DIMENSION
  5
1A9
100
AcDbEntity
  8
measurements
  6
ByLayer
 62
  256
370
   -1
100
AcDbDimension
  2
*D13
 10
590
 20
214
 30
0
 11
586.875
 21
222.5
 31
0
 70
   32
 71
    5
 72
    0
  3
Standard
 53
0
210
0
220
0
230
1
100
AcDbAlignedDimension
 13
520
 23
231
 33
0
 14
520
 24
214
 34
0
 50
90
100
AcDbRotatedDimension
  0
LINE
  5
1AA
100
AcDbEntity
  8
0
  6
ByLayer
 62
  256
370
   -1
100
AcDbLine
 10
0
 20
1
 11
0
 21
0
  0
LINE
  5
1AB
100
AcDbEntity
  8
0
  6
ByLayer
 62
  256
370
   -1
100
AcDbLine
 10
0
 20
16
 11
0
 21
0
  0
LINE
  5
1AC
100
AcDbEntity
  8
0
  6
ByLayer
 62
  256
370
   -1
100
AcDbLine
 10
0
 20
0
 11
445
 21
0
  0
LINE
  5
1AD
100
AcDbEntity
  8
0
  6
ByLayer
 62
  256
370
   -1
100
AcDbLine
 10
0
 20
231
 11
445
 21
231
  0
LINE
  5
1AE
100
AcDbEntity
  8
0
  6
ByLayer
 62
  256
370
   -1
100
AcDbLine
 10
445
 20
231
 11
445
 21
197
  0
LINE
  5
1AF
100
AcDbEntity
  8
0
  6
ByLayer
 62
  256
370
   -1
100
AcDbLine
 10
0
 20
231
 11
0
 21
197
  0
LINE
  5
1B0
100
AcDbEntity
  8
0
  6
ByLayer
 62
  256
370
   -1
100
AcDbLine
 10
1
 20
1
 11
444
 21
1
  0
LINE
  5
1B1
100
AcDbEntity
  8
0
  6
ByLayer
 62
  256
370
   -1
100
AcDbLine
 10
444
 20
1
 11
444
 21
214
  0
LINE
  5
1B2
100
AcDbEntity
  8
0
  6
ByLayer
 62
  256
370
   -1
100
AcDbLine
 10
444
 20
214
 11
1
 21
214
  0
LINE
  5
1B3
100
AcDbEntity
  8
0
  6
ByLayer
 62
  256
370
   -1
100
AcDbLine
 10
1
 20
214
 11
1
 21
1
  0
LINE
  5
1B4
100
AcDbEntity
  8
0
  6
ByLayer
 62
  256
370
   -1
100
AcDbLine
 10
0
 20
16
 11
1
 21
16
  0
LINE
  5
1B5
100
AcDbEntity
  8
0
  6
ByLayer
 62
  256
370
   -1
100
AcDbLine
 10
445
 20
197
 11
444
 21
197
  0
LINE
  5
1B6
100
AcDbEntity
  8
0
  6
ByLayer
 62
  256
370
   -1
100
AcDbLine
 10
0
 20
197
 11
1
 21
197
  0
LINE
  5
1B7
100
AcDbEntity
  8
invisible lines
  6
ByLayer
 62
  256
370
   -1
100
AcDbLine
 10
1
 20
197
 11
444
 21
197
  0
LINE
  5
1B8
100
AcDbEntity
  8
0
  6
ByLayer
 62
  256
370
   -1
100
AcDbLine
 10
1
 20
214
 11
0
 21
214
  0
LINE
  5
1B9
100
AcDbEntity
  8
0
  6
ByLayer
 62
  256
370
   -1
100
AcDbLine
 10
444
 20
214
 11
445
 21
214
  0
LINE
  5
1BA
100
AcDbEntity
  8
0
  6
ByLayer
 62
  256
370
   -1
100
AcDbLine
 10
1
 20
214
 11
29
 21
214
  0
LINE
  5
1BB
100
AcDbEntity
  8
0
  6
ByLayer
 62
  256
370
   -1
100
AcDbLine
 10
29
 20
214
 11
29
 21
18
  0
LINE
  5
1BC
100
AcDbEntity
  8
0
  6
ByLayer
 62
  256
370
   -1
100
AcDbLine
 10
29
 20
18
 11
1
 21
18
  0
LINE
  5
1BD
100
AcDbEntity
  8
0
  6
ByLayer
 62
  256
370
   -1
100
AcDbLine
 10
1
 20
18
 11
1
 21
214
  0
LINE
  5
1BE
100
AcDbEntity
  8
0
  6
ByLayer
 62
  256
370
   -1
100
AcDbLine
 10
444
 20
214
 11
416
 21
214
  0
LINE
  5
1BF
100
AcDbEntity
  8
0
  6
ByLayer
 62
  256
370
   -1
100
AcDbLine
 10
416
 20
214
 11
416
 21
18
  0
LINE
  5
1C0
100
AcDbEntity
  8
0
  6
ByLayer
 62
  256
370
   -1
100
AcDbLine
 10
416
 20
18
 11
444
 21
18
  0
LINE
  5
1C1
100
AcDbEntity
  8
0
  6
ByLayer
 62
  256
370
   -1
100
AcDbLine
 10
444
 20
18
 11
444
 21
214
  0
CIRCLE
  5
1C2
100
AcDbEntity
  8
0
  6
ByLayer
 62
  256
370
   -1
100
AcDbCircle
 10
15
 20
207
 40
1.5
  0
CIRCLE
  5
1C3
100
AcDbEntity
  8
0
  6
ByLayer
 62
  256
370
   -1
100
AcDbCircle
 10
430
 20
207
 40
1.5
  0
LINE
  5
1C4
100
AcDbEntity
  8
invisible lines
  6
ByLayer
 62
  256
370
   -1
100
AcDbLine
 10
132.5
 20
197
 11
167.5
 21
197
  0
LINE
  5
1C5
100
AcDbEntity
  8
invisible lines
  6
ByLayer
 62
  256
370
   -1
100
AcDbLine
 10
167.5
 20
197
 11
167.5
 21
175
  0
LINE
  5
1C6
100
AcDbEntity
  8
invisible lines
  6
ByLayer
 62
  256
370
   -1
100
AcDbLine
 10
167.5
 20
175
 11
132.5
 21
175
  0
LINE
  5
1C7
100
AcDbEntity
  8
invisible lines
  6
ByLayer
 62
  256
370
   -1
100
AcDbLine
 10
132.5
 20
175
 11
132.5
 21
197
  0
LINE
  5
1C8
100
AcDbEntity
  8
invisible lines
  6
ByLayer
 62
  256
370
   -1
100
AcDbLine
 10
277.5
 20
197
 11
312.5
 21
197
  0
LINE
  5
1C9
100
AcDbEntity
  8
invisible lines
  6
ByLayer
 62
  256
370
   -1
100
AcDbLine
 10
312.5
 20
197
 11
312.5
 21
175
  0
LINE
  5
1CA
100
AcDbEntity
  8
invisible lines
  6
ByLayer
 62
  256
370
   -1
100
AcDbLine
 10
312.5
 20
175
 11
277.5
 21
175
  0
LINE
  5
1CB
100
AcDbEntity
  8
invisible lines
  6
ByLayer
 62
  256
370
   -1
100
AcDbLine
 10
277.5
 20
175
 11
277.5
 21
197
  0
LINE
  5
1CC
100
AcDbEntity
  8
invisible lines
  6
ByLayer
 62
  256
370
   -1
100
AcDbLine
 10
132.5
 20
175
 11
312.5
 21
175
  0
LINE
  5
1CD
100
AcDbEntity
  8
invisible lines
  6
ByLayer
 62
  256
370
   -1
100
AcDbLine
 10
312.5
 20
175
 11
312.5
 21
159
  0
LINE
  5
1CE
100
AcDbEntity
  8
invisible lines
  6
ByLayer
 62
  256
370
   -1
100
AcDbLine
 10
312.5
 20
159
 11
132.5
 21
159
  0
LINE
  5
1CF
100
AcDbEntity
  8
invisible lines
  6
ByLayer
 62
  256
370
   -1
100
AcDbLine
 10
132.5
 20
159
 11
132.5
 21
175
  0
DIMENSION
  5
1D0
100
AcDbEntity
  8
measurements
  6
ByLayer
 62
  256
370
   -1
100
AcDbDimension
  2
*D14
 10
16.0606601718
 20
208.060660172
 30
0
 11
12.79029130858369
 21
209.2097086909996
 31
0
 70
   35
 71
    5
 72
    0
  3
Standard
 53
0
210
0
220
0
230
1
100
AcDbDiametricDimension
 15
13.9393398282
 25
205.939339828
 35
0
 40
0
  0
DIMENSION
  5
1D1
100
AcDbEntity
  8
measurements
  6
ByLayer
 62
  256
370
   -1
100
AcDbDimension
  2
*D15
 10
-20
 20
231
 30
0
 11
-23.125
 21
222.5
 31
0
 70
   32
 71
    5
 72
    0
  3
Standard
 53
0
210
0
220
0
230
1
100
AcDbAlignedDimension
 13
1
 23
214
 33
0
 14
0
 24
231
 34
0
 50
90
100
AcDbRotatedDimension
  0
DIMENSION
  5
1D2
100
AcDbEntity
  8
measurements
  6
ByLayer
 62
  256
370
   -1
100
AcDbDimension
  2
*D16
 10
-20
 20
197
 30
0
 11
-23.125
 21
205.5
 31
0
 70
   32
 71
    5
 72
    0
  3
Standard
 53
0
210
0
220
0
230
1
100
AcDbAlignedDimension
 13
1
 23
214
 33
0
 14
1
 24
197
 34
0
 50
90
100
AcDbRotatedDimension
  0
LINE
  5
1D3
100
AcDbEntity
  8
0
  6
ByLayer
 62
  256
370
   -1
100
AcDbLine
 10
445
 20
0
 11
445
 21
16
  0
LINE
  5
1D4
100
AcDbEntity
  8
0
  6
ByLayer
 62
  256
370
   -1
100
AcDbLine
 10
445
 20
16
 11
444
 21
16
  0
LINE
  5
1D5
100
AcDbEntity
  8
invisible lines
  6
ByLayer
 62
  256
370
   -1
100
AcDbLine
 10
444
 20
16
 11
1
 21
16
  0
DIMENSION
  5
1D6
100
AcDbEntity
  8
measurements
  6
ByLayer
 62
  256
370
   -1
100
AcDbDimension
  2
*D17
 10
-20
 20
16
 30
0
 11
-23.125
 21
8.000000000000002
 31
0
 70
   32
 71
    5
 72
    0
  3
Standard
 53
0
210
0
220
0
230
1
100
AcDbAlignedDimension
 13
0
 23
0
 33
0
 14
0
 24
16
 34
0
 50
90
100
AcDbRotatedDimension
  0
DIMENSION
  5
1D7
100
AcDbEntity
  8
measurements
  6
ByLayer
 62
  256
370
   -1
100
AcDbDimension
  2
*D18
 10
-40
 20
214
 30
0
 11
-43.12500000000001
 21
116
 31
0
 70
   32
 71
    5
 72
    0
  3
Standard
 53
0
210
0
220
0
230
1
100
AcDbAlignedDimension
 13
1
 23
18
 33
0
 14
0
 24
214
 34
0
 50
90
100
AcDbRotatedDimension
  0
DIMENSION
  5
1D8
100
AcDbEntity
  8
measurements
  6
ByLayer
 62
  256
370
   -1
100
AcDbDimension
  2
*D19
 10
-60
 20
231
 30
0
 11
-63.12500000000001
 21
115.5
 31
0
 70
   32
 71
    5
 72
    0
  3
Standard
 53
0
210
0
220
0
230
1
100
AcDbAlignedDimension
 13
0
 23
0
 33
0
 14
0
 24
231
 34
0
 50
90
100
AcDbRotatedDimension
  0
DIMENSION
  5
1D9
100
AcDbEntity
  8
measurements
  6
ByLayer
 62
  256
370
   -1
100
AcDbDimension
  2
*D20
 10
-10
 20
16
 30
0
 11
-13.125
 21
17
 31
0
 70
   32
 71
    5
 72
    0
  3
Standard
 53
0
210
0
220
0
230
1
100
AcDbAlignedDimension
 13
1
 23
18
 33
0
 14
0
 24
16
 34
0
 50
90
100
AcDbRotatedDimension
  0
DIMENSION
  5
1DA
100
AcDbEntity
  8
measurements
  6
ByLayer
 62
  256
370
   -1
100
AcDbDimension
  2
*D21
 10
-10
 20
1
 30
0
 11
-13.125
 21
0.5000000000000012
 31
0
 70
   32
 71
    5
 72
    0
  3
Standard
 53
0
210
0
220
0
230
1
100
AcDbAlignedDimension
 13
0
 23
0
 33
0
 14
1
 24
1
 34
0
 50
90
100
AcDbRotatedDimension
  0
DIMENSION
  5
1DB
100
AcDbEntity
  8
measurements
  6
ByLayer
 62
  256
370
   -1
100
AcDbDimension
  2
*D22
 10
1
 20
30
 30
0
 11
0.5000000000000002
 21
33.125
 31
0
 70
   32
 71
    5
 72
    0
  3
Standard
 53
0
210
0
220
0
230
1
100
AcDbAlignedDimension
 13
0
 23
16
 33
0
 14
1
 24
16
 34
0
100
AcDbRotatedDimension
  0
DIMENSION
  5
1DC
100
AcDbEntity
  8
measurements
  6
ByLayer
 62
  256
370
   -1
100
AcDbDimension
  2
*D23
 10
1
 20
180
 30
0
 11
0.5000000000000002
 21
183.125
 31
0
 70
   32
 71
    5
 72
    0
  3
Standard
 53
0
210
0
220
0
230
1
100
AcDbAlignedDimension
 13
0
 23
197
 33
0
 14
1
 24
197
 34
0
100
AcDbRotatedDimension
  0
DIMENSION
  5
1DD
100
AcDbEntity
  8
measurements
  6
ByLayer
 62
  256
370
   -1
100
AcDbDimension
  2
*D24
 10
110
 20
175
 30
0
 11
106.875
 21
186
 31
0
 70
   32
 71
    5
 72
    0
  3
Standard
 53
0
210
0
220
0
230
1
100
AcDbAlignedDimension
 13
132.5
 23
197
 33
0
 14
132.5
 24
175
 34
0
 50
90
100
AcDbRotatedDimension
  0
DIMENSION
  5
1DE
100
AcDbEntity
  8
measurements
  6
ByLayer
 62
  256
370
   -1
100
AcDbDimension
  2
*D25
 10
590
 20
1
 30
0
 11
586.875
 21
107.5
 31
0
 70
   32
 71
    5
 72
    0
  3
Standard
 53
0
210
0
220
0
230
1
100
AcDbAlignedDimension
 13
554
 23
214
 33
0
 14
532
 24
1
 34
0
 50
90
100
AcDbRotatedDimension
  0
DIMENSION
  5
1DF
100
AcDbEntity
  8
measurements
  6
ByLayer
 62
  256
370
   -1
100
AcDbDimension
  2
*D26
 10
470
 20
-3.06161699787e-15
 30
0
 11
466.875
 21
107
 31
0
 70
   32
 71
    5
  3
Standard
 53
0
210
0
220
0
230
1
100
AcDbAlignedDimension
 13
444
 23
214
 33
0
 14
445
 24
0
 34
0
 50
90
100
AcDbRotatedDimension
  0
DIMENSION
  5
1E0
100
AcDbEntity
  8
measurements
  6
ByLayer
 62
  256
370
   -1
100
AcDbDimension
  2
*D27
 10
1
 20
240
 30
0
 11
8
 21
243.125
 31
0
 70
   32
 71
    5
 72
    0
  3
Standard
 53
0
210
0
220
0
230
1
100
AcDbAlignedDimension
 13
15
 23
207
 33
0
 14
1
 24
214
 34
0
100
AcDbRotatedDimension
  0
DIMENSION
  5
1E1
100
AcDbEntity
  8
measurements
  6
ByLayer
 62
  256
370
   -1
100
AcDbDimension
  2
*D28
 10
29
 20
240
 30
0
 11
22
 21
243.125
 31
0
 70
   32
 71
    5
 72
    0
  3
Standard
 53
0
210
0
220
0
230
1
100
AcDbAlignedDimension
 13
15
 23
207
 33
0
 14
29
 24
214
 34
0
100
AcDbRotatedDimension
  0
DIMENSION
  5
1E2
100
AcDbEntity
  8
measurements
  6
ByLayer
 62
  256
370
   -1
100
AcDbDimension
  2
*D29
 10
1
 20
250
 30
0
 11
66.75
 21
253.125
 31
0
 70
   32
 71
    5
 72
    0
  3
Standard
 53
0
210
0
220
0
230
1
100
AcDbAlignedDimension
 13
132.5
 23
197
 33
0
 14
1
 24
214
 34
0
100
AcDbRotatedDimension
  0
DIMENSION
  5
1E3
100
AcDbEntity
  8
measurements
  6
ByLayer
 62
  256
370
   -1
100
AcDbDimension
  2
*D30
 10
167.5
 20
250
 30
0
 11
150
 21
253.125
 31
0
 70
   32
 71
    5
 72
    0
  3
Standard
 53
0
210
0
220
0
230
1
100
AcDbAlignedDimension
 13
132.5
 23
197
 33
0
 14
167.5
 24
197
 34
0
100
AcDbRotatedDimension
  0
DIMENSION
  5
1E4
100
AcDbEntity
  8
measurements
  6
ByLayer
 62
  256
370
   -1
100
AcDbDimension
  2
*D31
 10
444
 20
260
 30
0
 11
222.5
 21
263.125
 31
0
 70
   32
 71
    5
 72
    0
  3
Standard
 53
0
210
0
220
0
230
1
100
AcDbAlignedDimension
 13
1
 23
214
 33
0
 14
444
 24
214
 34
0
100
AcDbRotatedDimension
  0
DIMENSION
  5
1E5
100
AcDbEntity
  8
measurements
  6
ByLayer
 62
  256
370
   -1
100
AcDbDimension
  2
*D32
 10
445
 20
270
 30
0
 11
222.5
 21
273.125
 31
0
 70
   32
 71
    5
 72
    0
  3
Standard
 53
0
210
0
220
0
230
1
100
AcDbAlignedDimension
 13
0
 23
231
 33
0
 14
445
 24
231
 34
0
100
AcDbRotatedDimension
  0
DIMENSION
  5
1E6
100
AcDbEntity
  8
measurements
  6
ByLayer
 62
  256
370
   -1
100
AcDbDimension
  2
*D33
 10
312.5
 20
140
 30
0
 11
222.5
 21
143.125
 31
0
 70
   32
 71
    5
 72
    0
  3
Standard
 53
0
210
0
220
0
230
1
100
AcDbAlignedDimension
 13
132.5
 23
159
 33
0
 14
312.5
 24
159
 34
0
100
AcDbRotatedDimension
  0
DIMENSION
  5
1E7
100
AcDbEntity
  8
measurements
  6
ByLayer
 62
  256
370
   -1
100
AcDbDimension
  2
*D34
 10
416
 20
120
 30
0
 11
222.5
 21
123.125
 31
0
 70
   32
 71
    5
 72
    0
  3
Standard
 53
0
210
0
220
0
230
1
100
AcDbAlignedDimension
 13
29
 23
214
 33
0
 14
416
 24
214
 34
0
100
AcDbRotatedDimension
  0
ENDSEC
  0
SECTION
  2
OBJECTS
  0
DICTIONARY
  5
C
330
0
100
AcDbDictionary
281
    1
  3
ACAD_GROUP
350
D
  0
DICTIONARY
  5
D
330
C
100
AcDbDictionary
281
    1
  0
ENDSEC
  0
EOF
