999
dxfrw 0.6.3
  0
SECTION
  2
HEADER
  9
$ACADVER
  1
AC1021
  9
$DWGCODEPAGE
  3
ANSI_1252
  9
$INSBASE
 10
0
 20
0
 30
0
  9
$EXTMIN
 10
-25.625
 20
-24
 30
0
  9
$EXTMAX
 10
541.25
 20
285.625
 30
0
  9
$LIMMIN
 10
0
 20
0
  9
$LIMMAX
 10
420
 20
297
  9
$ORTHOMODE
 70
    0
  9
$REGENMODE
 70
    1
  9
$FILLMODE
 70
    1
  9
$QTEXTMODE
 70
    0
  9
$MIRRTEXT
 70
    0
  9
$LTSCALE
 40
1
  9
$ATTMODE
 70
    0
  9
$TEXTSIZE
 40
2.5
  9
$TRACEWID
 40
15.68
  9
$TEXTSTYLE
  7
STANDARD
  9
$CLAYER
  8
measurements
  9
$CELTYPE
  6
BYLAYER
  9
$CECOLOR
 62
  256
  9
$CELTSCALE
 40
1
  9
$DISPSILH
 70
    0
  9
$DIMSCALE
 40
1
  9
$DIMASZ
 40
2.5
  9
$DIMEXO
 40
0.625
  9
$DIMDLI
 40
3.75
  9
$DIMRND
 40
0
  9
$DIMDLE
 40
0
  9
$DIMEXE
 40
1.25
  9
$DIMTP
 40
0
  9
$DIMTM
 40
0
  9
$DIMTXT
 40
5
  9
$DIMCEN
 40
2.5
  9
$DIMTSZ
 40
0
  9
$DIMTOL
 70
    0
  9
$DIMLIM
 70
    0
  9
$DIMTIH
 70
    0
  9
$DIMTOH
 70
    0
  9
$DIMSE1
 70
    0
  9
$DIMSE2
 70
    0
  9
$DIMTAD
 70
    1
  9
$DIMZIN
 70
    1
  9
$DIMBLK
  1

  9
$DIMASO
 70
    1
  9
$DIMSHO
 70
    1
  9
$DIMPOST
  1

  9
$DIMAPOST
  1

  9
$DIMALT
 70
    0
  9
$DIMALTD
 70
    3
  9
$DIMALTF
 40
0.03937
  9
$DIMLFAC
 40
1
  9
$DIMTOFL
 70
    1
  9
$DIMTVP
 40
0
  9
$DIMTIX
 70
    0
  9
$DIMSOXD
 70
    0
  9
$DIMSAH
 70
    0
  9
$DIMBLK1
  1

  9
$DIMBLK2
  1

  9
$DIMSTYLE
  2
STANDARD
  9
$DIMCLRD
 70
    0
  9
$DIMCLRE
 70
    0
  9
$DIMCLRT
 70
    0
  9
$DIMTFAC
 40
1
  9
$DIMGAP
 40
0.625
  9
$DIMJUST
 70
    0
  9
$DIMSD1
 70
    0
  9
$DIMSD2
 70
    0
  9
$DIMTOLJ
 70
    0
  9
$DIMTZIN
 70
    8
  9
$DIMALTZ
 70
    0
  9
$DIMALTTZ
 70
    0
  9
$DIMUPT
 70
    0
  9
$DIMDEC
 70
    0
  9
$DIMTDEC
 70
    2
  9
$DIMALTU
 70
    2
  9
$DIMALTTD
 70
    3
  9
$DIMTXSTY
  7
standard
  9
$DIMAUNIT
 70
    0
  9
$DIMADEC
 70
    0
  9
$DIMALTRND
 40
0
  9
$DIMAZIN
 70
    0
  9
$DIMDSEP
 70
    0
  9
$DIMATFIT
 70
    3
  9
$DIMFRAC
 70
    0
  9
$DIMLDRBLK
  1
STANDARD
  9
$DIMLUNIT
 70
    2
  9
$DIMLWD
 70
   -2
  9
$DIMLWE
 70
   -2
  9
$DIMTMOVE
 70
    0
  9
$DIMFXL
 40
1
  9
$DIMFXLON
 70
    0
  9
$DIMJOGANG
 40
0.7854
  9
$DIMTFILL
 70
    0
  9
$DIMTFILLCLR
 70
    0
  9
$DIMARCSYM
 70
    0
  9
$DIMLTYPE
  6

  9
$DIMLTEX1
  6

  9
$DIMLTEX2
  6

  9
$LUNITS
 70
    2
  9
$LUPREC
 70
    4
  9
$SKETCHINC
 40
1
  9
$FILLETRAD
 40
0
  9
$AUNITS
 70
    0
  9
$AUPREC
 70
    2
  9
$MENU
  1
.
  9
$ELEVATION
 40
0
  9
$PELEVATION
 40
0
  9
$THICKNESS
 40
0
  9
$LIMCHECK
 70
    0
  9
$CHAMFERA
 40
0
  9
$CHAMFERB
 40
0
  9
$CHAMFERC
 40
0
  9
$CHAMFERD
 40
0
  9
$SKPOLY
 70
    0
  9
$USRTIMER
 70
    1
  9
$ANGBASE
 50
0
  9
$ANGDIR
 70
    0
  9
$PDMODE
 70
   34
  9
$PDSIZE
 40
0
  9
$PLINEWID
 40
0
  9
$SPLFRAME
 70
    0
  9
$SPLINETYPE
 70
    2
  9
$SPLINESEGS
 70
    8
  9
$HANDSEED
  5
20000
  9
$SURFTAB1
 70
    6
  9
$SURFTAB2
 70
    6
  9
$SURFTYPE
 70
    6
  9
$SURFU
 70
    6
  9
$SURFV
 70
    6
  9
$UCSBASE
  2

  9
$UCSNAME
  2

  9
$UCSORG
 10
0
 20
0
 30
0
  9
$UCSXDIR
 10
1
 20
0
 30
0
  9
$UCSYDIR
 10
0
 20
1
 30
0
  9
$UCSORTHOREF
  2

  9
$UCSORTHOVIEW
 70
    0
  9
$UCSORGTOP
 10
0
 20
0
 30
0
  9
$UCSORGBOTTOM
 10
0
 20
0
 30
0
  9
$UCSORGLEFT
 10
0
 20
0
 30
0
  9
$UCSORGRIGHT
 10
0
 20
0
 30
0
  9
$UCSORGFRONT
 10
0
 20
0
 30
0
  9
$UCSORGBACK
 10
0
 20
0
 30
0
  9
$PUCSBASE
  2

  9
$PUCSNAME
  2

  9
$PUCSORG
 10
0
 20
0
 30
0
  9
$PUCSXDIR
 10
1
 20
0
 30
0
  9
$PUCSYDIR
 10
0
 20
1
 30
0
  9
$PUCSORTHOREF
  2

  9
$PUCSORTHOVIEW
 70
    0
  9
$PUCSORGTOP
 10
0
 20
0
 30
0
  9
$PUCSORGBOTTOM
 10
0
 20
0
 30
0
  9
$PUCSORGLEFT
 10
0
 20
0
 30
0
  9
$PUCSORGRIGHT
 10
0
 20
0
 30
0
  9
$PUCSORGFRONT
 10
0
 20
0
 30
0
  9
$PUCSORGBACK
 10
0
 20
0
 30
0
  9
$USERI1
 70
    0
  9
$USERI2
 70
    0
  9
$USERI3
 70
    0
  9
$USERI4
 70
    0
  9
$USERI5
 70
    0
  9
$USERR1
 40
0
  9
$USERR2
 40
0
  9
$USERR3
 40
0
  9
$USERR4
 40
0
  9
$USERR5
 40
0
  9
$WORLDVIEW
 70
    1
  9
$SHADEDGE
 70
    3
  9
$SHADEDIF
 70
   70
  9
$TILEMODE
 70
    1
  9
$MAXACTVP
 70
   64
  9
$PINSBASE
 10
12.5
 20
45.993883792
 30
0
  9
$PLIMCHECK
 70
    0
  9
$PEXTMIN
 10
0
 20
0
 30
0
  9
$PEXTMAX
 10
0
 20
0
 30
0
  9
$GRIDMODE
 70
    1
  9
$SNAPSTYLE
 70
    0
  9
$GRIDUNIT
 10
0
 20
0
  9
$PLIMMIN
 10
0
 20
0
  9
$PLIMMAX
 10
297
 20
210
  9
$UNITMODE
 70
    0
  9
$VISRETAIN
 70
    1
  9
$PLINEGEN
 70
    0
  9
$PSLTSCALE
 70
    1
  9
$TREEDEPTH
 70
 3020
  9
$CMLSTYLE
  2
Standard
  9
$CMLJUST
 70
    0
  9
$CMLSCALE
 40
20
  9
$PROXYGRAPHICS
 70
    1
  9
$MEASUREMENT
 70
    1
  9
$CELWEIGHT
370
   -1
  9
$ENDCAPS
280
    0
  9
$JOINSTYLE
280
    0
  9
$LWDISPLAY
290
    0
  9
$INSUNITS
 70
    4
  9
$HYPERLINKBASE
  1

  9
$STYLESHEET
  1

  9
$XEDIT
290
    1
  9
$CEPSNTYPE
380
    0
  9
$PSTYLEMODE
290
    1
  9
$EXTNAMES
290
    1
  9
$PSVPSCALE
 40
0.519877516857
  9
$OLESTARTUP
290
    0
  9
$SORTENTS
280
  127
  9
$INDEXCTL
280
    0
  9
$HIDETEXT
280
    1
  9
$XCLIPFRAME
290
    0
  9
$HALOGAP
280
    0
  9
$OBSCOLOR
 70
  257
  9
$OBSLTYPE
280
    0
  9
$INTERSECTIONDISPLAY
280
    0
  9
$INTERSECTIONCOLOR
 70
  257
  9
$DIMASSOC
280
    1
  9
$PROJECTNAME
  1

  9
$CAMERADISPLAY
290
    0
  9
$LENSLENGTH
 40
50
  9
$CAMERAHEIGHT
 40
0
  9
$STEPSPERSEC
 40
2
  9
$STEPSIZE
 40
50
  9
$3DDWFPREC
 40
2
  9
$PSOLWIDTH
 40
5
  9
$PSOLHEIGHT
 40
80
  9
$LOFTANG1
 40
1.570796326794897
  9
$LOFTANG2
 40
1.570796326794897
  9
$LOFTMAG1
 40
0
  9
$LOFTMAG2
 40
0
  9
$LOFTPARAM
 70
    7
  9
$LOFTNORMALS
280
    1
  9
$LATITUDE
 40
1
  9
$LONGITUDE
 40
1
  9
$NORTHDIRECTION
 40
0
  9
$TIMEZONE
 70
-8000
  9
$LIGHTGLYPHDISPLAY
280
    1
  9
$TILEMODELIGHTSYNCH
280
    1
  9
$SOLIDHIST
280
    1
  9
$SHOWHIST
280
    1
  9
$DWFFRAME
280
    2
  9
$DGNFRAME
280
    0
  9
$REALWORLDSCALE
290
    1
  9
$INTERFERECOLOR
 62
    1
  9
$CSHADOW
280
    0
  9
$SHADOWPLANELOCATION
 40
0
  0
ENDSEC
  0
SECTION
  2
CLASSES
  0
ENDSEC
  0
SECTION
  2
TABLES
  0
TABLE
  2
VPORT
  5
8
330
0
100
AcDbSymbolTable
 70
    1
  0
VPORT
  5
31
330
2
100
AcDbSymbolTableRecord
100
AcDbViewportTableRecord
  2
*ACTIVE
 70
    0
 10
0
 20
0
 11
1
 21
1
 12
288.9981300853177
 22
139.4073604421277
 13
0
 23
0
 14
10
 24
10
 15
10
 25
10
 16
0
 26
0
 36
1
 17
0
 27
0
 37
0
 40
321.655269937
 41
2.207423580786026
 42
50
 43
0
 44
0
 50
0
 51
0
 71
    0
 72
  100
 73
    1
 74
    3
 75
    0
 76
    1
 77
    0
 78
    0
281
    0
 65
    1
110
0
120
0
130
0
111
1
121
0
131
0
112
0
122
1
132
0
 79
    0
146
0
348
10020
 60
    7
 61
    5
292
1
282
    1
141
0
142
0
 63
  250
421
3358443
  0
ENDTAB
  0
TABLE
  2
LTYPE
  5
5
330
0
100
AcDbSymbolTable
 70
    4
  0
LTYPE
  5
14
330
5
100
AcDbSymbolTableRecord
100
AcDbLinetypeTableRecord
  2
ByBlock
 70
    0
  3

 72
   65
 73
    0
 40
0
  0
LTYPE
  5
15
330
5
100
AcDbSymbolTableRecord
100
AcDbLinetypeTableRecord
  2
ByLayer
 70
    0
  3

 72
   65
 73
    0
 40
0
  0
LTYPE
  5
16
330
5
100
AcDbSymbolTableRecord
100
AcDbLinetypeTableRecord
  2
Continuous
 70
    0
  3
Solid line
 72
   65
 73
    0
 40
0
  0
LTYPE
  5
32
330
5
100
AcDbSymbolTableRecord
100
AcDbLinetypeTableRecord
  2
DOT
 70
    0
  3
Dot . . . . . . . . . . . . . . . . . . . . . .
 72
   65
 73
    2
 40
6.35
 49
0
 74
    0
 49
-6.35
 74
    0
  0
LTYPE
  5
33
330
5
100
AcDbSymbolTableRecord
100
AcDbLinetypeTableRecord
  2
DOTTINY
 70
    0
  3
Dot (.15x) .....................................
 72
   65
 73
    2
 40
0.9525
 49
0
 74
    0
 49
-0.9525
 74
    0
  0
LTYPE
  5
34
330
5
100
AcDbSymbolTableRecord
100
AcDbLinetypeTableRecord
  2
DOT2
 70
    0
  3
Dot (.5x) .....................................
 72
   65
 73
    2
 40
3.175
 49
0
 74
    0
 49
-3.175
 74
    0
  0
LTYPE
  5
35
330
5
100
AcDbSymbolTableRecord
100
AcDbLinetypeTableRecord
  2
DOTX2
 70
    0
  3
Dot (2x) .  .  .  .  .  .  .  .  .  .  .  .  .
 72
   65
 73
    2
 40
12.7
 49
0
 74
    0
 49
-12.7
 74
    0
  0
LTYPE
  5
36
330
5
100
AcDbSymbolTableRecord
100
AcDbLinetypeTableRecord
  2
DASHED
 70
    0
  3
Dashed _ _ _ _ _ _ _ _ _ _ _ _ _ _ _ _ _
 72
   65
 73
    2
 40
19.05
 49
12.7
 74
    0
 49
-6.35
 74
    0
  0
LTYPE
  5
37
330
5
100
AcDbSymbolTableRecord
100
AcDbLinetypeTableRecord
  2
DASHEDTINY
 70
    0
  3
Dashed (.15x) _ _ _ _ _ _ _ _ _ _ _ _ _ _ _ _ _
 72
   65
 73
    2
 40
2.8575
 49
1.905
 74
    0
 49
-0.9525
 74
    0
  0
LTYPE
  5
38
330
5
100
AcDbSymbolTableRecord
100
AcDbLinetypeTableRecord
  2
DASHED2
 70
    0
  3
Dashed (.5x) _ _ _ _ _ _ _ _ _ _ _ _ _ _ _ _ _
 72
   65
 73
    2
 40
9.524999999999999
 49
6.35
 74
    0
 49
-3.175
 74
    0
  0
LTYPE
  5
39
330
5
100
AcDbSymbolTableRecord
100
AcDbLinetypeTableRecord
  2
DASHEDX2
 70
    0
  3
Dashed (2x) ____  ____  ____  ____  ____  ___
 72
   65
 73
    2
 40
38.09999999999999
 49
25.4
 74
    0
 49
-12.7
 74
    0
  0
LTYPE
  5
3A
330
5
100
AcDbSymbolTableRecord
100
AcDbLinetypeTableRecord
  2
DASHDOT
 70
    0
  3
Dash dot __ . __ . __ . __ . __ . __ . __ . __
 72
   65
 73
    4
 40
25.4
 49
12.7
 74
    0
 49
-6.35
 74
    0
 49
0
 74
    0
 49
-6.35
 74
    0
  0
LTYPE
  5
3B
330
5
100
AcDbSymbolTableRecord
100
AcDbLinetypeTableRecord
  2
DASHDOTTINY
 70
    0
  3
Dash dot (.15x) _._._._._._._._._._._._._._._.
 72
   65
 73
    4
 40
3.81
 49
1.905
 74
    0
 49
-0.9525
 74
    0
 49
0
 74
    0
 49
-0.9525
 74
    0
  0
LTYPE
  5
3C
330
5
100
AcDbSymbolTableRecord
100
AcDbLinetypeTableRecord
  2
DASHDOT2
 70
    0
  3
Dash dot (.5x) _._._._._._._._._._._._._._._.
 72
   65
 73
    4
 40
12.7
 49
6.35
 74
    0
 49
-3.175
 74
    0
 49
0
 74
    0
 49
-3.175
 74
    0
  0
LTYPE
  5
3D
330
5
100
AcDbSymbolTableRecord
100
AcDbLinetypeTableRecord
  2
DASHDOTX2
 70
    0
  3
Dash dot (2x) ____  .  ____  .  ____  .  ___
 72
   65
 73
    4
 40
50.8
 49
25.4
 74
    0
 49
-12.7
 74
    0
 49
0
 74
    0
 49
-12.7
 74
    0
  0
LTYPE
  5
3E
330
5
100
AcDbSymbolTableRecord
100
AcDbLinetypeTableRecord
  2
DIVIDE
 70
    0
  3
Divide ____ . . ____ . . ____ . . ____ . . ____
 72
   65
 73
    6
 40
31.75
 49
12.7
 74
    0
 49
-6.35
 74
    0
 49
0
 74
    0
 49
-6.35
 74
    0
 49
0
 74
    0
 49
-6.35
 74
    0
  0
LTYPE
  5
3F
330
5
100
AcDbSymbolTableRecord
100
AcDbLinetypeTableRecord
  2
DIVIDETINY
 70
    0
  3
Divide (.15x) __..__..__..__..__..__..__..__.._
 72
   65
 73
    6
 40
4.7625
 49
1.905
 74
    0
 49
-0.9525
 74
    0
 49
0
 74
    0
 49
-0.9525
 74
    0
 49
0
 74
    0
 49
-0.9525
 74
    0
  0
LTYPE
  5
40
330
5
100
AcDbSymbolTableRecord
100
AcDbLinetypeTableRecord
  2
DIVIDE2
 70
    0
  3
Divide (.5x) __..__..__..__..__..__..__..__.._
 72
   65
 73
    6
 40
15.875
 49
6.35
 74
    0
 49
-3.175
 74
    0
 49
0
 74
    0
 49
-3.175
 74
    0
 49
0
 74
    0
 49
-3.175
 74
    0
  0
LTYPE
  5
41
330
5
100
AcDbSymbolTableRecord
100
AcDbLinetypeTableRecord
  2
DIVIDEX2
 70
    0
  3
Divide (2x) ________  .  .  ________  .  .  _
 72
   65
 73
    6
 40
63.5
 49
25.4
 74
    0
 49
-12.7
 74
    0
 49
0
 74
    0
 49
-12.7
 74
    0
 49
0
 74
    0
 49
-12.7
 74
    0
  0
LTYPE
  5
42
330
5
100
AcDbSymbolTableRecord
100
AcDbLinetypeTableRecord
  2
BORDER
 70
    0
  3
Border __ __ . __ __ . __ __ . __ __ . __ __ .
 72
   65
 73
    6
 40
44.45
 49
12.7
 74
    0
 49
-6.35
 74
    0
 49
12.7
 74
    0
 49
-6.35
 74
    0
 49
0
 74
    0
 49
-6.35
 74
    0
  0
LTYPE
  5
43
330
5
100
AcDbSymbolTableRecord
100
AcDbLinetypeTableRecord
  2
BORDERTINY
 70
    0
  3
Border (.15x) __.__.__.__.__.__.__.__.__.__.__.
 72
   65
 73
    6
 40
6.6675
 49
1.905
 74
    0
 49
-0.9525
 74
    0
 49
1.905
 74
    0
 49
-0.9525
 74
    0
 49
0
 74
    0
 49
-0.9525
 74
    0
  0
LTYPE
  5
44
330
5
100
AcDbSymbolTableRecord
100
AcDbLinetypeTableRecord
  2
BORDER2
 70
    0
  3
Border (.5x) __.__.__.__.__.__.__.__.__.__.__.
 72
   65
 73
    6
 40
22.225
 49
6.35
 74
    0
 49
-3.175
 74
    0
 49
6.35
 74
    0
 49
-3.175
 74
    0
 49
0
 74
    0
 49
-3.175
 74
    0
  0
LTYPE
  5
45
330
5
100
AcDbSymbolTableRecord
100
AcDbLinetypeTableRecord
  2
BORDERX2
 70
    0
  3
Border (2x) ____  ____  .  ____  ____  .  ___
 72
   65
 73
    6
 40
88.89999999999999
 49
25.4
 74
    0
 49
-12.7
 74
    0
 49
25.4
 74
    0
 49
-12.7
 74
    0
 49
0
 74
    0
 49
-12.7
 74
    0
  0
LTYPE
  5
46
330
5
100
AcDbSymbolTableRecord
100
AcDbLinetypeTableRecord
  2
CENTER
 70
    0
  3
Center ____ _ ____ _ ____ _ ____ _ ____ _ ____
 72
   65
 73
    4
 40
50.8
 49
31.75
 74
    0
 49
-6.35
 74
    0
 49
6.35
 74
    0
 49
-6.35
 74
    0
  0
LTYPE
  5
47
330
5
100
AcDbSymbolTableRecord
100
AcDbLinetypeTableRecord
  2
CENTERTINY
 70
    0
  3
Center (.15x) ___ _ ___ _ ___ _ ___ _ ___ _ ___
 72
   65
 73
    4
 40
7.619999999999999
 49
4.7625
 74
    0
 49
-0.9525
 74
    0
 49
0.9525
 74
    0
 49
-0.9525
 74
    0
  0
LTYPE
  5
48
330
5
100
AcDbSymbolTableRecord
100
AcDbLinetypeTableRecord
  2
CENTER2
 70
    0
  3
Center (.5x) ___ _ ___ _ ___ _ ___ _ ___ _ ___
 72
   65
 73
    4
 40
28.575
 49
19.05
 74
    0
 49
-3.175
 74
    0
 49
3.175
 74
    0
 49
-3.175
 74
    0
  0
LTYPE
  5
49
330
5
100
AcDbSymbolTableRecord
100
AcDbLinetypeTableRecord
  2
CENTERX2
 70
    0
  3
Center (2x) ________  __  ________  __  _____
 72
   65
 73
    4
 40
101.6
 49
63.5
 74
    0
 49
-12.7
 74
    0
 49
12.7
 74
    0
 49
-12.7
 74
    0
  0
ENDTAB
  0
TABLE
  2
LAYER
  5
2
330
0
100
AcDbSymbolTable
 70
    1
  0
LAYER
  5
10
330
2
100
AcDbSymbolTableRecord
100
AcDbLayerTableRecord
  2
0
 70
    0
 62
    7
  6
CONTINUOUS
370
    0
390
F
  0
LAYER
  5
4A
330
2
100
AcDbSymbolTableRecord
100
AcDbLayerTableRecord
  2
center lines
 70
    1
 62
    2
  6
DASHED2
370
    0
390
F
  0
LAYER
  5
4B
330
2
100
AcDbSymbolTableRecord
100
AcDbLayerTableRecord
  2
fasteners
 70
    0
 62
    5
  6
CONTINUOUS
370
    0
390
F
  0
LAYER
  5
4C
330
2
100
AcDbSymbolTableRecord
100
AcDbLayerTableRecord
  2
guide lines
 70
    0
 62
    1
  6
DASHED2
370
    0
390
F
  0
LAYER
  5
4D
330
2
100
AcDbSymbolTableRecord
100
AcDbLayerTableRecord
  2
invisible lines
 70
    0
 62
    7
  6
DASHED2
370
    0
390
F
  0
LAYER
  5
4E
330
2
100
AcDbSymbolTableRecord
100
AcDbLayerTableRecord
  2
measurements
 70
    0
 62
    3
  6
CONTINUOUS
370
    0
390
F
  0
ENDTAB
  0
TABLE
  2
STYLE
  5
3
330
0
100
AcDbSymbolTable
 70
    3
  0
STYLE
  5
4F
330
2
100
AcDbSymbolTableRecord
100
AcDbTextStyleTableRecord
  2
Standard
 70
    0
 40
0
 41
1
 50
0
 71
    0
 42
1
  3
txt
  4

  0
ENDTAB
  0
TABLE
  2
VIEW
  5
6
330
0
100
AcDbSymbolTable
 70
    0
  0
ENDTAB
  0
TABLE
  2
UCS
  5
7
330
0
100
AcDbSymbolTable
 70
    0
  0
ENDTAB
  0
TABLE
  2
APPID
  5
9
330
0
100
AcDbSymbolTable
 70
    1
  0
APPID
  5
12
330
9
100
AcDbSymbolTableRecord
100
AcDbRegAppTableRecord
  2
ACAD
 70
    0
  0
APPID
  5
50
330
9
100
AcDbSymbolTableRecord
100
AcDbRegAppTableRecord
  2
LibreCad
 70
    0
  0
ENDTAB
  0
TABLE
  2
DIMSTYLE
  5
A
330
0
100
AcDbSymbolTable
 70
    1
100
AcDbDimStyleTable
 71
    1
  0
DIMSTYLE
105
51
330
A
100
AcDbSymbolTableRecord
100
AcDbDimStyleTableRecord
  2
Standard
 70
    0
 40
1
 41
2.5
 42
0.625
 43
0.38
 44
1.25
 45
0
 46
0
 47
0
 48
0
 49
1
140
5
141
0.09
142
0
143
25.4
144
1
145
0
146
1
147
0.625
148
0
 71
    0
 72
    0
 73
    0
 74
    1
 75
    0
 76
    0
 77
    0
 78
    1
 79
    0
170
    0
171
    2
172
    0
173
    0
174
    0
175
    0
176
    0
177
    0
178
    0
179
    0
271
    0
272
    4
273
    2
274
    2
275
    0
276
    0
277
    2
278
    0
279
    0
280
    0
281
    0
282
    0
283
    1
284
    0
285
    0
286
    0
288
    0
289
    3
340
standard
341

371
   -2
372
   -2
  0
ENDTAB
  0
TABLE
  2
BLOCK_RECORD
  5
1
330
0
100
AcDbSymbolTable
 70
    2
  0
BLOCK_RECORD
  5
1F
330
1
100
AcDbSymbolTableRecord
100
AcDbBlockTableRecord
  2
*Model_Space
 70
    0
280
    1
281
    0
  0
BLOCK_RECORD
  5
1E
330
1
100
AcDbSymbolTableRecord
100
AcDbBlockTableRecord
  2
*Paper_Space
 70
    0
280
    1
281
    0
  0
BLOCK_RECORD
  5
52
330
1
100
AcDbSymbolTableRecord
100
AcDbBlockTableRecord
  2
*D14
 70
    0
280
    1
281
    0
  0
BLOCK_RECORD
  5
55
330
1
100
AcDbSymbolTableRecord
100
AcDbBlockTableRecord
  2
*D10
 70
    0
280
    1
281
    0
  0
BLOCK_RECORD
  5
58
330
1
100
AcDbSymbolTableRecord
100
AcDbBlockTableRecord
  2
*D9
 70
    0
280
    1
281
    0
  0
BLOCK_RECORD
  5
5B
330
1
100
AcDbSymbolTableRecord
100
AcDbBlockTableRecord
  2
*D2
 70
    0
280
    1
281
    0
  0
BLOCK_RECORD
  5
5E
330
1
100
AcDbSymbolTableRecord
100
AcDbBlockTableRecord
  2
*D13
 70
    0
280
    1
281
    0
  0
BLOCK_RECORD
  5
61
330
1
100
AcDbSymbolTableRecord
100
AcDbBlockTableRecord
  2
*D1
 70
    0
280
    1
281
    0
  0
BLOCK_RECORD
  5
64
330
1
100
AcDbSymbolTableRecord
100
AcDbBlockTableRecord
  2
*D4
 70
    0
280
    1
281
    0
  0
BLOCK_RECORD
  5
67
330
1
100
AcDbSymbolTableRecord
100
AcDbBlockTableRecord
  2
*D7
 70
    0
280
    1
281
    0
  0
BLOCK_RECORD
  5
6A
330
1
100
AcDbSymbolTableRecord
100
AcDbBlockTableRecord
  2
*D11
 70
    0
280
    1
281
    0
  0
BLOCK_RECORD
  5
6D
330
1
100
AcDbSymbolTableRecord
100
AcDbBlockTableRecord
  2
*D12
 70
    0
280
    1
281
    0
  0
BLOCK_RECORD
  5
70
330
1
100
AcDbSymbolTableRecord
100
AcDbBlockTableRecord
  2
*D8
 70
    0
280
    1
281
    0
  0
BLOCK_RECORD
  5
73
330
1
100
AcDbSymbolTableRecord
100
AcDbBlockTableRecord
  2
*D6
 70
    0
280
    1
281
    0
  0
BLOCK_RECORD
  5
76
330
1
100
AcDbSymbolTableRecord
100
AcDbBlockTableRecord
  2
*D5
 70
    0
280
    1
281
    0
  0
BLOCK_RECORD
  5
79
330
1
100
AcDbSymbolTableRecord
100
AcDbBlockTableRecord
  2
*D3
 70
    0
280
    1
281
    0
  0
ENDTAB
  0
ENDSEC
  0
SECTION
  2
BLOCKS
  0
BLOCK
  5
20
330
1F
100
AcDbEntity
  8
0
100
AcDbBlockBegin
  2
*Model_Space
 70
    0
 10
0
 20
0
 30
0
  3
*Model_Space
  1

  0
ENDBLK
  5
21
330
1F
100
AcDbEntity
  8
0
100
AcDbBlockEnd
  0
BLOCK
  5
1C
330
1B
100
AcDbEntity
  8
0
100
AcDbBlockBegin
  2
*Paper_Space
 70
    0
 10
0
 20
0
 30
0
  3
*Paper_Space
  1

  0
ENDBLK
  5
1D
330
1F
100
AcDbEntity
  8
0
100
AcDbBlockEnd
  0
BLOCK
  5
53
330
52
100
AcDbEntity
  8
0
100
AcDbBlockBegin
  2
*D14
 70
    1
 10
0
 20
0
  3
*D14
  1

  0
LINE
  5
7C
100
AcDbEntity
  8
measurements
  6
ByBlock
 62
    0
370
   -2
100
AcDbLine
 10
540
 20
222
 11
540
 21
3.944304526105059e-31
  0
SOLID
  5
7D
100
AcDbEntity
  8
measurements
  6
ByBlock
 62
    0
370
   -2
100
AcDbTrace
 10
540
 20
222
 30
0
 11
540.4162846577728
 21
219.5
 31
0
 12
539.5837153422272
 22
219.5
 32
0
 13
539.5837153422272
 23
219.5
 33
0
  0
SOLID
  5
7E
100
AcDbEntity
  8
measurements
  6
ByBlock
 62
    0
370
   -2
100
AcDbTrace
 10
540
 20
3.944304526105059e-31
 30
0
 11
539.5837153422272
 21
2.5
 31
0
 12
540.4162846577728
 22
2.5
 32
0
 13
540.4162846577728
 23
2.5
 33
0
  0
MTEXT
  5
7F
100
AcDbEntity
  8
measurements
  6
CONTINUOUS
 62
    0
370
   -2
100
AcDbMText
 10
536.875
 20
111
 30
0
 40
5
 41
10
 71
    5
 72
    1
  1
222
  7
standard
210
0
220
0
230
1
 50
90
 73
    2
 44
1
  0
LINE
  5
80
100
AcDbEntity
  8
measurements
  6
ByBlock
 62
    0
370
   -2
100
AcDbLine
 10
515.625
 20
222
 11
541.25
 21
222
  0
LINE
  5
81
100
AcDbEntity
  8
measurements
  6
ByBlock
 62
    0
370
   -2
100
AcDbLine
 10
515.625
 20
0
 11
541.25
 21
3.944304526105059e-31
  0
ENDBLK
  5
54
330
52
100
AcDbEntity
  8
0
100
AcDbBlockEnd
  0
BLOCK
  5
56
330
55
100
AcDbEntity
  8
0
100
AcDbBlockBegin
  2
*D10
 70
    1
 10
0
 20
0
  3
*D10
  1

  0
LINE
  5
82
100
AcDbEntity
  8
measurements
  6
ByBlock
 62
    0
370
   -2
100
AcDbLine
 10
45
 20
240
 11
30
 21
240
  0
SOLID
  5
83
100
AcDbEntity
  8
measurements
  6
ByBlock
 62
    0
370
   -2
100
AcDbTrace
 10
45
 20
240
 30
0
 11
42.5
 21
239.5837153422272
 31
0
 12
42.5
 22
240.4162846577728
 32
0
 13
42.5
 23
240.4162846577728
 33
0
  0
SOLID
  5
84
100
AcDbEntity
  8
measurements
  6
ByBlock
 62
    0
370
   -2
100
AcDbTrace
 10
30
 20
240
 30
0
 11
32.5
 21
240.4162846577728
 31
0
 12
32.5
 22
239.5837153422272
 32
0
 13
32.5
 23
239.5837153422272
 33
0
  0
MTEXT
  5
85
100
AcDbEntity
  8
measurements
  6
CONTINUOUS
 62
    0
370
   -2
100
AcDbMText
 10
37.5
 20
243.125
 30
0
 40
5
 41
5.000000000000311
 71
    5
 72
    1
  1
15
  7
standard
210
0
220
0
230
1
 50
360
 73
    2
 44
1
  0
LINE
  5
86
100
AcDbEntity
  8
measurements
  6
ByBlock
 62
    0
370
   -2
100
AcDbLine
 10
45
 20
212.625
 11
45
 21
241.25
  0
LINE
  5
87
100
AcDbEntity
  8
measurements
  6
ByBlock
 62
    0
370
   -2
100
AcDbLine
 10
30
 20
222.625
 11
30
 21
241.25
  0
ENDBLK
  5
57
330
55
100
AcDbEntity
  8
0
100
AcDbBlockEnd
  0
BLOCK
  5
59
330
58
100
AcDbEntity
  8
0
100
AcDbBlockBegin
  2
*D9
 70
    1
 10
0
 20
0
  3
*D9
  1

  0
LINE
  5
88
100
AcDbEntity
  8
measurements
  6
ByBlock
 62
    0
370
   -2
100
AcDbLine
 10
401
 20
240
 11
411
 21
240
  0
SOLID
  5
89
100
AcDbEntity
  8
measurements
  6
ByBlock
 62
    0
370
   -2
100
AcDbTrace
 10
401
 20
240
 30
0
 11
403.5
 21
240.4162846577728
 31
0
 12
403.5
 22
239.5837153422272
 32
0
 13
403.5
 23
239.5837153422272
 33
0
  0
SOLID
  5
8A
100
AcDbEntity
  8
measurements
  6
ByBlock
 62
    0
370
   -2
100
AcDbTrace
 10
411
 20
240
 30
0
 11
408.5
 21
239.5837153422272
 31
0
 12
408.5
 22
240.4162846577728
 32
0
 13
408.5
 23
240.4162846577728
 33
0
  0
MTEXT
  5
8B
100
AcDbEntity
  8
measurements
  6
CONTINUOUS
 62
    0
370
   -2
100
AcDbMText
 10
406
 20
243.125
 30
0
 40
5
 41
5
 71
    5
 72
    1
  1
10
  7
standard
210
0
220
0
230
1
 50
0
 73
    2
 44
1
  0
LINE
  5
8C
100
AcDbEntity
  8
measurements
  6
ByBlock
 62
    0
370
   -2
100
AcDbLine
 10
401
 20
212.625
 11
401
 21
241.25
  0
LINE
  5
8D
100
AcDbEntity
  8
measurements
  6
ByBlock
 62
    0
370
   -2
100
AcDbLine
 10
411
 20
212.625
 11
411
 21
241.25
  0
ENDBLK
  5
5A
330
58
100
AcDbEntity
  8
0
100
AcDbBlockEnd
  0
BLOCK
  5
5C
330
5B
100
AcDbEntity
  8
0
100
AcDbBlockBegin
  2
*D2
 70
    1
 10
0
 20
0
  3
*D2
  1

  0
LINE
  5
8E
100
AcDbEntity
  8
measurements
  6
ByBlock
 62
    0
370
   -2
100
AcDbLine
 10
426
 20
240
 11
456
 21
240
  0
SOLID
  5
8F
100
AcDbEntity
  8
measurements
  6
ByBlock
 62
    0
370
   -2
100
AcDbTrace
 10
426
 20
240
 30
0
 11
428.5
 21
240.4162846577728
 31
0
 12
428.5
 22
239.5837153422272
 32
0
 13
428.5
 23
239.5837153422272
 33
0
  0
SOLID
  5
90
100
AcDbEntity
  8
measurements
  6
ByBlock
 62
    0
370
   -2
100
AcDbTrace
 10
456
 20
240
 30
0
 11
453.5
 21
239.5837153422272
 31
0
 12
453.5
 22
240.4162846577728
 32
0
 13
453.5
 23
240.4162846577728
 33
0
  0
MTEXT
  5
91
100
AcDbEntity
  8
measurements
  6
CONTINUOUS
 62
    0
370
   -2
100
AcDbMText
 10
441
 20
243.125
 30
0
 40
5
 41
6.111111111111422
 71
    5
 72
    1
  1
30
  7
standard
210
0
220
0
230
1
 50
0
 73
    2
 44
1
  0
LINE
  5
92
100
AcDbEntity
  8
measurements
  6
ByBlock
 62
    0
370
   -2
100
AcDbLine
 10
426
 20
222.625
 11
426
 21
241.25
  0
LINE
  5
93
100
AcDbEntity
  8
measurements
  6
ByBlock
 62
    0
370
   -2
100
AcDbLine
 10
456
 20
222.625
 11
456
 21
241.25
  0
ENDBLK
  5
5D
330
5B
100
AcDbEntity
  8
0
100
AcDbBlockEnd
  0
BLOCK
  5
5F
330
5E
100
AcDbEntity
  8
0
100
AcDbBlockBegin
  2
*D13
 70
    1
 10
0
 20
0
  3
*D13
  1

  0
LINE
  5
94
100
AcDbEntity
  8
measurements
  6
ByBlock
 62
    0
370
   -2
100
AcDbLine
 10
490
 20
260
 11
515
 21
260
  0
SOLID
  5
95
100
AcDbEntity
  8
measurements
  6
ByBlock
 62
    0
370
   -2
100
AcDbTrace
 10
490
 20
260
 30
0
 11
492.5
 21
260.4162846577728
 31
0
 12
492.5
 22
259.5837153422272
 32
0
 13
492.5
 23
259.5837153422272
 33
0
  0
SOLID
  5
96
100
AcDbEntity
  8
measurements
  6
ByBlock
 62
    0
370
   -2
100
AcDbTrace
 10
515
 20
260
 30
0
 11
512.5
 21
259.5837153422272
 31
0
 12
512.5
 22
260.4162846577728
 32
0
 13
512.5
 23
260.4162846577728
 33
0
  0
MTEXT
  5
97
100
AcDbEntity
  8
measurements
  6
CONTINUOUS
 62
    0
370
   -2
100
AcDbMText
 10
502.5
 20
263.125
 30
0
 40
5
 41
6.111111111111422
 71
    5
 72
    1
  1
25
  7
standard
210
0
220
0
230
1
 50
0
 73
    2
 44
1
  0
LINE
  5
98
100
AcDbEntity
  8
measurements
  6
ByBlock
 62
    0
370
   -2
100
AcDbLine
 10
490
 20
246.625
 11
490
 21
261.25
  0
LINE
  5
99
100
AcDbEntity
  8
measurements
  6
ByBlock
 62
    0
370
   -2
100
AcDbLine
 10
515
 20
222.625
 11
515
 21
261.25
  0
ENDBLK
  5
60
330
5E
100
AcDbEntity
  8
0
100
AcDbBlockEnd
  0
BLOCK
  5
62
330
61
100
AcDbEntity
  8
0
100
AcDbBlockBegin
  2
*D1
 70
    1
 10
0
 20
0
  3
*D1
  1

  0
LINE
  5
9A
100
AcDbEntity
  8
measurements
  6
ByBlock
 62
    0
370
   -2
100
AcDbLine
 10
0
 20
240
 11
30
 21
240
  0
SOLID
  5
9B
100
AcDbEntity
  8
measurements
  6
ByBlock
 62
    0
370
   -2
100
AcDbTrace
 10
0
 20
240
 30
0
 11
2.5
 21
240.4162846577728
 31
0
 12
2.5
 22
239.5837153422272
 32
0
 13
2.5
 23
239.5837153422272
 33
0
  0
SOLID
  5
9C
100
AcDbEntity
  8
measurements
  6
ByBlock
 62
    0
370
   -2
100
AcDbTrace
 10
30
 20
240
 30
0
 11
27.5
 21
239.5837153422272
 31
0
 12
27.5
 22
240.4162846577728
 32
0
 13
27.5
 23
240.4162846577728
 33
0
  0
MTEXT
  5
9D
100
AcDbEntity
  8
measurements
  6
CONTINUOUS
 62
    0
370
   -2
100
AcDbMText
 10
15
 20
243.125
 30
0
 40
5
 41
6.111111111111422
 71
    5
 72
    1
  1
30
  7
standard
210
0
220
0
230
1
 50
0
 73
    2
 44
1
  0
LINE
  5
9E
100
AcDbEntity
  8
measurements
  6
ByBlock
 62
    0
370
   -2
100
AcDbLine
 10
3.827021247335479e-17
 20
222.625
 11
7.654042494670958e-17
 21
241.25
  0
LINE
  5
9F
100
AcDbEntity
  8
measurements
  6
ByBlock
 62
    0
370
   -2
100
AcDbLine
 10
30
 20
222.625
 11
30
 21
241.25
  0
ENDBLK
  5
63
330
61
100
AcDbEntity
  8
0
100
AcDbBlockEnd
  0
BLOCK
  5
65
330
64
100
AcDbEntity
  8
0
100
AcDbBlockBegin
  2
*D4
 70
    1
 10
0
 20
0
  3
*D4
  1

  0
LINE
  5
A0
100
AcDbEntity
  8
measurements
  6
ByBlock
 62
    0
370
   -2
100
AcDbLine
 10
-19.99999999999999
 20
212
 11
-20
 21
10.00000000000001
  0
SOLID
  5
A1
100
AcDbEntity
  8
measurements
  6
ByBlock
 62
    0
370
   -2
100
AcDbTrace
 10
-19.99999999999999
 20
212
 30
0
 11
-19.58371534222714
 21
209.5
 31
0
 12
-20.41628465777283
 22
209.5
 32
0
 13
-20.41628465777283
 23
209.5
 33
0
  0
SOLID
  5
A2
100
AcDbEntity
  8
measurements
  6
ByBlock
 62
    0
370
   -2
100
AcDbTrace
 10
-20
 20
10.00000000000001
 30
0
 11
-20.41628465777284
 21
12.50000000000001
 31
0
 12
-19.58371534222716
 22
12.50000000000001
 32
0
 13
-19.58371534222716
 23
12.50000000000001
 33
0
  0
MTEXT
  5
A3
100
AcDbEntity
  8
measurements
  6
CONTINUOUS
 62
    0
370
   -2
100
AcDbMText
 10
-23.12499999999999
 20
111
 30
0
 40
5
 41
10
 71
    5
 72
    1
  1
202
  7
standard
210
0
220
0
230
1
 50
90
 73
    2
 44
1
  0
LINE
  5
A4
100
AcDbEntity
  8
measurements
  6
ByBlock
 62
    0
370
   -2
100
AcDbLine
 10
-0.625
 20
212
 11
-21.24999999999999
 21
212
  0
LINE
  5
A5
100
AcDbEntity
  8
measurements
  6
ByBlock
 62
    0
370
   -2
100
AcDbLine
 10
44.375
 20
10
 11
-21.25
 21
10.00000000000001
  0
ENDBLK
  5
66
330
64
100
AcDbEntity
  8
0
100
AcDbBlockEnd
  0
BLOCK
  5
68
330
67
100
AcDbEntity
  8
0
100
AcDbBlockBegin
  2
*D7
 70
    1
 10
0
 20
0
  3
*D7
  1

  0
LINE
  5
A6
100
AcDbEntity
  8
measurements
  6
ByBlock
 62
    0
370
   -2
100
AcDbLine
 10
30
 20
280
 11
426
 21
280
  0
SOLID
  5
A7
100
AcDbEntity
  8
measurements
  6
ByBlock
 62
    0
370
   -2
100
AcDbTrace
 10
30
 20
280
 30
0
 11
32.5
 21
280.4162846577728
 31
0
 12
32.5
 22
279.5837153422272
 32
0
 13
32.5
 23
279.5837153422272
 33
0
  0
SOLID
  5
A8
100
AcDbEntity
  8
measurements
  6
ByBlock
 62
    0
370
   -2
100
AcDbTrace
 10
426
 20
280
 30
0
 11
423.5
 21
279.5837153422272
 31
0
 12
423.5
 22
280.4162846577728
 32
0
 13
423.5
 23
280.4162846577728
 33
0
  0
MTEXT
  5
A9
100
AcDbEntity
  8
measurements
  6
CONTINUOUS
 62
    0
370
   -2
100
AcDbMText
 10
228
 20
283.125
 30
0
 40
5
 41
10.00000000000062
 71
    5
 72
    1
  1
396
  7
standard
210
0
220
0
230
1
 50
0
 73
    2
 44
1
  0
LINE
  5
AA
100
AcDbEntity
  8
measurements
  6
ByBlock
 62
    0
370
   -2
100
AcDbLine
 10
30
 20
222.625
 11
30
 21
281.25
  0
LINE
  5
AB
100
AcDbEntity
  8
measurements
  6
ByBlock
 62
    0
370
   -2
100
AcDbLine
 10
426
 20
222.625
 11
426
 21
281.25
  0
ENDBLK
  5
69
330
67
100
AcDbEntity
  8
0
100
AcDbBlockEnd
  0
BLOCK
  5
6B
330
6A
100
AcDbEntity
  8
0
100
AcDbBlockBegin
  2
*D11
 70
    1
 10
0
 20
0
  3
*D11
  1

  0
LINE
  5
AC
100
AcDbEntity
  8
measurements
  6
ByBlock
 62
    0
370
   -2
100
AcDbLine
 10
411
 20
240
 11
426
 21
240
  0
SOLID
  5
AD
100
AcDbEntity
  8
measurements
  6
ByBlock
 62
    0
370
   -2
100
AcDbTrace
 10
411
 20
240
 30
0
 11
413.5
 21
240.4162846577728
 31
0
 12
413.5
 22
239.5837153422272
 32
0
 13
413.5
 23
239.5837153422272
 33
0
  0
SOLID
  5
AE
100
AcDbEntity
  8
measurements
  6
ByBlock
 62
    0
370
   -2
100
AcDbTrace
 10
426
 20
240
 30
0
 11
423.5
 21
239.5837153422272
 31
0
 12
423.5
 22
240.4162846577728
 32
0
 13
423.5
 23
240.4162846577728
 33
0
  0
MTEXT
  5
AF
100
AcDbEntity
  8
measurements
  6
CONTINUOUS
 62
    0
370
   -2
100
AcDbMText
 10
418.5
 20
243.125
 30
0
 40
5
 41
5.000000000000311
 71
    5
 72
    1
  1
15
  7
standard
210
0
220
0
230
1
 50
0
 73
    2
 44
1
  0
LINE
  5
B0
100
AcDbEntity
  8
measurements
  6
ByBlock
 62
    0
370
   -2
100
AcDbLine
 10
411
 20
212.625
 11
411
 21
241.25
  0
LINE
  5
B1
100
AcDbEntity
  8
measurements
  6
ByBlock
 62
    0
370
   -2
100
AcDbLine
 10
426
 20
222.625
 11
426
 21
241.25
  0
ENDBLK
  5
6C
330
6A
100
AcDbEntity
  8
0
100
AcDbBlockEnd
  0
BLOCK
  5
6E
330
6D
100
AcDbEntity
  8
0
100
AcDbBlockBegin
  2
*D12
 70
    1
 10
0
 20
0
  3
*D12
  1

  0
LINE
  5
B2
100
AcDbEntity
  8
measurements
  6
ByBlock
 62
    0
370
   -2
100
AcDbLine
 10
480
 20
260
 11
490
 21
260
  0
SOLID
  5
B3
100
AcDbEntity
  8
measurements
  6
ByBlock
 62
    0
370
   -2
100
AcDbTrace
 10
480
 20
260
 30
0
 11
482.5
 21
260.4162846577728
 31
0
 12
482.5
 22
259.5837153422272
 32
0
 13
482.5
 23
259.5837153422272
 33
0
  0
SOLID
  5
B4
100
AcDbEntity
  8
measurements
  6
ByBlock
 62
    0
370
   -2
100
AcDbTrace
 10
490
 20
260
 30
0
 11
487.5
 21
259.5837153422272
 31
0
 12
487.5
 22
260.4162846577728
 32
0
 13
487.5
 23
260.4162846577728
 33
0
  0
MTEXT
  5
B5
100
AcDbEntity
  8
measurements
  6
CONTINUOUS
 62
    0
370
   -2
100
AcDbMText
 10
485
 20
263.125
 30
0
 40
5
 41
5
 71
    5
 72
    1
  1
10
  7
standard
210
0
220
0
230
1
 50
0
 73
    2
 44
1
  0
LINE
  5
B6
100
AcDbEntity
  8
measurements
  6
ByBlock
 62
    0
370
   -2
100
AcDbLine
 10
480
 20
246.625
 11
480
 21
261.25
  0
LINE
  5
B7
100
AcDbEntity
  8
measurements
  6
ByBlock
 62
    0
370
   -2
100
AcDbLine
 10
490
 20
246.625
 11
490
 21
261.25
  0
ENDBLK
  5
6F
330
6D
100
AcDbEntity
  8
0
100
AcDbBlockEnd
  0
BLOCK
  5
71
330
70
100
AcDbEntity
  8
0
100
AcDbBlockBegin
  2
*D8
 70
    1
 10
0
 20
0
  3
*D8
  1

  0
LINE
  5
B8
100
AcDbEntity
  8
measurements
  6
ByBlock
 62
    0
370
   -2
100
AcDbLine
 10
45
 20
240
 11
55
 21
240
  0
SOLID
  5
B9
100
AcDbEntity
  8
measurements
  6
ByBlock
 62
    0
370
   -2
100
AcDbTrace
 10
45
 20
240
 30
0
 11
47.5
 21
240.4162846577728
 31
0
 12
47.5
 22
239.5837153422272
 32
0
 13
47.5
 23
239.5837153422272
 33
0
  0
SOLID
  5
BA
100
AcDbEntity
  8
measurements
  6
ByBlock
 62
    0
370
   -2
100
AcDbTrace
 10
55
 20
240
 30
0
 11
52.5
 21
239.5837153422272
 31
0
 12
52.5
 22
240.4162846577728
 32
0
 13
52.5
 23
240.4162846577728
 33
0
  0
MTEXT
  5
BB
100
AcDbEntity
  8
measurements
  6
CONTINUOUS
 62
    0
370
   -2
100
AcDbMText
 10
50
 20
243.125
 30
0
 40
5
 41
5
 71
    5
 72
    1
  1
10
  7
standard
210
0
220
0
230
1
 50
0
 73
    2
 44
1
  0
LINE
  5
BC
100
AcDbEntity
  8
measurements
  6
ByBlock
 62
    0
370
   -2
100
AcDbLine
 10
45
 20
212.625
 11
45
 21
241.25
  0
LINE
  5
BD
100
AcDbEntity
  8
measurements
  6
ByBlock
 62
    0
370
   -2
100
AcDbLine
 10
55
 20
212.625
 11
55
 21
241.25
  0
ENDBLK
  5
72
330
70
100
AcDbEntity
  8
0
100
AcDbBlockEnd
  0
BLOCK
  5
74
330
73
100
AcDbEntity
  8
0
100
AcDbBlockBegin
  2
*D6
 70
    1
 10
0
 20
0
  3
*D6
  1

  0
LINE
  5
BE
100
AcDbEntity
  8
measurements
  6
ByBlock
 62
    0
370
   -2
100
AcDbLine
 10
45
 20
260
 11
411
 21
260
  0
SOLID
  5
BF
100
AcDbEntity
  8
measurements
  6
ByBlock
 62
    0
370
   -2
100
AcDbTrace
 10
45
 20
260
 30
0
 11
47.5
 21
260.4162846577728
 31
0
 12
47.5
 22
259.5837153422272
 32
0
 13
47.5
 23
259.5837153422272
 33
0
  0
SOLID
  5
C0
100
AcDbEntity
  8
measurements
  6
ByBlock
 62
    0
370
   -2
100
AcDbTrace
 10
411
 20
260
 30
0
 11
408.5
 21
259.5837153422272
 31
0
 12
408.5
 22
260.4162846577728
 32
0
 13
408.5
 23
260.4162846577728
 33
0
  0
MTEXT
  5
C1
100
AcDbEntity
  8
measurements
  6
CONTINUOUS
 62
    0
370
   -2
100
AcDbMText
 10
228
 20
263.125
 30
0
 40
5
 41
10.00000000000093
 71
    5
 72
    1
  1
366
  7
standard
210
0
220
0
230
1
 50
0
 73
    2
 44
1
  0
LINE
  5
C2
100
AcDbEntity
  8
measurements
  6
ByBlock
 62
    0
370
   -2
100
AcDbLine
 10
45
 20
212.625
 11
45
 21
261.25
  0
LINE
  5
C3
100
AcDbEntity
  8
measurements
  6
ByBlock
 62
    0
370
   -2
100
AcDbLine
 10
411
 20
212.625
 11
411
 21
261.25
  0
ENDBLK
  5
75
330
73
100
AcDbEntity
  8
0
100
AcDbBlockEnd
  0
BLOCK
  5
77
330
76
100
AcDbEntity
  8
0
100
AcDbBlockBegin
  2
*D5
 70
    1
 10
0
 20
0
  3
*D5
  1

  0
LINE
  5
C4
100
AcDbEntity
  8
measurements
  6
ByBlock
 62
    0
370
   -2
100
AcDbLine
 10
-20
 20
10.00000000000001
 11
-20
 21
1.4210854715202e-15
  0
SOLID
  5
C5
100
AcDbEntity
  8
measurements
  6
ByBlock
 62
    0
370
   -2
100
AcDbTrace
 10
-20
 20
10.00000000000001
 30
0
 11
-19.58371534222716
 21
7.500000000000005
 31
0
 12
-20.41628465777284
 22
7.500000000000005
 32
0
 13
-20.41628465777284
 23
7.500000000000005
 33
0
  0
SOLID
  5
C6
100
AcDbEntity
  8
measurements
  6
ByBlock
 62
    0
370
   -2
100
AcDbTrace
 10
-20
 20
1.4210854715202e-15
 30
0
 11
-20.41628465777284
 21
2.500000000000001
 31
0
 12
-19.58371534222716
 22
2.500000000000001
 32
0
 13
-19.58371534222716
 23
2.500000000000001
 33
0
  0
MTEXT
  5
C7
100
AcDbEntity
  8
measurements
  6
CONTINUOUS
 62
    0
370
   -2
100
AcDbMText
 10
-23.125
 20
5.000000000000004
 30
0
 40
5
 41
5
 71
    5
 72
    1
  1
10
  7
standard
210
0
220
0
230
1
 50
90
 73
    2
 44
1
  0
LINE
  5
C8
100
AcDbEntity
  8
measurements
  6
ByBlock
 62
    0
370
   -2
100
AcDbLine
 10
44.375
 20
10
 11
-21.25
 21
10.00000000000001
  0
LINE
  5
C9
100
AcDbEntity
  8
measurements
  6
ByBlock
 62
    0
370
   -2
100
AcDbLine
 10
-0.625
 20
7.654042494670958e-17
 11
-21.25
 21
1.57416632141362e-15
  0
ENDBLK
  5
78
330
76
100
AcDbEntity
  8
0
100
AcDbBlockEnd
  0
BLOCK
  5
7A
330
79
100
AcDbEntity
  8
0
100
AcDbBlockBegin
  2
*D3
 70
    1
 10
0
 20
0
  3
*D3
  1

  0
LINE
  5
CA
100
AcDbEntity
  8
measurements
  6
ByBlock
 62
    0
370
   -2
100
AcDbLine
 10
-20
 20
222
 11
-20
 21
212
  0
SOLID
  5
CB
100
AcDbEntity
  8
measurements
  6
ByBlock
 62
    0
370
   -2
100
AcDbTrace
 10
-20
 20
222
 30
0
 11
-19.58371534222716
 21
219.5
 31
0
 12
-20.41628465777284
 22
219.5
 32
0
 13
-20.41628465777284
 23
219.5
 33
0
  0
SOLID
  5
CC
100
AcDbEntity
  8
measurements
  6
ByBlock
 62
    0
370
   -2
100
AcDbTrace
 10
-20
 20
212
 30
0
 11
-20.41628465777284
 21
214.5
 31
0
 12
-19.58371534222716
 22
214.5
 32
0
 13
-19.58371534222716
 23
214.5
 33
0
  0
MTEXT
  5
CD
100
AcDbEntity
  8
measurements
  6
CONTINUOUS
 62
    0
370
   -2
100
AcDbMText
 10
-23.125
 20
217
 30
0
 40
5
 41
5
 71
    5
 72
    1
  1
10
  7
standard
210
0
220
0
230
1
 50
90
 73
    2
 44
1
  0
LINE
  5
CE
100
AcDbEntity
  8
measurements
  6
ByBlock
 62
    0
370
   -2
100
AcDbLine
 10
-0.625
 20
222
 11
-21.25
 21
222
  0
LINE
  5
CF
100
AcDbEntity
  8
measurements
  6
ByBlock
 62
    0
370
   -2
100
AcDbLine
 10
-0.625
 20
212
 11
-21.25
 21
212
  0
ENDBLK
  5
7B
330
79
100
AcDbEntity
  8
0
100
AcDbBlockEnd
  0
ENDSEC
  0
SECTION
  2
ENTITIES
  0
LINE
  5
D0
100
AcDbEntity
  8
0
  6
ByLayer
 62
  256
370
   -1
100
AcDbLine
 10
456
 20
0
 11
456
 21
222
  0
LINE
  5
D1
100
AcDbEntity
  8
0
  6
ByLayer
 62
  256
370
   -1
100
AcDbLine
 10
0
 20
222
 11
0
 21
0
  0
LINE
  5
D2
100
AcDbEntity
  8
0
  6
ByLayer
 62
  256
370
   -1
100
AcDbLine
 10
0
 20
0
 11
45
 21
0
  0
LINE
  5
D3
100
AcDbEntity
  8
0
  6
ByLayer
 62
  256
370
   -1
100
AcDbLine
 10
45
 20
0
 11
45
 21
212
  0
LINE
  5
D4
100
AcDbEntity
  8
0
  6
ByLayer
 62
  256
370
   -1
100
AcDbLine
 10
45
 20
212
 11
0
 21
212
  0
LINE
  5
D5
100
AcDbEntity
  8
0
  6
ByLayer
 62
  256
370
   -1
100
AcDbLine
 10
0
 20
212
 11
0
 21
0
  0
LINE
  5
D6
100
AcDbEntity
  8
0
  6
ByLayer
 62
  256
370
   -1
100
AcDbLine
 10
456
 20
0
 11
411
 21
0
  0
LINE
  5
D7
100
AcDbEntity
  8
0
  6
ByLayer
 62
  256
370
   -1
100
AcDbLine
 10
411
 20
0
 11
411
 21
212
  0
LINE
  5
D8
100
AcDbEntity
  8
0
  6
ByLayer
 62
  256
370
   -1
100
AcDbLine
 10
411
 20
212
 11
456
 21
212
  0
LINE
  5
D9
100
AcDbEntity
  8
0
  6
ByLayer
 62
  256
370
   -1
100
AcDbLine
 10
456
 20
212
 11
456
 21
0
  0
LINE
  5
DA
100
AcDbEntity
  8
0
  6
ByLayer
 62
  256
370
   -1
100
AcDbLine
 10
0
 20
222
 11
30
 21
222
  0
LINE
  5
DB
100
AcDbEntity
  8
0
  6
ByLayer
 62
  256
370
   -1
100
AcDbLine
 10
30
 20
222
 11
30
 21
212
  0
LINE
  5
DC
100
AcDbEntity
  8
0
  6
ByLayer
 62
  256
370
   -1
100
AcDbLine
 10
30
 20
212
 11
0
 21
212
  0
LINE
  5
DD
100
AcDbEntity
  8
0
  6
ByLayer
 62
  256
370
   -1
100
AcDbLine
 10
0
 20
212
 11
0
 21
222
  0
LINE
  5
DE
100
AcDbEntity
  8
0
  6
ByLayer
 62
  256
370
   -1
100
AcDbLine
 10
456
 20
222
 11
426
 21
222
  0
LINE
  5
DF
100
AcDbEntity
  8
0
  6
ByLayer
 62
  256
370
   -1
100
AcDbLine
 10
426
 20
222
 11
426
 21
212
  0
LINE
  5
E0
100
AcDbEntity
  8
0
  6
ByLayer
 62
  256
370
   -1
100
AcDbLine
 10
426
 20
212
 11
456
 21
212
  0
LINE
  5
E1
100
AcDbEntity
  8
0
  6
ByLayer
 62
  256
370
   -1
100
AcDbLine
 10
456
 20
212
 11
456
 21
222
  0
LINE
  5
E2
100
AcDbEntity
  8
guide lines
  6
ByLayer
 62
  256
370
   -1
100
AcDbLine
 10
45
 20
212
 11
55
 21
212
  0
LINE
  5
E3
100
AcDbEntity
  8
guide lines
  6
ByLayer
 62
  256
370
   -1
100
AcDbLine
 10
55
 20
212
 11
55
 21
10
  0
LINE
  5
E4
100
AcDbEntity
  8
guide lines
  6
ByLayer
 62
  256
370
   -1
100
AcDbLine
 10
55
 20
10
 11
45
 21
10
  0
LINE
  5
E5
100
AcDbEntity
  8
guide lines
  6
ByLayer
 62
  256
370
   -1
100
AcDbLine
 10
45
 20
10
 11
45
 21
212
  0
LINE
  5
E6
100
AcDbEntity
  8
guide lines
  6
ByLayer
 62
  256
370
   -1
100
AcDbLine
 10
411
 20
212
 11
401
 21
212
  0
LINE
  5
E7
100
AcDbEntity
  8
guide lines
  6
ByLayer
 62
  256
370
   -1
100
AcDbLine
 10
401
 20
212
 11
401
 21
10
  0
LINE
  5
E8
100
AcDbEntity
  8
guide lines
  6
ByLayer
 62
  256
370
   -1
100
AcDbLine
 10
401
 20
10
 11
411
 21
10
  0
LINE
  5
E9
100
AcDbEntity
  8
guide lines
  6
ByLayer
 62
  256
370
   -1
100
AcDbLine
 10
411
 20
10
 11
411
 21
212
  0
LINE
  5
EA
100
AcDbEntity
  8
guide lines
  6
ByLayer
 62
  256
370
   -1
100
AcDbLine
 10
45
 20
10
 11
411
 21
10
  0
LINE
  5
EB
100
AcDbEntity
  8
guide lines
  6
ByLayer
 62
  256
370
   -1
100
AcDbLine
 10
411
 20
10
 11
411
 21
0
  0
LINE
  5
EC
100
AcDbEntity
  8
guide lines
  6
ByLayer
 62
  256
370
   -1
100
AcDbLine
 10
411
 20
0
 11
45
 21
0
  0
LINE
  5
ED
100
AcDbEntity
  8
guide lines
  6
ByLayer
 62
  256
370
   -1
100
AcDbLine
 10
45
 20
0
 11
45
 21
10
  0
LINE
  5
EE
100
AcDbEntity
  8
guide lines
  6
ByLayer
 62
  256
370
   -1
100
AcDbLine
 10
30
 20
222
 11
426
 21
222
  0
LINE
  5
EF
100
AcDbEntity
  8
guide lines
  6
ByLayer
 62
  256
370
   -1
100
AcDbLine
 10
426
 20
222
 11
426
 21
212
  0
LINE
  5
F0
100
AcDbEntity
  8
guide lines
  6
ByLayer
 62
  256
370
   -1
100
AcDbLine
 10
426
 20
212
 11
30
 21
212
  0
LINE
  5
F1
100
AcDbEntity
  8
guide lines
  6
ByLayer
 62
  256
370
   -1
100
AcDbLine
 10
30
 20
212
 11
30
 21
222
  0
LINE
  5
F2
100
AcDbEntity
  8
center lines
  6
ByLayer
 62
  256
370
   -1
100
AcDbLine
 10
228
 20
-10
 11
228
 21
232
  0
LINE
  5
F3
100
AcDbEntity
  8
center lines
  6
ByLayer
 62
  256
370
   -1
100
AcDbLine
 10
-10
 20
111
 11
466
 21
111
  0
LINE
  5
F4
100
AcDbEntity
  8
fasteners
  6
ByLayer
 62
  256
370
   -1
100
AcDbLine
 10
76
 20
94
 11
76
 21
127
  0
LINE
  5
F5
100
AcDbEntity
  8
fasteners
  6
ByLayer
 62
  256
370
   -1
100
AcDbLine
 10
76
 20
127
 11
58
 21
127
  0
LINE
  5
F6
100
AcDbEntity
  8
fasteners
  6
ByLayer
 62
  256
370
   -1
100
AcDbLine
 10
58
 20
127
 11
58
 21
94
  0
LINE
  5
F7
100
AcDbEntity
  8
fasteners
  6
ByLayer
 62
  256
370
   -1
100
AcDbLine
 10
58
 20
94
 11
76
 21
94
  0
LINE
  5
F8
100
AcDbEntity
  8
fasteners
  6
ByLayer
 62
  256
370
   -1
100
AcDbLine
 10
61
 20
97
 11
61
 21
101
  0
LINE
  5
F9
100
AcDbEntity
  8
fasteners
  6
ByLayer
 62
  256
370
   -1
100
AcDbLine
 10
61
 20
101
 11
73
 21
101
  0
LINE
  5
FA
100
AcDbEntity
  8
fasteners
  6
ByLayer
 62
  256
370
   -1
100
AcDbLine
 10
73
 20
101
 11
73
 21
97
  0
LINE
  5
FB
100
AcDbEntity
  8
fasteners
  6
ByLayer
 62
  256
370
   -1
100
AcDbLine
 10
73
 20
97
 11
61
 21
97
  0
LINE
  5
FC
100
AcDbEntity
  8
fasteners
  6
ByLayer
 62
  256
370
   -1
100
AcDbLine
 10
61
 20
124
 11
61
 21
120
  0
LINE
  5
FD
100
AcDbEntity
  8
fasteners
  6
ByLayer
 62
  256
370
   -1
100
AcDbLine
 10
61
 20
120
 11
73
 21
120
  0
LINE
  5
FE
100
AcDbEntity
  8
fasteners
  6
ByLayer
 62
  256
370
   -1
100
AcDbLine
 10
73
 20
120
 11
73
 21
124
  0
LINE
  5
FF
100
AcDbEntity
  8
fasteners
  6
ByLayer
 62
  256
370
   -1
100
AcDbLine
 10
73
 20
124
 11
61
 21
124
  0
LINE
  5
100
100
AcDbEntity
  8
fasteners
  6
ByLayer
 62
  256
370
   -1
100
AcDbLine
 10
61
 20
106
 11
61
 21
115
  0
LINE
  5
101
100
AcDbEntity
  8
fasteners
  6
ByLayer
 62
  256
370
   -1
100
AcDbLine
 10
61
 20
115
 11
53
 21
115
  0
LINE
  5
102
100
AcDbEntity
  8
fasteners
  6
ByLayer
 62
  256
370
   -1
100
AcDbLine
 10
53
 20
115
 11
53
 21
106
  0
LINE
  5
103
100
AcDbEntity
  8
fasteners
  6
ByLayer
 62
  256
370
   -1
100
AcDbLine
 10
53
 20
106
 11
61
 21
106
  0
LINE
  5
104
100
AcDbEntity
  8
fasteners
  6
ByLayer
 62
  256
370
   -1
100
AcDbLine
 10
74
 20
104
 11
74
 21
106
  0
LINE
  5
105
100
AcDbEntity
  8
fasteners
  6
ByLayer
 62
  256
370
   -1
100
AcDbLine
 10
74
 20
106
 11
56
 21
106
  0
LINE
  5
106
100
AcDbEntity
  8
fasteners
  6
ByLayer
 62
  256
370
   -1
100
AcDbLine
 10
56
 20
106
 11
56
 21
104
  0
LINE
  5
107
100
AcDbEntity
  8
fasteners
  6
ByLayer
 62
  256
370
   -1
100
AcDbLine
 10
56
 20
104
 11
74
 21
104
  0
LINE
  5
108
100
AcDbEntity
  8
fasteners
  6
ByLayer
 62
  256
370
   -1
100
AcDbLine
 10
56
 20
115
 11
56
 21
117
  0
LINE
  5
109
100
AcDbEntity
  8
fasteners
  6
ByLayer
 62
  256
370
   -1
100
AcDbLine
 10
56
 20
117
 11
74
 21
117
  0
LINE
  5
10A
100
AcDbEntity
  8
fasteners
  6
ByLayer
 62
  256
370
   -1
100
AcDbLine
 10
74
 20
117
 11
74
 21
115
  0
LINE
  5
10B
100
AcDbEntity
  8
fasteners
  6
ByLayer
 62
  256
370
   -1
100
AcDbLine
 10
74
 20
115
 11
56
 21
115
  0
LINE
  5
10C
100
AcDbEntity
  8
fasteners
  6
ByLayer
 62
  256
370
   -1
100
AcDbLine
 10
74
 20
115
 11
74
 21
106
  0
LINE
  5
10D
100
AcDbEntity
  8
fasteners
  6
ByLayer
 62
  256
370
   -1
100
AcDbLine
 10
74
 20
106
 11
65
 21
106
  0
LINE
  5
10E
100
AcDbEntity
  8
fasteners
  6
ByLayer
 62
  256
370
   -1
100
AcDbLine
 10
65
 20
106
 11
65
 21
115
  0
LINE
  5
10F
100
AcDbEntity
  8
fasteners
  6
ByLayer
 62
  256
370
   -1
100
AcDbLine
 10
65
 20
115
 11
74
 21
115
  0
LINE
  5
110
100
AcDbEntity
  8
fasteners
  6
ByLayer
 62
  256
370
   -1
100
AcDbLine
 10
380
 20
128
 11
380
 21
95
  0
LINE
  5
111
100
AcDbEntity
  8
fasteners
  6
ByLayer
 62
  256
370
   -1
100
AcDbLine
 10
380
 20
95
 11
398
 21
95
  0
LINE
  5
112
100
AcDbEntity
  8
fasteners
  6
ByLayer
 62
  256
370
   -1
100
AcDbLine
 10
398
 20
95
 11
398
 21
128
  0
LINE
  5
113
100
AcDbEntity
  8
fasteners
  6
ByLayer
 62
  256
370
   -1
100
AcDbLine
 10
398
 20
128
 11
380
 21
128
  0
LINE
  5
114
100
AcDbEntity
  8
fasteners
  6
ByLayer
 62
  256
370
   -1
100
AcDbLine
 10
395
 20
125
 11
395
 21
121
  0
LINE
  5
115
100
AcDbEntity
  8
fasteners
  6
ByLayer
 62
  256
370
   -1
100
AcDbLine
 10
395
 20
121
 11
383
 21
121
  0
LINE
  5
116
100
AcDbEntity
  8
fasteners
  6
ByLayer
 62
  256
370
   -1
100
AcDbLine
 10
383
 20
121
 11
383
 21
125
  0
LINE
  5
117
100
AcDbEntity
  8
fasteners
  6
ByLayer
 62
  256
370
   -1
100
AcDbLine
 10
383
 20
125
 11
395
 21
125
  0
LINE
  5
118
100
AcDbEntity
  8
fasteners
  6
ByLayer
 62
  256
370
   -1
100
AcDbLine
 10
395
 20
98
 11
395
 21
102
  0
LINE
  5
119
100
AcDbEntity
  8
fasteners
  6
ByLayer
 62
  256
370
   -1
100
AcDbLine
 10
395
 20
102
 11
383
 21
102
  0
LINE
  5
11A
100
AcDbEntity
  8
fasteners
  6
ByLayer
 62
  256
370
   -1
100
AcDbLine
 10
383
 20
102
 11
383
 21
98
  0
LINE
  5
11B
100
AcDbEntity
  8
fasteners
  6
ByLayer
 62
  256
370
   -1
100
AcDbLine
 10
383
 20
98
 11
395
 21
98
  0
LINE
  5
11C
100
AcDbEntity
  8
fasteners
  6
ByLayer
 62
  256
370
   -1
100
AcDbLine
 10
395
 20
116
 11
395
 21
107
  0
LINE
  5
11D
100
AcDbEntity
  8
fasteners
  6
ByLayer
 62
  256
370
   -1
100
AcDbLine
 10
395
 20
107
 11
403
 21
107
  0
LINE
  5
11E
100
AcDbEntity
  8
fasteners
  6
ByLayer
 62
  256
370
   -1
100
AcDbLine
 10
403
 20
107
 11
403
 21
116
  0
LINE
  5
11F
100
AcDbEntity
  8
fasteners
  6
ByLayer
 62
  256
370
   -1
100
AcDbLine
 10
403
 20
116
 11
395
 21
116
  0
LINE
  5
120
100
AcDbEntity
  8
fasteners
  6
ByLayer
 62
  256
370
   -1
100
AcDbLine
 10
382
 20
118
 11
382
 21
116
  0
LINE
  5
121
100
AcDbEntity
  8
fasteners
  6
ByLayer
 62
  256
370
   -1
100
AcDbLine
 10
382
 20
116
 11
400
 21
116
  0
LINE
  5
122
100
AcDbEntity
  8
fasteners
  6
ByLayer
 62
  256
370
   -1
100
AcDbLine
 10
400
 20
116
 11
400
 21
118
  0
LINE
  5
123
100
AcDbEntity
  8
fasteners
  6
ByLayer
 62
  256
370
   -1
100
AcDbLine
 10
400
 20
118
 11
382
 21
118
  0
LINE
  5
124
100
AcDbEntity
  8
fasteners
  6
ByLayer
 62
  256
370
   -1
100
AcDbLine
 10
400
 20
107
 11
400
 21
105
  0
LINE
  5
125
100
AcDbEntity
  8
fasteners
  6
ByLayer
 62
  256
370
   -1
100
AcDbLine
 10
400
 20
105
 11
382
 21
105
  0
LINE
  5
126
100
AcDbEntity
  8
fasteners
  6
ByLayer
 62
  256
370
   -1
100
AcDbLine
 10
382
 20
105
 11
382
 21
107
  0
LINE
  5
127
100
AcDbEntity
  8
fasteners
  6
ByLayer
 62
  256
370
   -1
100
AcDbLine
 10
382
 20
107
 11
400
 21
107
  0
LINE
  5
128
100
AcDbEntity
  8
fasteners
  6
ByLayer
 62
  256
370
   -1
100
AcDbLine
 10
382
 20
107
 11
382
 21
116
  0
LINE
  5
129
100
AcDbEntity
  8
fasteners
  6
ByLayer
 62
  256
370
   -1
100
AcDbLine
 10
382
 20
116
 11
391
 21
116
  0
LINE
  5
12A
100
AcDbEntity
  8
fasteners
  6
ByLayer
 62
  256
370
   -1
100
AcDbLine
 10
391
 20
116
 11
391
 21
107
  0
LINE
  5
12B
100
AcDbEntity
  8
fasteners
  6
ByLayer
 62
  256
370
   -1
100
AcDbLine
 10
391
 20
107
 11
382
 21
107
  0
LINE
  5
12C
100
AcDbEntity
  8
fasteners
  6
ByLayer
 62
  256
370
   -1
100
AcDbLine
 10
245
 20
243
 11
212
 21
243
  0
LINE
  5
12D
100
AcDbEntity
  8
fasteners
  6
ByLayer
 62
  256
370
   -1
100
AcDbLine
 10
212
 20
243
 11
212
 21
225
  0
LINE
  5
12E
100
AcDbEntity
  8
fasteners
  6
ByLayer
 62
  256
370
   -1
100
AcDbLine
 10
212
 20
225
 11
245
 21
225
  0
LINE
  5
12F
100
AcDbEntity
  8
fasteners
  6
ByLayer
 62
  256
370
   -1
100
AcDbLine
 10
245
 20
225
 11
245
 21
243
  0
LINE
  5
130
100
AcDbEntity
  8
fasteners
  6
ByLayer
 62
  256
370
   -1
100
AcDbLine
 10
242
 20
228
 11
238
 21
228
  0
LINE
  5
131
100
AcDbEntity
  8
fasteners
  6
ByLayer
 62
  256
370
   -1
100
AcDbLine
 10
238
 20
228
 11
238
 21
240
  0
LINE
  5
132
100
AcDbEntity
  8
fasteners
  6
ByLayer
 62
  256
370
   -1
100
AcDbLine
 10
238
 20
240
 11
242
 21
240
  0
LINE
  5
133
100
AcDbEntity
  8
fasteners
  6
ByLayer
 62
  256
370
   -1
100
AcDbLine
 10
242
 20
240
 11
242
 21
228
  0
LINE
  5
134
100
AcDbEntity
  8
fasteners
  6
ByLayer
 62
  256
370
   -1
100
AcDbLine
 10
215
 20
228
 11
219
 21
228
  0
LINE
  5
135
100
AcDbEntity
  8
fasteners
  6
ByLayer
 62
  256
370
   -1
100
AcDbLine
 10
219
 20
228
 11
219
 21
240
  0
LINE
  5
136
100
AcDbEntity
  8
fasteners
  6
ByLayer
 62
  256
370
   -1
100
AcDbLine
 10
219
 20
240
 11
215
 21
240
  0
LINE
  5
137
100
AcDbEntity
  8
fasteners
  6
ByLayer
 62
  256
370
   -1
100
AcDbLine
 10
215
 20
240
 11
215
 21
228
  0
LINE
  5
138
100
AcDbEntity
  8
fasteners
  6
ByLayer
 62
  256
370
   -1
100
AcDbLine
 10
233
 20
228
 11
224
 21
228
  0
LINE
  5
139
100
AcDbEntity
  8
fasteners
  6
ByLayer
 62
  256
370
   -1
100
AcDbLine
 10
224
 20
228
 11
224
 21
220
  0
LINE
  5
13A
100
AcDbEntity
  8
fasteners
  6
ByLayer
 62
  256
370
   -1
100
AcDbLine
 10
224
 20
220
 11
233
 21
220
  0
LINE
  5
13B
100
AcDbEntity
  8
fasteners
  6
ByLayer
 62
  256
370
   -1
100
AcDbLine
 10
233
 20
220
 11
233
 21
228
  0
LINE
  5
13C
100
AcDbEntity
  8
fasteners
  6
ByLayer
 62
  256
370
   -1
100
AcDbLine
 10
235
 20
241
 11
233
 21
241
  0
LINE
  5
13D
100
AcDbEntity
  8
fasteners
  6
ByLayer
 62
  256
370
   -1
100
AcDbLine
 10
233
 20
241
 11
233
 21
223
  0
LINE
  5
13E
100
AcDbEntity
  8
fasteners
  6
ByLayer
 62
  256
370
   -1
100
AcDbLine
 10
233
 20
223
 11
235
 21
223
  0
LINE
  5
13F
100
AcDbEntity
  8
fasteners
  6
ByLayer
 62
  256
370
   -1
100
AcDbLine
 10
235
 20
223
 11
235
 21
241
  0
LINE
  5
140
100
AcDbEntity
  8
fasteners
  6
ByLayer
 62
  256
370
   -1
100
AcDbLine
 10
224
 20
223
 11
222
 21
223
  0
LINE
  5
141
100
AcDbEntity
  8
fasteners
  6
ByLayer
 62
  256
370
   -1
100
AcDbLine
 10
222
 20
223
 11
222
 21
241
  0
LINE
  5
142
100
AcDbEntity
  8
fasteners
  6
ByLayer
 62
  256
370
   -1
100
AcDbLine
 10
222
 20
241
 11
224
 21
241
  0
LINE
  5
143
100
AcDbEntity
  8
fasteners
  6
ByLayer
 62
  256
370
   -1
100
AcDbLine
 10
224
 20
241
 11
224
 21
223
  0
LINE
  5
144
100
AcDbEntity
  8
fasteners
  6
ByLayer
 62
  256
370
   -1
100
AcDbLine
 10
224
 20
241
 11
233
 21
241
  0
LINE
  5
145
100
AcDbEntity
  8
fasteners
  6
ByLayer
 62
  256
370
   -1
100
AcDbLine
 10
233
 20
241
 11
233
 21
232
  0
LINE
  5
146
100
AcDbEntity
  8
fasteners
  6
ByLayer
 62
  256
370
   -1
100
AcDbLine
 10
233
 20
232
 11
224
 21
232
  0
LINE
  5
147
100
AcDbEntity
  8
fasteners
  6
ByLayer
 62
  256
370
   -1
100
AcDbLine
 10
224
 20
232
 11
224
 21
241
  0
LINE
  5
148
100
AcDbEntity
  8
fasteners
  6
ByLayer
 62
  256
370
   -1
100
AcDbLine
 10
212
 20
-21
 11
245
 21
-21
  0
LINE
  5
149
100
AcDbEntity
  8
fasteners
  6
ByLayer
 62
  256
370
   -1
100
AcDbLine
 10
245
 20
-21
 11
245
 21
-3
  0
LINE
  5
14A
100
AcDbEntity
  8
fasteners
  6
ByLayer
 62
  256
370
   -1
100
AcDbLine
 10
245
 20
-3
 11
212
 21
-3
  0
LINE
  5
14B
100
AcDbEntity
  8
fasteners
  6
ByLayer
 62
  256
370
   -1
100
AcDbLine
 10
212
 20
-3
 11
212
 21
-21
  0
LINE
  5
14C
100
AcDbEntity
  8
fasteners
  6
ByLayer
 62
  256
370
   -1
100
AcDbLine
 10
215
 20
-6
 11
219
 21
-6
  0
LINE
  5
14D
100
AcDbEntity
  8
fasteners
  6
ByLayer
 62
  256
370
   -1
100
AcDbLine
 10
219
 20
-6
 11
219
 21
-18
  0
LINE
  5
14E
100
AcDbEntity
  8
fasteners
  6
ByLayer
 62
  256
370
   -1
100
AcDbLine
 10
219
 20
-18
 11
215
 21
-18
  0
LINE
  5
14F
100
AcDbEntity
  8
fasteners
  6
ByLayer
 62
  256
370
   -1
100
AcDbLine
 10
215
 20
-18
 11
215
 21
-6
  0
LINE
  5
150
100
AcDbEntity
  8
fasteners
  6
ByLayer
 62
  256
370
   -1
100
AcDbLine
 10
242
 20
-6
 11
238
 21
-6
  0
LINE
  5
151
100
AcDbEntity
  8
fasteners
  6
ByLayer
 62
  256
370
   -1
100
AcDbLine
 10
238
 20
-6
 11
238
 21
-18
  0
LINE
  5
152
100
AcDbEntity
  8
fasteners
  6
ByLayer
 62
  256
370
   -1
100
AcDbLine
 10
238
 20
-18
 11
242
 21
-18
  0
LINE
  5
153
100
AcDbEntity
  8
fasteners
  6
ByLayer
 62
  256
370
   -1
100
AcDbLine
 10
242
 20
-18
 11
242
 21
-6
  0
LINE
  5
154
100
AcDbEntity
  8
fasteners
  6
ByLayer
 62
  256
370
   -1
100
AcDbLine
 10
224
 20
-6
 11
233
 21
-6
  0
LINE
  5
155
100
AcDbEntity
  8
fasteners
  6
ByLayer
 62
  256
370
   -1
100
AcDbLine
 10
233
 20
-6
 11
233
 21
2
  0
LINE
  5
156
100
AcDbEntity
  8
fasteners
  6
ByLayer
 62
  256
370
   -1
100
AcDbLine
 10
233
 20
2
 11
224
 21
2
  0
LINE
  5
157
100
AcDbEntity
  8
fasteners
  6
ByLayer
 62
  256
370
   -1
100
AcDbLine
 10
224
 20
2
 11
224
 21
-6
  0
LINE
  5
158
100
AcDbEntity
  8
fasteners
  6
ByLayer
 62
  256
370
   -1
100
AcDbLine
 10
222
 20
-19
 11
224
 21
-19
  0
LINE
  5
159
100
AcDbEntity
  8
fasteners
  6
ByLayer
 62
  256
370
   -1
100
AcDbLine
 10
224
 20
-19
 11
224
 21
-1
  0
LINE
  5
15A
100
AcDbEntity
  8
fasteners
  6
ByLayer
 62
  256
370
   -1
100
AcDbLine
 10
224
 20
-1
 11
222
 21
-1
  0
LINE
  5
15B
100
AcDbEntity
  8
fasteners
  6
ByLayer
 62
  256
370
   -1
100
AcDbLine
 10
222
 20
-1
 11
222
 21
-19
  0
LINE
  5
15C
100
AcDbEntity
  8
fasteners
  6
ByLayer
 62
  256
370
   -1
100
AcDbLine
 10
233
 20
-1
 11
235
 21
-1
  0
LINE
  5
15D
100
AcDbEntity
  8
fasteners
  6
ByLayer
 62
  256
370
   -1
100
AcDbLine
 10
235
 20
-1
 11
235
 21
-19
  0
LINE
  5
15E
100
AcDbEntity
  8
fasteners
  6
ByLayer
 62
  256
370
   -1
100
AcDbLine
 10
235
 20
-19
 11
233
 21
-19
  0
LINE
  5
15F
100
AcDbEntity
  8
fasteners
  6
ByLayer
 62
  256
370
   -1
100
AcDbLine
 10
233
 20
-19
 11
233
 21
-1
  0
LINE
  5
160
100
AcDbEntity
  8
fasteners
  6
ByLayer
 62
  256
370
   -1
100
AcDbLine
 10
233
 20
-19
 11
224
 21
-19
  0
LINE
  5
161
100
AcDbEntity
  8
fasteners
  6
ByLayer
 62
  256
370
   -1
100
AcDbLine
 10
224
 20
-19
 11
224
 21
-10
  0
LINE
  5
162
100
AcDbEntity
  8
fasteners
  6
ByLayer
 62
  256
370
   -1
100
AcDbLine
 10
224
 20
-10
 11
233
 21
-10
  0
LINE
  5
163
100
AcDbEntity
  8
fasteners
  6
ByLayer
 62
  256
370
   -1
100
AcDbLine
 10
233
 20
-10
 11
233
 21
-19
  0
LINE
  5
164
100
AcDbEntity
  8
0
  6
ByLayer
 62
  256
370
   -1
100
AcDbLine
 10
200
 20
0
 11
209
 21
-24
  0
LINE
  5
165
100
AcDbEntity
  8
0
  6
ByLayer
 62
  256
370
   -1
100
AcDbLine
 10
209
 20
-24
 11
248
 21
-24
  0
LINE
  5
166
100
AcDbEntity
  8
0
  6
ByLayer
 62
  256
370
   -1
100
AcDbLine
 10
248
 20
-24
 11
256
 21
0
  0
LINE
  5
167
100
AcDbEntity
  8
0
  6
ByLayer
 62
  256
370
   -1
100
AcDbLine
 10
45
 20
0
 11
200
 21
0
  0
LINE
  5
168
100
AcDbEntity
  8
0
  6
ByLayer
 62
  256
370
   -1
100
AcDbLine
 10
256
 20
0
 11
410
 21
0
  0
LINE
  5
169
100
AcDbEntity
  8
0
  6
ByLayer
 62
  256
370
   -1
100
AcDbLine
 10
200
 20
222
 11
209
 21
246
  0
LINE
  5
16A
100
AcDbEntity
  8
0
  6
ByLayer
 62
  256
370
   -1
100
AcDbLine
 10
209
 20
246
 11
248
 21
246
  0
LINE
  5
16B
100
AcDbEntity
  8
0
  6
ByLayer
 62
  256
370
   -1
100
AcDbLine
 10
248
 20
246
 11
256
 21
222
  0
LINE
  5
16C
100
AcDbEntity
  8
0
  6
ByLayer
 62
  256
370
   -1
100
AcDbLine
 10
30
 20
222
 11
200
 21
222
  0
LINE
  5
16D
100
AcDbEntity
  8
0
  6
ByLayer
 62
  256
370
   -1
100
AcDbLine
 10
256
 20
222
 11
426
 21
222
  0
LINE
  5
16E
100
AcDbEntity
  8
0
  6
ByLayer
 62
  256
370
   -1
100
AcDbLine
 10
150
 20
10
 11
306
 21
10
  0
LINE
  5
16F
100
AcDbEntity
  8
0
  6
ByLayer
 62
  256
370
   -1
100
AcDbLine
 10
306
 20
10
 11
306
 21
26
  0
LINE
  5
170
100
AcDbEntity
  8
0
  6
ByLayer
 62
  256
370
   -1
100
AcDbLine
 10
306
 20
26
 11
150
 21
26
  0
LINE
  5
171
100
AcDbEntity
  8
0
  6
ByLayer
 62
  256
370
   -1
100
AcDbLine
 10
150
 20
26
 11
150
 21
10
  0
DIMENSION
  5
172
100
AcDbEntity
  8
measurements
  6
ByLayer
 62
  256
370
   -1
100
AcDbDimension
  2
*D1
 10
30
 20
240
 30
0
 11
15
 21
243.125
 31
0
 70
   32
 71
    5
  3
Standard
 53
0
210
0
220
0
230
1
100
AcDbAlignedDimension
 13
0
 23
222
 33
0
 14
30
 24
222
 34
0
100
AcDbRotatedDimension
  0
DIMENSION
  5
173
100
AcDbEntity
  8
measurements
  6
ByLayer
 62
  256
370
   -1
100
AcDbDimension
  2
*D2
 10
456
 20
240
 30
0
 11
441
 21
243.125
 31
0
 70
   32
 71
    5
  3
Standard
 53
0
210
0
220
0
230
1
100
AcDbAlignedDimension
 13
426
 23
222
 33
0
 14
456
 24
222
 34
0
100
AcDbRotatedDimension
  0
DIMENSION
  5
174
100
AcDbEntity
  8
measurements
  6
ByLayer
 62
  256
370
   -1
100
AcDbDimension
  2
*D3
 10
-20
 20
212
 30
0
 11
-23.125
 21
217
 31
0
 70
   32
 71
    5
  3
Standard
 53
0
210
0
220
0
230
1
100
AcDbAlignedDimension
 13
0
 23
222
 33
0
 14
0
 24
212
 34
0
 50
90
100
AcDbRotatedDimension
  0
DIMENSION
  5
175
100
AcDbEntity
  8
measurements
  6
ByLayer
 62
  256
370
   -1
100
AcDbDimension
  2
*D4
 10
-20
 20
10
 30
0
 11
-23.12499999999999
 21
111
 31
0
 70
   32
 71
    5
  3
Standard
 53
0
210
0
220
0
230
1
100
AcDbAlignedDimension
 13
0
 23
212
 33
0
 14
45
 24
10
 34
0
 50
90
100
AcDbRotatedDimension
  0
DIMENSION
  5
176
100
AcDbEntity
  8
measurements
  6
ByLayer
 62
  256
370
   -1
100
AcDbDimension
  2
*D5
 10
-20
 20
2.44929359829e-15
 30
0
 11
-23.125
 21
5.000000000000004
 31
0
 70
   32
 71
    5
  3
Standard
 53
0
210
0
220
0
230
1
100
AcDbAlignedDimension
 13
45
 23
10
 33
0
 14
0
 24
0
 34
0
 50
90
100
AcDbRotatedDimension
  0
DIMENSION
  5
177
100
AcDbEntity
  8
measurements
  6
ByLayer
 62
  256
370
   -1
100
AcDbDimension
  2
*D6
 10
411
 20
260
 30
0
 11
228
 21
263.125
 31
0
 70
   32
 71
    5
  3
Standard
 53
0
210
0
220
0
230
1
100
AcDbAlignedDimension
 13
45
 23
212
 33
0
 14
411
 24
212
 34
0
100
AcDbRotatedDimension
  0
DIMENSION
  5
178
100
AcDbEntity
  8
measurements
  6
ByLayer
 62
  256
370
   -1
100
AcDbDimension
  2
*D7
 10
426
 20
280
 30
0
 11
228
 21
283.125
 31
0
 70
   32
 71
    5
  3
Standard
 53
0
210
0
220
0
230
1
100
AcDbAlignedDimension
 13
30
 23
222
 33
0
 14
426
 24
222
 34
0
100
AcDbRotatedDimension
  0
DIMENSION
  5
179
100
AcDbEntity
  8
measurements
  6
ByLayer
 62
  256
370
   -1
100
AcDbDimension
  2
*D8
 10
55
 20
240
 30
0
 11
50
 21
243.125
 31
0
 70
   32
 71
    5
  3
Standard
 53
0
210
0
220
0
230
1
100
AcDbAlignedDimension
 13
45
 23
212
 33
0
 14
55
 24
212
 34
0
100
AcDbRotatedDimension
  0
DIMENSION
  5
17A
100
AcDbEntity
  8
measurements
  6
ByLayer
 62
  256
370
   -1
100
AcDbDimension
  2
*D9
 10
411
 20
240
 30
0
 11
406
 21
243.125
 31
0
 70
   32
 71
    5
  3
Standard
 53
0
210
0
220
0
230
1
100
AcDbAlignedDimension
 13
401
 23
212
 33
0
 14
411
 24
212
 34
0
100
AcDbRotatedDimension
  0
DIMENSION
  5
17B
100
AcDbEntity
  8
measurements
  6
ByLayer
 62
  256
370
   -1
100
AcDbDimension
  2
*D10
 10
30
 20
240
 30
0
 11
37.5
 21
243.125
 31
0
 70
   32
 71
    5
  3
Standard
 53
0
210
0
220
0
230
1
100
AcDbAlignedDimension
 13
45
 23
212
 33
0
 14
30
 24
222
 34
0
100
AcDbRotatedDimension
  0
DIMENSION
  5
17C
100
AcDbEntity
  8
measurements
  6
ByLayer
 62
  256
370
   -1
100
AcDbDimension
  2
*D11
 10
426
 20
240
 30
0
 11
418.5
 21
243.125
 31
0
 70
   32
 71
    5
  3
Standard
 53
0
210
0
220
0
230
1
100
AcDbAlignedDimension
 13
411
 23
212
 33
0
 14
426
 24
222
 34
0
100
AcDbRotatedDimension
  0
LINE
  5
17D
100
AcDbEntity
  8
0
  6
ByLayer
 62
  256
370
   -1
100
AcDbLine
 10
480
 20
0
 11
490
 21
0
  0
LINE
  5
17E
100
AcDbEntity
  8
0
  6
ByLayer
 62
  256
370
   -1
100
AcDbLine
 10
490
 20
0
 11
490
 21
222
  0
LINE
  5
17F
100
AcDbEntity
  8
0
  6
ByLayer
 62
  256
370
   -1
100
AcDbLine
 10
490
 20
222
 11
480
 21
222
  0
LINE
  5
180
100
AcDbEntity
  8
0
  6
ByLayer
 62
  256
370
   -1
100
AcDbLine
 10
480
 20
222
 11
480
 21
0
  0
LINE
  5
181
100
AcDbEntity
  8
0
  6
ByLayer
 62
  256
370
   -1
100
AcDbLine
 10
480
 20
0
 11
490
 21
0
  0
LINE
  5
182
100
AcDbEntity
  8
0
  6
ByLayer
 62
  256
370
   -1
100
AcDbLine
 10
490
 20
0
 11
490
 21
-24
  0
LINE
  5
183
100
AcDbEntity
  8
0
  6
ByLayer
 62
  256
370
   -1
100
AcDbLine
 10
490
 20
-24
 11
480
 21
-24
  0
LINE
  5
184
100
AcDbEntity
  8
0
  6
ByLayer
 62
  256
370
   -1
100
AcDbLine
 10
480
 20
-24
 11
480
 21
0
  0
LINE
  5
185
100
AcDbEntity
  8
0
  6
ByLayer
 62
  256
370
   -1
100
AcDbLine
 10
480
 20
222
 11
490
 21
222
  0
LINE
  5
186
100
AcDbEntity
  8
0
  6
ByLayer
 62
  256
370
   -1
100
AcDbLine
 10
490
 20
222
 11
490
 21
246
  0
LINE
  5
187
100
AcDbEntity
  8
0
  6
ByLayer
 62
  256
370
   -1
100
AcDbLine
 10
490
 20
246
 11
480
 21
246
  0
LINE
  5
188
100
AcDbEntity
  8
0
  6
ByLayer
 62
  256
370
   -1
100
AcDbLine
 10
480
 20
246
 11
480
 21
222
  0
LINE
  5
189
100
AcDbEntity
  8
0
  6
ByLayer
 62
  256
370
   -1
100
AcDbLine
 10
490
 20
0
 11
515
 21
0
  0
LINE
  5
18A
100
AcDbEntity
  8
0
  6
ByLayer
 62
  256
370
   -1
100
AcDbLine
 10
515
 20
0
 11
515
 21
212
  0
LINE
  5
18B
100
AcDbEntity
  8
0
  6
ByLayer
 62
  256
370
   -1
100
AcDbLine
 10
515
 20
212
 11
490
 21
212
  0
LINE
  5
18C
100
AcDbEntity
  8
0
  6
ByLayer
 62
  256
370
   -1
100
AcDbLine
 10
490
 20
212
 11
490
 21
0
  0
LINE
  5
18D
100
AcDbEntity
  8
0
  6
ByLayer
 62
  256
370
   -1
100
AcDbLine
 10
515
 20
212
 11
490
 21
212
  0
LINE
  5
18E
100
AcDbEntity
  8
0
  6
ByLayer
 62
  256
370
   -1
100
AcDbLine
 10
490
 20
212
 11
490
 21
222
  0
LINE
  5
18F
100
AcDbEntity
  8
0
  6
ByLayer
 62
  256
370
   -1
100
AcDbLine
 10
490
 20
222
 11
515
 21
222
  0
LINE
  5
190
100
AcDbEntity
  8
0
  6
ByLayer
 62
  256
370
   -1
100
AcDbLine
 10
515
 20
222
 11
515
 21
212
  0
LINE
  5
191
100
AcDbEntity
  8
invisible lines
  6
ByLayer
 62
  256
370
   -1
100
AcDbLine
 10
490
 20
10
 11
515
 21
10
  0
LINE
  5
192
100
AcDbEntity
  8
invisible lines
  6
ByLayer
 62
  256
370
   -1
100
AcDbLine
 10
515
 20
10
 11
515
 21
26
  0
LINE
  5
193
100
AcDbEntity
  8
invisible lines
  6
ByLayer
 62
  256
370
   -1
100
AcDbLine
 10
515
 20
26
 11
490
 21
26
  0
LINE
  5
194
100
AcDbEntity
  8
invisible lines
  6
ByLayer
 62
  256
370
   -1
100
AcDbLine
 10
490
 20
26
 11
490
 21
10
  0
DIMENSION
  5
195
100
AcDbEntity
  8
measurements
  6
ByLayer
 62
  256
370
   -1
100
AcDbDimension
  2
*D12
 10
490
 20
260
 30
0
 11
485
 21
263.125
 31
0
 70
   32
 71
    5
  3
Standard
 53
0
210
0
220
0
230
1
100
AcDbAlignedDimension
 13
480
 23
246
 33
0
 14
490
 24
246
 34
0
100
AcDbRotatedDimension
  0
DIMENSION
  5
196
100
AcDbEntity
  8
measurements
  6
ByLayer
 62
  256
370
   -1
100
AcDbDimension
  2
*D13
 10
515
 20
260
 30
0
 11
502.5
 21
263.125
 31
0
 70
   32
 71
    5
  3
Standard
 53
0
210
0
220
0
230
1
100
AcDbAlignedDimension
 13
490
 23
246
 33
0
 14
515
 24
222
 34
0
100
AcDbRotatedDimension
  0
DIMENSION
  5
197
100
AcDbEntity
  8
measurements
  6
ByLayer
 62
  256
370
   -1
100
AcDbDimension
  2
*D14
 10
540
 20
-3.06161699787e-15
 30
0
 11
536.875
 21
111
 31
0
 70
   32
 71
    5
  3
Standard
 53
0
210
0
220
0
230
1
100
AcDbAlignedDimension
 13
515
 23
222
 33
0
 14
515
 24
0
 34
0
 50
90
100
AcDbRotatedDimension
  0
ENDSEC
  0
SECTION
  2
OBJECTS
  0
DICTIONARY
  5
C
330
0
100
AcDbDictionary
281
    1
  3
ACAD_GROUP
350
D
  0
DICTIONARY
  5
D
330
C
100
AcDbDictionary
281
    1
  0
ENDSEC
  0
EOF
