  0
SECTION
  2
HEADER
  9
$ACADVER
  1
AC1015
  9
$ACADMAINTVER
 70
    13
  9
$DWGCODEPAGE
  3
ANSI_1252
  9
$INSBASE
 10
0.0
 20
0.0
 30
0.0
  9
$EXTMIN
 10
-1036.878295715008
 20
-1036.878698864655
 30
-0.0015258207003583
  9
$EXTMAX
 10
1023.666889783659
 20
1036.878708520751
 30
0.0000000349246037
  9
$LIMMIN
 10
0.0
 20
0.0
  9
$LIMMAX
 10
420.0
 20
297.0
  9
$ORTHOMODE
 70
     0
  9
$REGENMODE
 70
     1
  9
$FILLMODE
 70
     1
  9
$QTEXTMODE
 70
     0
  9
$MIRRTEXT
 70
     1
  9
$LTSCALE
 40
1.0
  9
$ATTMODE
 70
     1
  9
$TEXTSIZE
 40
2.5
  9
$TRACEWID
 40
1.0
  9
$TEXTSTYLE
  7
Standard
  9
$CLAYER
  8
ceco.net 81
  9
$CELTYPE
  6
ByLayer
  9
$CECOLOR
 62
   256
  9
$CELTSCALE
 40
1.0
  9
$DISPSILH
 70
     0
  9
$DIMSCALE
 40
1.0
  9
$DIMASZ
 40
2.5
  9
$DIMEXO
 40
0.625
  9
$DIMDLI
 40
3.75
  9
$DIMRND
 40
0.0
  9
$DIMDLE
 40
0.0
  9
$DIMEXE
 40
1.25
  9
$DIMTP
 40
0.0
  9
$DIMTM
 40
0.0
  9
$DIMTXT
 40
2.5
  9
$DIMCEN
 40
2.5
  9
$DIMTSZ
 40
0.0
  9
$DIMTOL
 70
     0
  9
$DIMLIM
 70
     0
  9
$DIMTIH
 70
     0
  9
$DIMTOH
 70
     0
  9
$DIMSE1
 70
     0
  9
$DIMSE2
 70
     0
  9
$DIMTAD
 70
     1
  9
$DIMZIN
 70
     8
  9
$DIMBLK
  1

  9
$DIMASO
 70
     1
  9
$DIMSHO
 70
     1
  9
$DIMPOST
  1

  9
$DIMAPOST
  1

  9
$DIMALT
 70
     0
  9
$DIMALTD
 70
     3
  9
$DIMALTF
 40
0.03937007874016
  9
$DIMLFAC
 40
1.0
  9
$DIMTOFL
 70
     1
  9
$DIMTVP
 40
0.0
  9
$DIMTIX
 70
     0
  9
$DIMSOXD
 70
     0
  9
$DIMSAH
 70
     0
  9
$DIMBLK1
  1

  9
$DIMBLK2
  1

  9
$DIMSTYLE
  2
ISO-25
  9
$DIMCLRD
 70
     0
  9
$DIMCLRE
 70
     0
  9
$DIMCLRT
 70
     0
  9
$DIMTFAC
 40
1.0
  9
$DIMGAP
 40
0.625
  9
$DIMJUST
 70
     0
  9
$DIMSD1
 70
     0
  9
$DIMSD2
 70
     0
  9
$DIMTOLJ
 70
     0
  9
$DIMTZIN
 70
     8
  9
$DIMALTZ
 70
     0
  9
$DIMALTTZ
 70
     0
  9
$DIMUPT
 70
     0
  9
$DIMDEC
 70
     2
  9
$DIMTDEC
 70
     2
  9
$DIMALTU
 70
     2
  9
$DIMALTTD
 70
     3
  9
$DIMTXSTY
  7
Standard
  9
$DIMAUNIT
 70
     0
  9
$DIMADEC
 70
     0
  9
$DIMALTRND
 40
0.0
  9
$DIMAZIN
 70
     0
  9
$DIMDSEP
 70
    44
  9
$DIMATFIT
 70
     3
  9
$DIMFRAC
 70
     0
  9
$DIMLDRBLK
  1

  9
$DIMLUNIT
 70
     2
  9
$DIMLWD
 70
    -2
  9
$DIMLWE
 70
    -2
  9
$DIMTMOVE
 70
     0
  9
$LUNITS
 70
     2
  9
$LUPREC
 70
     4
  9
$SKETCHINC
 40
1.0
  9
$FILLETRAD
 40
10.0
  9
$AUNITS
 70
     0
  9
$AUPREC
 70
     0
  9
$MENU
  1
.
  9
$ELEVATION
 40
0.0
  9
$PELEVATION
 40
0.0
  9
$THICKNESS
 40
0.0
  9
$LIMCHECK
 70
     0
  9
$CHAMFERA
 40
10.0
  9
$CHAMFERB
 40
10.0
  9
$CHAMFERC
 40
20.0
  9
$CHAMFERD
 40
0.0
  9
$SKPOLY
 70
     0
  9
$TDCREATE
 40
2455850.592696655
  9
$TDUCREATE
 40
2455850.717696655
  9
$TDUPDATE
 40
2455850.596854849
  9
$TDUUPDATE
 40
2455850.721854849
  9
$TDINDWG
 40
0.0041582407
  9
$TDUSRTIMER
 40
0.0041582176
  9
$USRTIMER
 70
     1
  9
$ANGBASE
 50
0.0
  9
$ANGDIR
 70
     0
  9
$PDMODE
 70
     0
  9
$PDSIZE
 40
0.0
  9
$PLINEWID
 40
0.0
  9
$SPLFRAME
 70
     0
  9
$SPLINETYPE
 70
     6
  9
$SPLINESEGS
 70
     8
  9
$HANDSEED
  5
26B
  9
$SURFTAB1
 70
     6
  9
$SURFTAB2
 70
     6
  9
$SURFTYPE
 70
     6
  9
$SURFU
 70
     6
  9
$SURFV
 70
     6
  9
$UCSBASE
  2

  9
$UCSNAME
  2

  9
$UCSORG
 10
0.0
 20
0.0
 30
0.0
  9
$UCSXDIR
 10
1.0
 20
0.0
 30
0.0
  9
$UCSYDIR
 10
0.0
 20
1.0
 30
0.0
  9
$UCSORTHOREF
  2

  9
$UCSORTHOVIEW
 70
     0
  9
$UCSORGTOP
 10
0.0
 20
0.0
 30
0.0
  9
$UCSORGBOTTOM
 10
0.0
 20
0.0
 30
0.0
  9
$UCSORGLEFT
 10
0.0
 20
0.0
 30
0.0
  9
$UCSORGRIGHT
 10
0.0
 20
0.0
 30
0.0
  9
$UCSORGFRONT
 10
0.0
 20
0.0
 30
0.0
  9
$UCSORGBACK
 10
0.0
 20
0.0
 30
0.0
  9
$PUCSBASE
  2

  9
$PUCSNAME
  2

  9
$PUCSORG
 10
0.0
 20
0.0
 30
0.0
  9
$PUCSXDIR
 10
1.0
 20
0.0
 30
0.0
  9
$PUCSYDIR
 10
0.0
 20
1.0
 30
0.0
  9
$PUCSORTHOREF
  2

  9
$PUCSORTHOVIEW
 70
     0
  9
$PUCSORGTOP
 10
0.0
 20
0.0
 30
0.0
  9
$PUCSORGBOTTOM
 10
0.0
 20
0.0
 30
0.0
  9
$PUCSORGLEFT
 10
0.0
 20
0.0
 30
0.0
  9
$PUCSORGRIGHT
 10
0.0
 20
0.0
 30
0.0
  9
$PUCSORGFRONT
 10
0.0
 20
0.0
 30
0.0
  9
$PUCSORGBACK
 10
0.0
 20
0.0
 30
0.0
  9
$USERI1
 70
     0
  9
$USERI2
 70
     0
  9
$USERI3
 70
     0
  9
$USERI4
 70
     0
  9
$USERI5
 70
     0
  9
$USERR1
 40
0.0
  9
$USERR2
 40
0.0
  9
$USERR3
 40
0.0
  9
$USERR4
 40
0.0
  9
$USERR5
 40
0.0
  9
$WORLDVIEW
 70
     1
  9
$SHADEDGE
 70
     3
  9
$SHADEDIF
 70
    70
  9
$TILEMODE
 70
     1
  9
$MAXACTVP
 70
    64
  9
$PINSBASE
 10
0.0
 20
0.0
 30
0.0
  9
$PLIMCHECK
 70
     0
  9
$PEXTMIN
 10
0.0
 20
0.0
 30
0.0
  9
$PEXTMAX
 10
0.0
 20
0.0
 30
0.0
  9
$PLIMMIN
 10
0.0
 20
0.0
  9
$PLIMMAX
 10
12.0
 20
9.0
  9
$UNITMODE
 70
     0
  9
$VISRETAIN
 70
     1
  9
$PLINEGEN
 70
     0
  9
$PSLTSCALE
 70
     1
  9
$TREEDEPTH
 70
  3020
  9
$CMLSTYLE
  2
Standard
  9
$CMLJUST
 70
     0
  9
$CMLSCALE
 40
20.0
  9
$PROXYGRAPHICS
 70
     1
  9
$MEASUREMENT
 70
     1
  9
$CELWEIGHT
370
    -1
  9
$ENDCAPS
280
     0
  9
$JOINSTYLE
280
     0
  9
$LWDISPLAY
290
     0
  9
$INSUNITS
 70
     4
  9
$HYPERLINKBASE
  1

  9
$STYLESHEET
  1

  9
$XEDIT
290
     1
  9
$CEPSNTYPE
380
     0
  9
$PSTYLEMODE
290
     1
  9
$FINGERPRINTGUID
  2
{FDEAD578-A652-11D2-9A35-0060089B3A3F}
  9
$VERSIONGUID
  2
{E6EE0FCC-B13D-4D5B-8040-B6F828C50502}
  9
$EXTNAMES
290
     1
  9
$PSVPSCALE
 40
0.0
  9
$OLESTARTUP
290
     0
  0
ENDSEC
  0
SECTION
  2
CLASSES
  0
CLASS
  1
ACDBDICTIONARYWDFLT
  2
AcDbDictionaryWithDefault
  3
AutoCAD 2000
 90
        0
280
     0
281
     0
  0
CLASS
  1
ACDBPLACEHOLDER
  2
AcDbPlaceHolder
  3
AutoCAD 2000
 90
        0
280
     0
281
     0
  0
CLASS
  1
LAYOUT
  2
AcDbLayout
  3
AutoCAD 2000
 90
        0
280
     0
281
     0
  0
CLASS
  1
DICTIONARYVAR
  2
AcDbDictionaryVar
  3
AutoCAD 2000
 90
        0
280
     0
281
     0
  0
ENDSEC
  0
SECTION
  2
TABLES
  0
TABLE
  2
VPORT
  5
8
330
0
100
AcDbSymbolTable
 70
     5
  0
VPORT
  5
26A
330
8
100
AcDbSymbolTableRecord
100
AcDbViewportTableRecord
  2
*Active
 70
     0
 10
0.0
 20
0.0
 11
1.0
 21
1.0
 12
-6.605702965673799
 22
0.0000048280480769
 13
0.0
 23
0.0
 14
10.0
 24
10.0
 15
10.0
 25
10.0
 16
0.0
 26
0.0
 36
1.0
 17
0.0
 27
0.0
 37
0.0
 40
2088.482312053232
 41
2.184834123222748
 42
50.0
 43
0.0
 44
0.0
 50
0.0
 51
0.0
 71
     0
 72
   100
 73
     1
 74
     3
 75
     0
 76
     0
 77
     0
 78
     0
281
     0
 65
     1
110
0.0
120
0.0
130
0.0
111
1.0
121
0.0
131
0.0
112
0.0
122
1.0
132
0.0
 79
     0
146
0.0
  0
ENDTAB
  0
TABLE
  2
LTYPE
  5
5
330
0
100
AcDbSymbolTable
 70
     1
  0
LTYPE
  5
14
330
5
100
AcDbSymbolTableRecord
100
AcDbLinetypeTableRecord
  2
ByBlock
 70
     0
  3

 72
    65
 73
     0
 40
0.0
  0
LTYPE
  5
15
330
5
100
AcDbSymbolTableRecord
100
AcDbLinetypeTableRecord
  2
ByLayer
 70
     0
  3

 72
    65
 73
     0
 40
0.0
  0
LTYPE
  5
16
330
5
100
AcDbSymbolTableRecord
100
AcDbLinetypeTableRecord
  2
Continuous
 70
     0
  3
Solid line
 72
    65
 73
     0
 40
0.0
  0
ENDTAB
  0
TABLE
  2
LAYER
  5
2
102
{ACAD_XDICTIONARY
360
76
102
}
330
0
100
AcDbSymbolTable
 70
     2
  0
LAYER
  5
10
330
2
100
AcDbSymbolTableRecord
100
AcDbLayerTableRecord
  2
0
 70
     0
 62
     7
  6
Continuous
370
    -3
390
F
  0
LAYER
  5
6C
330
2
100
AcDbSymbolTableRecord
100
AcDbLayerTableRecord
  2
ceco.net 81
 70
     0
 62
     7
  6
Continuous
370
    -3
390
F
  0
ENDTAB
  0
TABLE
  2
STYLE
  5
3
330
0
100
AcDbSymbolTable
 70
     1
  0
STYLE
  5
11
330
3
100
AcDbSymbolTableRecord
100
AcDbTextStyleTableRecord
  2
Standard
 70
     0
 40
0.0
 41
1.0
 50
0.0
 71
     0
 42
2.5
  3
txt
  4

  0
ENDTAB
  0
TABLE
  2
VIEW
  5
6
330
0
100
AcDbSymbolTable
 70
     0
  0
ENDTAB
  0
TABLE
  2
UCS
  5
7
330
0
100
AcDbSymbolTable
 70
     0
  0
ENDTAB
  0
TABLE
  2
APPID
  5
9
330
0
100
AcDbSymbolTable
 70
     9
  0
APPID
  5
12
330
9
100
AcDbSymbolTableRecord
100
AcDbRegAppTableRecord
  2
ACAD
 70
     0
  0
APPID
  5
6E
330
9
100
AcDbSymbolTableRecord
100
AcDbRegAppTableRecord
  2
ACAD_PSEXT
 70
     0
  0
APPID
  5
6F
330
9
100
AcDbSymbolTableRecord
100
AcDbRegAppTableRecord
  2
AcadAnnoPO
 70
     0
  0
APPID
  5
70
330
9
100
AcDbSymbolTableRecord
100
AcDbRegAppTableRecord
  2
AcadAnnotative
 70
     0
  0
APPID
  5
71
330
9
100
AcDbSymbolTableRecord
100
AcDbRegAppTableRecord
  2
ACAD_DSTYLE_DIMJAG
 70
     0
  0
APPID
  5
72
330
9
100
AcDbSymbolTableRecord
100
AcDbRegAppTableRecord
  2
ACAD_DSTYLE_DIMTALN
 70
     0
  0
APPID
  5
73
330
9
100
AcDbSymbolTableRecord
100
AcDbRegAppTableRecord
  2
ACAD_MLEADERVER
 70
     0
  0
APPID
  5
74
330
9
100
AcDbSymbolTableRecord
100
AcDbRegAppTableRecord
  2
ACAD_EXEMPT_FROM_CAD_STANDARDS
 70
     0
  0
APPID
  5
75
330
9
100
AcDbSymbolTableRecord
100
AcDbRegAppTableRecord
  2
ACAD_NAV_VCDISPLAY
 70
     0
  0
ENDTAB
  0
TABLE
  2
DIMSTYLE
  5
A
330
0
100
AcDbSymbolTable
 70
     2
100
AcDbDimStyleTable
 71
     0
  0
DIMSTYLE
105
27
330
A
100
AcDbSymbolTableRecord
100
AcDbDimStyleTableRecord
  2
ISO-25
 70
     0
 41
2.5
 42
0.625
 43
3.75
 44
1.25
 73
     0
 74
     0
 77
     1
 78
     8
140
2.5
141
2.5
143
0.03937007874016
147
0.625
171
     3
172
     1
271
     2
272
     2
274
     3
278
    44
283
     0
284
     8
340
11
  0
DIMSTYLE
105
6D
330
A
100
AcDbSymbolTableRecord
100
AcDbDimStyleTableRecord
  2
Standard
 70
     0
340
11
  0
ENDTAB
  0
TABLE
  2
BLOCK_RECORD
  5
1
330
0
100
AcDbSymbolTable
 70
     2
  0
BLOCK_RECORD
  5
1F
330
1
100
AcDbSymbolTableRecord
100
AcDbBlockTableRecord
  2
*Model_Space
340
22
  0
BLOCK_RECORD
  5
50
330
1
100
AcDbSymbolTableRecord
100
AcDbBlockTableRecord
  2
*Paper_Space
340
51
  0
BLOCK_RECORD
  5
55
330
1
100
AcDbSymbolTableRecord
100
AcDbBlockTableRecord
  2
*Paper_Space0
340
56
  0
ENDTAB
  0
ENDSEC
  0
SECTION
  2
BLOCKS
  0
BLOCK
  5
20
330
1F
100
AcDbEntity
  8
0
100
AcDbBlockBegin
  2
*Model_Space
 70
     0
 10
0.0
 20
0.0
 30
0.0
  3
*Model_Space
  1

  0
ENDBLK
  5
21
330
1F
100
AcDbEntity
  8
0
100
AcDbBlockEnd
  0
BLOCK
  5
52
330
50
100
AcDbEntity
 67
     1
  8
0
100
AcDbBlockBegin
  2
*Paper_Space
 70
     0
 10
0.0
 20
0.0
 30
0.0
  3
*Paper_Space
  1

  0
ENDBLK
  5
53
330
50
100
AcDbEntity
 67
     1
  8
0
100
AcDbBlockEnd
  0
BLOCK
  5
57
330
55
100
AcDbEntity
  8
0
100
AcDbBlockBegin
  2
*Paper_Space0
 70
     0
 10
0.0
 20
0.0
 30
0.0
  3
*Paper_Space0
  1

  0
ENDBLK
  5
58
330
55
100
AcDbEntity
  8
0
100
AcDbBlockEnd
  0
ENDSEC
  0
SECTION
  2
ENTITIES
  0
LINE
  5
171
102
{ACAD_REACTORS
330
185
102
}
330
1F
100
AcDbEntity
  8
ceco.net 81
100
AcDbLine
 10
0.0000000000009095
 20
-642.6057058814209
 30
0.0
 11
90.38379240506719
 21
-90.38379240506605
 31
0.0
  0
LINE
  5
172
102
{ACAD_REACTORS
330
186
102
}
330
1F
100
AcDbEntity
  8
ceco.net 81
100
AcDbLine
 10
90.38379240506719
 20
90.38379240506685
 30
0.0
 11
0.0000000000009095
 21
642.6057058814206
 31
0.0
  0
LINE
  5
173
102
{ACAD_REACTORS
330
185
102
}
330
1F
100
AcDbEntity
  8
ceco.net 81
100
AcDbLine
 10
0.0000000000009095
 20
642.6057058814206
 30
0.0
 11
-90.38379240506584
 21
90.38379240506651
 31
0.0
  0
LINE
  5
174
102
{ACAD_REACTORS
330
186
102
}
330
1F
100
AcDbEntity
  8
ceco.net 81
100
AcDbLine
 10
-90.38379240506538
 20
-90.38379240506561
 30
0.0
 11
0.0000000000009095
 21
-642.6057058814209
 31
0.0
  0
LINE
  5
175
102
{ACAD_REACTORS
330
185
102
}
330
1F
100
AcDbEntity
  8
ceco.net 81
100
AcDbLine
 10
642.6057058814217
 20
-0.0000000000001137
 30
0.0
 11
90.38379240506628
 21
90.38379240506628
 31
0.0
  0
LINE
  5
176
102
{ACAD_REACTORS
330
186
102
}
330
1F
100
AcDbEntity
  8
ceco.net 81
100
AcDbLine
 10
-90.38379240506491
 20
90.38379240506618
 30
0.0
 11
-642.6057058814198
 21
0.0
 31
0.0
  0
LINE
  5
177
102
{ACAD_REACTORS
330
185
102
}
330
1F
100
AcDbEntity
  8
ceco.net 81
100
AcDbLine
 10
-642.6057058814198
 20
0.0
 30
0.0
 11
-90.38379240506584
 21
-90.38379240506628
 31
0.0
  0
LINE
  5
178
102
{ACAD_REACTORS
330
186
102
}
330
1F
100
AcDbEntity
  8
ceco.net 81
100
AcDbLine
 10
90.38379240506719
 20
-90.38379240506628
 30
0.0
 11
642.6057058814217
 21
-0.0000000000001137
 31
0.0
  0
LINE
  5
179
102
{ACAD_REACTORS
330
186
102
}
330
1F
100
AcDbEntity
  8
ceco.net 81
100
AcDbLine
 10
297.0998757650427
 20
-297.0998757650419
 30
0.0
 11
158.012312154266
 21
-79.31483273413642
 31
0.0
  0
LINE
  5
17A
102
{ACAD_REACTORS
330
186
102
}
330
1F
100
AcDbEntity
  8
ceco.net 81
100
AcDbLine
 10
-297.0998757650404
 20
297.0998757650421
 30
0.0
 11
-158.0123121542637
 21
79.3148327341363
 31
0.0
  0
LINE
  5
17B
330
1F
100
AcDbEntity
  8
ceco.net 81
100
AcDbLine
 10
79.31483273413778
 20
-158.0123121542645
 30
0.0
 11
297.0998757650427
 21
-297.0998757650419
 31
0.0
  0
LINE
  5
17C
330
1F
100
AcDbEntity
  8
ceco.net 81
100
AcDbLine
 10
158.0123121542656
 20
79.3148327341363
 30
0.0
 11
297.0998757650422
 21
297.0998757650419
 31
0.0
  0
LINE
  5
17D
102
{ACAD_REACTORS
330
186
102
}
330
1F
100
AcDbEntity
  8
ceco.net 81
100
AcDbLine
 10
297.0998757650422
 20
297.0998757650419
 30
0.0
 11
79.31483273413732
 21
158.0123121542647
 31
0.0
  0
LINE
  5
17E
330
1F
100
AcDbEntity
  8
ceco.net 81
100
AcDbLine
 10
-158.0123121542642
 20
-79.31483273413642
 30
0.0
 11
-297.0998757650413
 21
-297.0998757650416
 31
0.0
  0
LINE
  5
17F
102
{ACAD_REACTORS
330
186
102
}
330
1F
100
AcDbEntity
  8
ceco.net 81
100
AcDbLine
 10
-297.0998757650413
 20
-297.0998757650416
 30
0.0
 11
-79.31483273413551
 21
-158.0123121542647
 31
0.0
  0
LINE
  5
180
102
{ACAD_REACTORS
330
185
102
}
330
1F
100
AcDbEntity
  8
ceco.net 81
100
AcDbLine
 10
0.0000000000009095
 20
-642.6057058814209
 30
0.0
 11
0.0000000000009095
 21
642.6057058814206
 31
0.0
  0
LINE
  5
181
102
{ACAD_REACTORS
330
185
330
186
102
}
330
1F
100
AcDbEntity
  8
ceco.net 81
100
AcDbLine
 10
297.0998757650422
 20
297.0998757650419
 30
0.0
 11
-297.0998757650413
 21
-297.0998757650416
 31
0.0
  0
LINE
  5
182
102
{ACAD_REACTORS
330
185
330
186
102
}
330
1F
100
AcDbEntity
  8
ceco.net 81
100
AcDbLine
 10
297.0998757650427
 20
-297.099875765042
 30
0.0
 11
-297.0998757650406
 21
297.0998757650419
 31
0.0
  0
LINE
  5
183
102
{ACAD_REACTORS
330
185
102
}
330
1F
100
AcDbEntity
  8
ceco.net 81
100
AcDbLine
 10
642.6057058814217
 20
-0.0000000000001137
 30
0.0
 11
-642.6057058814198
 21
0.0
 31
0.0
  0
LINE
  5
184
330
1F
100
AcDbEntity
  8
ceco.net 81
100
AcDbLine
 10
-79.31483273413596
 20
158.0123121542652
 30
0.0
 11
-297.0998757650404
 21
297.0998757650421
 31
0.0
  0
HATCH
  5
185
330
1F
100
AcDbEntity
  8
ceco.net 81
100
AcDbHatch
 10
0.0
 20
0.0
 30
0.0
210
0.0
220
0.0
230
1.0
  2
SOLID
 70
     1
 71
     1
 91
        4
 92
        7
 72
     0
 73
     1
 93
        3
 10
0.0000000000009166
 20
642.6057058814208
 10
-90.38379240506577
 20
90.38379240506682
 10
0.0000000000009095
 20
0.0000000000000568
 97
        3
330
173
330
182
330
180
 92
        7
 72
     0
 73
     1
 93
        3
 10
-642.6057058814198
 20
0.0
 10
-90.38379240506595
 20
-90.38379240506628
 10
0.0000000000003553
 20
-0.0000000000000284
 97
        3
330
183
330
177
330
181
 92
        7
 72
     0
 73
     1
 93
        3
 10
0.0000000000009059
 20
-642.605705881421
 10
90.38379240506715
 20
-90.38379240506628
 10
0.000000000000913
 20
0.0000000000000568
 97
        3
330
182
330
180
330
171
 92
        7
 72
     0
 73
     1
 93
        3
 10
90.38379240506658
 20
90.38379240506623
 10
0.0000000000003162
 20
-0.0000000000000568
 10
642.6057058814214
 20
-0.0000000000001137
 97
        3
330
181
330
183
330
175
 75
     0
 76
     1
 47
2.486631045444973
 98
        4
 10
-28.58486757481205
 20
160.877014308924
 10
-158.0488407107195
 20
-33.08020750061416
 10
18.71928566243059
 20
-112.652401435471
 10
125.776029609723
 20
58.92514521215606
1001
ACAD
1010
0.0
1020
0.0
1030
0.0
  0
HATCH
  5
186
330
1F
100
AcDbEntity
  8
ceco.net 81
100
AcDbHatch
 10
0.0
 20
0.0
 30
0.0
210
0.0
220
0.0
230
1.0
  2
SOLID
 70
     1
 71
     1
 91
        4
 92
        7
 72
     0
 73
     1
 93
        3
 10
-297.0998757650413
 20
-297.0998757650416
 10
-79.31483273413545
 20
-158.0123121542646
 10
-90.38379240506536
 20
-90.3837924050657
 97
        3
330
174
330
181
330
17F
 92
        7
 72
     0
 73
     1
 93
        3
 10
297.0998757650428
 20
-297.0998757650421
 10
158.0123121542661
 20
-79.31483273413637
 10
90.38379240506722
 20
-90.38379240506628
 97
        3
330
178
330
182
330
179
 92
        7
 72
     0
 73
     1
 93
        3
 10
297.099875765042
 20
297.0998757650418
 10
79.31483273413744
 20
158.0123121542647
 10
90.38379240506719
 20
90.38379240506685
 97
        3
330
17D
330
172
330
181
 92
        7
 72
     0
 73
     1
 93
        3
 10
-297.0998757650396
 20
297.099875765041
 10
-158.0123121542637
 20
79.31483273413627
 10
-90.38379240506507
 20
90.38379240506609
 97
        3
330
17A
330
176
330
182
 75
     0
 76
     1
 47
2.486631045444973
 98
        4
 10
-128.1725392178186
 20
-159.8983893176019
 10
153.1626362426113
 20
-125.0855553777784
 10
138.2244916340378
 20
150.9304930893202
 10
-158.0488407107195
 20
133.5240737016055
1001
ACAD
1010
0.0
1020
0.0
1030
0.0
  0
LINE
  5
187
330
1F
100
AcDbEntity
  8
ceco.net 81
100
AcDbLine
 10
685.0416877622347
 20
-0.0000000000001137
 30
0.0
 11
798.6849509244521
 21
-0.0000000000001137
 31
0.0
  0
LINE
  5
188
330
1F
100
AcDbEntity
  8
ceco.net 81
100
AcDbLine
 10
593.263504253463
 20
342.5208438811167
 30
0.0
 11
691.6814571209033
 21
399.3424754622255
 31
0.0
  0
LINE
  5
189
330
1F
100
AcDbEntity
  8
ceco.net 81
100
AcDbLine
 10
342.5208438811182
 20
593.2635042534615
 30
0.0
 11
399.3424754622269
 21
691.6814571209023
 31
0.0
  0
LINE
  5
18A
330
1F
100
AcDbEntity
  8
ceco.net 81
100
AcDbLine
 10
0.000000000001819
 20
685.0416877622341
 30
0.0
 11
0.000000000001819
 21
798.6849509244515
 31
0.0
  0
LINE
  5
18B
330
1F
100
AcDbEntity
  8
ceco.net 81
100
AcDbLine
 10
-342.520843881115
 20
593.2635042534624
 30
0.0
 11
-399.3424754622237
 21
691.6814571209028
 31
0.0
  0
LINE
  5
18C
330
1F
100
AcDbEntity
  8
ceco.net 81
100
AcDbLine
 10
-593.2635042534607
 20
342.5208438811181
 30
0.0
 11
-691.6814571209011
 21
399.3424754622268
 31
0.0
  0
LINE
  5
18D
330
1F
100
AcDbEntity
  8
ceco.net 81
100
AcDbLine
 10
-685.0416877622333
 20
0.0000000000014779
 30
0.0
 11
-798.6849509244507
 21
0.0000000000015916
 31
0.0
  0
LINE
  5
18E
330
1F
100
AcDbEntity
  8
ceco.net 81
100
AcDbLine
 10
-593.2635042534611
 20
-342.5208438811151
 30
0.0
 11
-691.681457120902
 21
-399.3424754622239
 31
0.0
  0
LINE
  5
18F
330
1F
100
AcDbEntity
  8
ceco.net 81
100
AcDbLine
 10
-342.5208438811168
 20
-593.2635042534612
 30
0.0
 11
-399.3424754622255
 21
-691.6814571209016
 31
0.0
  0
LINE
  5
190
330
1F
100
AcDbEntity
  8
ceco.net 81
100
AcDbLine
 10
0.0000000000004547
 20
-685.0416877622334
 30
0.0
 11
0.0000000000004547
 21
-798.6849509244508
 31
0.0
  0
LINE
  5
191
330
1F
100
AcDbEntity
  8
ceco.net 81
100
AcDbLine
 10
342.5208438811173
 20
-593.2635042534617
 30
0.0
 11
399.342475462226
 21
-691.6814571209025
 31
0.0
  0
LINE
  5
192
330
1F
100
AcDbEntity
  8
ceco.net 81
100
AcDbLine
 10
593.2635042534625
 20
-342.5208438811165
 30
0.0
 11
691.6814571209028
 21
-399.3424754622252
 31
0.0
  0
TEXT
  5
193
330
1F
100
AcDbEntity
  8
ceco.net 81
100
AcDbText
 10
811.8350067379548
 20
-20.32525465527008
 30
0.0
 40
40.65050931053993
  1
90
 72
     1
 11
842.3228887208598
 21
-0.0000000000001137
 31
0.0
100
AcDbText
 73
     2
  0
TEXT
  5
194
330
1F
100
AcDbEntity
  8
ceco.net 81
100
AcDbText
 10
685.434968068272
 20
-441.4866990156991
 30
0.0
 40
40.65050931053993
  1
120
 72
     1
 11
729.4730198213569
 21
-421.1614443604291
 31
0.0
100
AcDbText
 73
     2
  0
TEXT
  5
195
330
1F
100
AcDbEntity
  8
ceco.net 81
100
AcDbText
 10
377.1233926073449
 20
-749.7982744766265
 30
0.0
 40
40.65050931053993
  1
150
 72
     1
 11
421.1614443604299
 21
-729.4730198213565
 31
0.0
100
AcDbText
 73
     2
  0
TEXT
  5
196
330
1F
100
AcDbEntity
  8
ceco.net 81
100
AcDbText
 10
-44.03805175308447
 20
-862.6481433761284
 30
0.0
 40
40.65050931053993
  1
180
 72
     1
 11
0.0000000000004547
 21
-842.3228887208585
 31
0.0
100
AcDbText
 73
     2
  0
TEXT
  5
197
330
1F
100
AcDbEntity
  8
ceco.net 81
100
AcDbText
 10
-465.1994961135143
 20
-749.7982744766257
 30
0.0
 40
40.65050931053993
  1
210
 72
     1
 11
-421.1614443604294
 21
-729.4730198213557
 31
0.0
100
AcDbText
 73
     2
  0
TEXT
  5
198
330
1F
100
AcDbEntity
  8
ceco.net 81
100
AcDbText
 10
-780.286156459531
 20
-441.4866990156976
 30
0.0
 40
40.65050931053993
  1
240
 72
     1
 11
-729.473019821356
 21
-421.1614443604276
 31
0.0
100
AcDbText
 73
     2
  0
TEXT
  5
199
330
1F
100
AcDbEntity
  8
ceco.net 81
100
AcDbText
 10
-893.1360253590332
 20
-20.32525465526837
 30
0.0
 40
40.65050931053993
  1
270
 72
     1
 11
-842.3228887208583
 21
0.0000000000015916
 31
0.0
100
AcDbText
 73
     2
  0
TEXT
  5
19A
330
1F
100
AcDbEntity
  8
ceco.net 81
100
AcDbText
 10
-776.8986140169851
 20
400.8361897051607
 30
0.0
 40
40.65050931053993
  1
300
 72
     1
 11
-729.4730198213551
 21
421.1614443604307
 31
0.0
100
AcDbText
 73
     2
  0
TEXT
  5
19B
330
1F
100
AcDbEntity
  8
ceco.net 81
100
AcDbText
 10
-471.9745809986025
 20
709.1477651660873
 30
0.0
 40
40.65050931053993
  1
330
 72
     1
 11
-421.1614443604275
 21
729.4730198213573
 31
0.0
100
AcDbText
 73
     2
  0
TEXT
  5
19C
330
1F
100
AcDbEntity
  8
ceco.net 81
100
AcDbText
 10
-10.16262732763316
 20
821.9976340655891
 30
0.0
 40
40.65050931053993
  1
0
 72
     1
 11
0.000000000001819
 21
842.322888720859
 31
0.0
100
AcDbText
 73
     2
  0
TEXT
  5
19D
330
1F
100
AcDbEntity
  8
ceco.net 81
100
AcDbText
 10
390.6735623775258
 20
709.1477651660864
 30
0.0
 40
40.65050931053993
  1
30
 72
     1
 11
421.1614443604307
 21
729.4730198213564
 31
0.0
100
AcDbText
 73
     2
  0
TEXT
  5
19E
330
1F
100
AcDbEntity
  8
ceco.net 81
100
AcDbText
 10
698.9851378384529
 20
400.8361897051592
 30
0.0
 40
40.65050931053993
  1
60
 72
     1
 11
729.4730198213578
 21
421.1614443604292
 31
0.0
100
AcDbText
 73
     2
  0
TEXT
  5
19F
330
1F
100
AcDbEntity
  8
ceco.net 81
100
AcDbText
 10
-1036.815421501374
 20
-39.63424657777484
 30
0.0
 40
79.26849315555287
  1
W
 72
     1
 11
-997.181174923598
 21
0.0000000000015916
 31
0.0
100
AcDbText
 73
     2
  0
TEXT
  5
1A0
330
1F
100
AcDbEntity
  8
ceco.net 81
100
AcDbText
 10
970.7583438717485
 20
-39.63424657777746
 30
0.0
 40
79.26849315555287
  1
E
 72
     1
 11
997.1811749235994
 21
-0.0000000000010232
 31
0.0
100
AcDbText
 73
     2
  0
TEXT
  5
1A1
330
1F
100
AcDbEntity
  8
ceco.net 81
100
AcDbText
 10
-26.42283105185141
 20
-1036.815421501375
 30
0.0
 40
79.26849315555287
  1
S
 72
     1
 11
-0.0000000000004547
 21
-997.1811749235989
 31
0.0
100
AcDbText
 73
     2
  0
TEXT
  5
1A2
330
1F
100
AcDbEntity
  8
ceco.net 81
100
AcDbText
 10
-26.42283105184777
 20
957.5469283458229
 30
0.0
 40
79.26849315555287
  1
N
 72
     1
 11
0.0000000000031832
 21
997.1811749235993
 31
0.0
100
AcDbText
 73
     2
  0
LINE
  5
1A3
330
1F
100
AcDbEntity
  8
ceco.net 81
100
AcDbLine
 10
674.6343652448172
 20
118.9562407057899
 30
0.0
 11
763.1671337352636
 21
134.5669564674719
 31
0.0
  0
LINE
  5
1A4
330
1F
100
AcDbEntity
  8
ceco.net 81
100
AcDbLine
 10
643.7286189208967
 20
234.2980562324968
 30
0.0
 11
728.2056033818303
 21
265.0451640568452
 31
0.0
  0
LINE
  5
1A5
330
1F
100
AcDbEntity
  8
ceco.net 81
100
AcDbLine
 10
524.772378215106
 20
440.3363090123187
 30
0.0
 11
593.6386469143581
 21
498.1219696784163
 31
0.0
  0
LINE
  5
1A6
330
1F
100
AcDbEntity
  8
ceco.net 81
100
AcDbLine
 10
440.3363090123198
 20
524.772378215105
 30
0.0
 11
498.1219696784178
 21
593.638646914357
 31
0.0
  0
LINE
  5
1A7
330
1F
100
AcDbEntity
  8
ceco.net 81
100
AcDbLine
 10
234.2980562324978
 20
643.7286189208956
 30
0.0
 11
265.0451640568462
 21
728.2056033818297
 31
0.0
  0
LINE
  5
1A8
330
1F
100
AcDbEntity
  8
ceco.net 81
100
AcDbLine
 10
118.956240705791
 20
674.6343652448161
 30
0.0
 11
134.5669564674726
 21
763.1671337352626
 31
0.0
  0
LINE
  5
1A9
330
1F
100
AcDbEntity
  8
ceco.net 81
100
AcDbLine
 10
-118.9562407057892
 20
674.6343652448161
 30
0.0
 11
-134.5669564674717
 21
763.1671337352626
 31
0.0
  0
LINE
  5
1AA
330
1F
100
AcDbEntity
  8
ceco.net 81
100
AcDbLine
 10
-234.298056232496
 20
643.7286189208951
 30
0.0
 11
-265.0451640568446
 21
728.2056033818288
 31
0.0
  0
LINE
  5
1AB
330
1F
100
AcDbEntity
  8
ceco.net 81
100
AcDbLine
 10
-440.3363090123185
 20
524.772378215105
 30
0.0
 11
-498.121969678416
 21
593.638646914357
 31
0.0
  0
LINE
  5
1AC
330
1F
100
AcDbEntity
  8
ceco.net 81
100
AcDbLine
 10
-524.7723782151037
 20
440.3363090123192
 30
0.0
 11
-593.6386469143558
 21
498.1219696784168
 31
0.0
  0
LINE
  5
1AD
330
1F
100
AcDbEntity
  8
ceco.net 81
100
AcDbLine
 10
-643.7286189208943
 20
234.2980562324975
 30
0.0
 11
-728.2056033818284
 21
265.0451640568461
 31
0.0
  0
LINE
  5
1AE
330
1F
100
AcDbEntity
  8
ceco.net 81
100
AcDbLine
 10
-674.6343652448153
 20
118.9562407057907
 30
0.0
 11
-763.1671337352618
 21
134.5669564674727
 31
0.0
  0
LINE
  5
1AF
330
1F
100
AcDbEntity
  8
ceco.net 81
100
AcDbLine
 10
-674.6343652448159
 20
-118.9562407057895
 30
0.0
 11
-763.1671337352623
 21
-134.5669564674714
 31
0.0
  0
LINE
  5
1B0
330
1F
100
AcDbEntity
  8
ceco.net 81
100
AcDbLine
 10
-643.7286189208948
 20
-234.2980562324961
 30
0.0
 11
-728.2056033818289
 21
-265.0451640568445
 31
0.0
  0
LINE
  5
1B1
330
1F
100
AcDbEntity
  8
ceco.net 81
100
AcDbLine
 10
-524.7723782151052
 20
-440.3363090123177
 30
0.0
 11
-593.6386469143577
 21
-498.1219696784156
 31
0.0
  0
LINE
  5
1B2
330
1F
100
AcDbEntity
  8
ceco.net 81
100
AcDbLine
 10
-440.3363090123191
 20
-524.7723782151048
 30
0.0
 11
-498.1219696784171
 21
-593.6386469143563
 31
0.0
  0
LINE
  5
1B3
330
1F
100
AcDbEntity
  8
ceco.net 81
100
AcDbLine
 10
-234.2980562324976
 20
-643.7286189208954
 30
0.0
 11
-265.0451640568462
 21
-728.2056033818295
 31
0.0
  0
LINE
  5
1B4
330
1F
100
AcDbEntity
  8
ceco.net 81
100
AcDbLine
 10
-118.956240705791
 20
-674.6343652448159
 30
0.0
 11
-134.5669564674731
 21
-763.1671337352623
 31
0.0
  0
LINE
  5
1B5
330
1F
100
AcDbEntity
  8
ceco.net 81
100
AcDbLine
 10
-0.0000000000009095
 20
-685.0416877622339
 30
0.0
 11
-0.0000000000009095
 21
-774.9402169113529
 31
0.0
  0
LINE
  5
1B6
330
1F
100
AcDbEntity
  8
ceco.net 81
100
AcDbLine
 10
118.9562407057892
 20
-674.6343652448164
 30
0.0
 11
134.5669564674708
 21
-763.1671337352628
 31
0.0
  0
LINE
  5
1B7
330
1F
100
AcDbEntity
  8
ceco.net 81
100
AcDbLine
 10
234.298056232496
 20
-643.7286189208963
 30
0.0
 11
265.0451640568444
 21
-728.2056033818304
 31
0.0
  0
LINE
  5
1B8
330
1F
100
AcDbEntity
  8
ceco.net 81
100
AcDbLine
 10
440.3363090123175
 20
-524.772378215107
 30
0.0
 11
498.1219696784155
 21
-593.6386469143591
 31
0.0
  0
LINE
  5
1B9
330
1F
100
AcDbEntity
  8
ceco.net 81
100
AcDbLine
 10
524.7723782151042
 20
-440.336309012321
 30
0.0
 11
593.6386469143562
 21
-498.1219696784193
 31
0.0
  0
LINE
  5
1BA
330
1F
100
AcDbEntity
  8
ceco.net 81
100
AcDbLine
 10
643.7286189208953
 20
-234.2980562325001
 30
0.0
 11
728.2056033818289
 21
-265.0451640568488
 31
0.0
  0
LINE
  5
1BB
330
1F
100
AcDbEntity
  8
ceco.net 81
100
AcDbLine
 10
674.6343652448163
 20
-118.9562407057934
 30
0.0
 11
763.1671337352627
 21
-134.5669564674757
 31
0.0
  0
LINE
  5
1BC
330
1F
100
AcDbEntity
  8
ceco.net 81
100
AcDbLine
 10
684.6243788752572
 20
23.90761012313362
 30
0.0
 11
737.0703402672461
 21
25.73906345167642
 31
0.0
  0
LINE
  5
1BD
330
1F
100
AcDbEntity
  8
ceco.net 81
100
AcDbLine
 10
683.3729606409206
 20
47.78609250601744
 30
0.0
 11
735.7230565708719
 21
51.44676781933583
 31
0.0
  0
LINE
  5
1BE
330
1F
100
AcDbEntity
  8
ceco.net 81
100
AcDbLine
 10
681.2889577195788
 20
71.6063548960658
 30
0.0
 11
733.4794076595153
 21
77.09179222517446
 31
0.0
  0
LINE
  5
1BF
330
1F
100
AcDbEntity
  8
ceco.net 81
100
AcDbLine
 10
678.3749091477739
 20
95.33937597278692
 30
0.0
 11
730.3421270737672
 21
102.6428921572669
 31
0.0
  0
LINE
  5
1C0
330
1F
100
AcDbEntity
  8
ceco.net 81
100
AcDbLine
 10
670.0718832872667
 20
142.4281755832973
 30
0.0
 11
721.4030441472928
 21
153.3389506422352
 31
0.0
  0
LINE
  5
1C1
330
1F
100
AcDbEntity
  8
ceco.net 81
100
AcDbLine
 10
664.693021956592
 20
165.7265836682349
 30
0.0
 11
715.6121327021524
 21
178.4221438569766
 31
0.0
  0
LINE
  5
1C2
330
1F
100
AcDbEntity
  8
ceco.net 81
100
AcDbLine
 10
658.5043345667741
 20
188.8230794391963
 30
0.0
 11
708.9493581049136
 21
203.2879571732521
 31
0.0
  0
LINE
  5
1C3
330
1F
100
AcDbEntity
  8
ceco.net 81
100
AcDbLine
 10
651.5133610801036
 20
211.6895233738266
 30
0.0
 11
701.4228379201004
 21
227.9060954278219
 31
0.0
  0
LINE
  5
1C4
330
1F
100
AcDbEntity
  8
ceco.net 81
100
AcDbLine
 10
635.1595925983265
 20
256.621133000497
 30
0.0
 11
683.816281578479
 21
276.2797114107832
 31
0.0
  0
LINE
  5
1C5
330
1F
100
AcDbEntity
  8
ceco.net 81
100
AcDbLine
 10
625.8167221510107
 20
278.6315564473915
 30
0.0
 11
673.7576962984904
 21
299.976253339484
 31
0.0
  0
LINE
  5
1C6
330
1F
100
AcDbEntity
  8
ceco.net 81
100
AcDbLine
 10
615.7113904274292
 20
300.3025102626555
 30
0.0
 11
662.8782410499789
 21
323.3073204112905
 31
0.0
  0
LINE
  5
1C7
330
1F
100
AcDbEntity
  8
ceco.net 81
100
AcDbLine
 10
604.8559092176815
 20
321.6075917272199
 30
0.0
 11
651.1911707733138
 21
346.2444873148505
 31
0.0
  0
LINE
  5
1C8
330
1F
100
AcDbEntity
  8
ceco.net 81
100
AcDbLine
 10
580.948299094548
 20
363.0167871480356
 30
0.0
 11
625.4521073216373
 21
390.8258529523935
 31
0.0
  0
LINE
  5
1C9
330
1F
100
AcDbEntity
  8
ceco.net 81
100
AcDbLine
 10
567.9252979214124
 20
383.0704503782643
 30
0.0
 11
611.4314732306429
 21
412.4157361595802
 31
0.0
  0
LINE
  5
1CA
330
1F
100
AcDbEntity
  8
ceco.net 81
100
AcDbLine
 10
554.2103672549447
 20
402.657401272186
 30
0.0
 11
596.6659040733157
 21
433.5031543200301
 31
0.0
  0
LINE
  5
1CB
330
1F
100
AcDbEntity
  8
ceco.net 81
100
AcDbLine
 10
539.8202166255386
 20
421.7537761472757
 30
0.0
 11
581.1733894212111
 21
454.0624156629827
 31
0.0
  0
LINE
  5
1CC
330
1F
100
AcDbEntity
  8
ceco.net 81
100
AcDbLine
 10
509.0851854968059
 20
458.3823599134388
 30
0.0
 11
548.0838872778649
 21
493.4969487194697
 31
0.0
  0
LINE
  5
1CD
330
1F
100
AcDbEntity
  8
ceco.net 81
100
AcDbLine
 10
492.7777508985387
 20
475.8699425173944
 30
0.0
 11
530.5272142479366
 21
512.3241755288994
 31
0.0
  0
LINE
  5
1CE
330
1F
100
AcDbEntity
  8
ceco.net 81
100
AcDbLine
 10
475.869942517395
 20
492.777750898538
 30
0.0
 11
512.3241755289
 21
530.527214247936
 31
0.0
  0
LINE
  5
1CF
330
1F
100
AcDbEntity
  8
ceco.net 81
100
AcDbLine
 10
458.3823599134397
 20
509.0851854968049
 30
0.0
 11
493.4969487194707
 21
548.0838872778639
 31
0.0
  0
LINE
  5
1D0
330
1F
100
AcDbEntity
  8
ceco.net 81
100
AcDbLine
 10
421.7537761472763
 20
539.8202166255385
 30
0.0
 11
454.0624156629838
 21
581.1733894212105
 31
0.0
  0
LINE
  5
1D1
330
1F
100
AcDbEntity
  8
ceco.net 81
100
AcDbLine
 10
402.6574012721867
 20
554.2103672549432
 30
0.0
 11
433.5031543200302
 21
596.6659040733142
 31
0.0
  0
LINE
  5
1D2
330
1F
100
AcDbEntity
  8
ceco.net 81
100
AcDbLine
 10
383.0704503782653
 20
567.9252979214115
 30
0.0
 11
412.4157361595807
 21
611.4314732306423
 31
0.0
  0
LINE
  5
1D3
330
1F
100
AcDbEntity
  8
ceco.net 81
100
AcDbLine
 10
363.0167871480362
 20
580.9482990945475
 30
0.0
 11
390.8258529523946
 21
625.4521073216359
 31
0.0
  0
LINE
  5
1D4
330
1F
100
AcDbEntity
  8
ceco.net 81
100
AcDbLine
 10
321.607591727221
 20
604.8559092176814
 30
0.0
 11
346.2444873148515
 21
651.1911707733128
 31
0.0
  0
LINE
  5
1D5
330
1F
100
AcDbEntity
  8
ceco.net 81
100
AcDbLine
 10
300.3025102626561
 20
615.7113904274287
 30
0.0
 11
323.3073204112911
 21
662.8782410499779
 31
0.0
  0
LINE
  5
1D6
330
1F
100
AcDbEntity
  8
ceco.net 81
100
AcDbLine
 10
278.6315564473916
 20
625.8167221510092
 30
0.0
 11
299.9762533394846
 21
673.7576962984888
 31
0.0
  0
LINE
  5
1D7
330
1F
100
AcDbEntity
  8
ceco.net 81
100
AcDbLine
 10
256.621133000498
 20
635.1595925983255
 30
0.0
 11
276.2797114107834
 21
683.8162815784779
 31
0.0
  0
LINE
  5
1D8
330
1F
100
AcDbEntity
  8
ceco.net 81
100
AcDbLine
 10
211.6895233738268
 20
651.5133610801025
 30
0.0
 11
227.906095427822
 21
701.4228379200998
 31
0.0
  0
LINE
  5
1D9
330
1F
100
AcDbEntity
  8
ceco.net 81
100
AcDbLine
 10
188.8230794391965
 20
658.504334566773
 30
0.0
 11
203.2879571732523
 21
708.9493581049127
 31
0.0
  0
LINE
  5
1DA
330
1F
100
AcDbEntity
  8
ceco.net 81
100
AcDbLine
 10
165.7265836682354
 20
664.6930219565909
 30
0.0
 11
178.422143856977
 21
715.6121327021518
 31
0.0
  0
LINE
  5
1DB
330
1F
100
AcDbEntity
  8
ceco.net 81
100
AcDbLine
 10
142.428175583298
 20
670.0718832872657
 30
0.0
 11
153.3389506422358
 21
721.4030441472922
 31
0.0
  0
LINE
  5
1DC
330
1F
100
AcDbEntity
  8
ceco.net 81
100
AcDbLine
 10
95.33937597278692
 20
678.3749091477733
 30
0.0
 11
102.6428921572674
 21
730.3421270737666
 31
0.0
  0
LINE
  5
1DD
330
1F
100
AcDbEntity
  8
ceco.net 81
100
AcDbLine
 10
71.60635489606602
 20
681.2889577195777
 30
0.0
 11
77.09179222517469
 21
733.4794076595143
 31
0.0
  0
LINE
  5
1DE
330
1F
100
AcDbEntity
  8
ceco.net 81
100
AcDbLine
 10
47.78609250601767
 20
683.3729606409195
 30
0.0
 11
51.44676781933594
 21
735.7230565708708
 31
0.0
  0
LINE
  5
1DF
330
1F
100
AcDbEntity
  8
ceco.net 81
100
AcDbLine
 10
23.90761012313396
 20
684.6243788752562
 30
0.0
 11
25.73906345167688
 21
737.0703402672451
 31
0.0
  0
LINE
  5
1E0
330
1F
100
AcDbEntity
  8
ceco.net 81
100
AcDbLine
 10
-23.90761012313396
 20
684.6243788752557
 30
0.0
 11
-25.73906345167688
 21
737.0703402672447
 31
0.0
  0
LINE
  5
1E1
330
1F
100
AcDbEntity
  8
ceco.net 81
100
AcDbLine
 10
-47.78609250601767
 20
683.3729606409195
 30
0.0
 11
-51.44676781933594
 21
735.7230565708708
 31
0.0
  0
LINE
  5
1E2
330
1F
100
AcDbEntity
  8
ceco.net 81
100
AcDbLine
 10
-71.60635489606602
 20
681.2889577195773
 30
0.0
 11
-77.09179222517469
 21
733.4794076595143
 31
0.0
  0
LINE
  5
1E3
330
1F
100
AcDbEntity
  8
ceco.net 81
100
AcDbLine
 10
-95.33937597278692
 20
678.3749091477728
 30
0.0
 11
-102.6428921572674
 21
730.3421270737657
 31
0.0
  0
LINE
  5
1E4
330
1F
100
AcDbEntity
  8
ceco.net 81
100
AcDbLine
 10
-142.428175583298
 20
670.0718832872657
 30
0.0
 11
-153.3389506422358
 21
721.4030441472917
 31
0.0
  0
LINE
  5
1E5
330
1F
100
AcDbEntity
  8
ceco.net 81
100
AcDbLine
 10
-165.7265836682358
 20
664.6930219565905
 30
0.0
 11
-178.4221438569772
 21
715.6121327021509
 31
0.0
  0
LINE
  5
1E6
330
1F
100
AcDbEntity
  8
ceco.net 81
100
AcDbLine
 10
-188.823079439197
 20
658.5043345667726
 30
0.0
 11
-203.2879571732528
 21
708.9493581049122
 31
0.0
  0
LINE
  5
1E7
330
1F
100
AcDbEntity
  8
ceco.net 81
100
AcDbLine
 10
-211.6895233738271
 20
651.513361080102
 30
0.0
 11
-227.9060954278225
 21
701.4228379200993
 31
0.0
  0
LINE
  5
1E8
330
1F
100
AcDbEntity
  8
ceco.net 81
100
AcDbLine
 10
-256.6211330004975
 20
635.1595925983246
 30
0.0
 11
-276.2797114107838
 21
683.816281578477
 31
0.0
  0
LINE
  5
1E9
330
1F
100
AcDbEntity
  8
ceco.net 81
100
AcDbLine
 10
-278.6315564473916
 20
625.8167221510087
 30
0.0
 11
-299.9762533394846
 21
673.7576962984884
 31
0.0
  0
LINE
  5
1EA
330
1F
100
AcDbEntity
  8
ceco.net 81
100
AcDbLine
 10
-300.3025102626561
 20
615.7113904274277
 30
0.0
 11
-323.3073204112913
 21
662.8782410499769
 31
0.0
  0
LINE
  5
1EB
330
1F
100
AcDbEntity
  8
ceco.net 81
100
AcDbLine
 10
-321.6075917272205
 20
604.85590921768
 30
0.0
 11
-346.2444873148515
 21
651.1911707733119
 31
0.0
  0
LINE
  5
1EC
330
1F
100
AcDbEntity
  8
ceco.net 81
100
AcDbLine
 10
-363.0167871480362
 20
580.948299094546
 30
0.0
 11
-390.8258529523946
 21
625.452107321635
 31
0.0
  0
LINE
  5
1ED
330
1F
100
AcDbEntity
  8
ceco.net 81
100
AcDbLine
 10
-383.0704503782644
 20
567.92529792141
 30
0.0
 11
-412.4157361595803
 21
611.431473230641
 31
0.0
  0
LINE
  5
1EE
330
1F
100
AcDbEntity
  8
ceco.net 81
100
AcDbLine
 10
-402.6574012721862
 20
554.2103672549418
 30
0.0
 11
-433.5031543200302
 21
596.6659040733128
 31
0.0
  0
LINE
  5
1EF
330
1F
100
AcDbEntity
  8
ceco.net 81
100
AcDbLine
 10
-421.7537761472758
 20
539.8202166255372
 30
0.0
 11
-454.0624156629832
 21
581.1733894212092
 31
0.0
  0
LINE
  5
1F0
330
1F
100
AcDbEntity
  8
ceco.net 81
100
AcDbLine
 10
-458.3823599134397
 20
509.0851854968035
 30
0.0
 11
-493.4969487194707
 21
548.0838872778625
 31
0.0
  0
LINE
  5
1F1
330
1F
100
AcDbEntity
  8
ceco.net 81
100
AcDbLine
 10
-475.8699425173944
 20
492.7777508985363
 30
0.0
 11
-512.3241755288991
 21
530.5272142479342
 31
0.0
  0
LINE
  5
1F2
330
1F
100
AcDbEntity
  8
ceco.net 81
100
AcDbLine
 10
-492.7777508985382
 20
475.869942517393
 30
0.0
 11
-530.5272142479366
 21
512.3241755288976
 31
0.0
  0
LINE
  5
1F3
330
1F
100
AcDbEntity
  8
ceco.net 81
100
AcDbLine
 10
-509.0851854968045
 20
458.3823599134376
 30
0.0
 11
-548.083887277864
 21
493.4969487194686
 31
0.0
  0
LINE
  5
1F4
330
1F
100
AcDbEntity
  8
ceco.net 81
100
AcDbLine
 10
-539.8202166255386
 20
421.7537761472739
 30
0.0
 11
-581.1733894212111
 21
454.0624156629814
 31
0.0
  0
LINE
  5
1F5
330
1F
100
AcDbEntity
  8
ceco.net 81
100
AcDbLine
 10
-554.2103672549437
 20
402.6574012721843
 30
0.0
 11
-596.6659040733147
 21
433.5031543200283
 31
0.0
  0
LINE
  5
1F6
330
1F
100
AcDbEntity
  8
ceco.net 81
100
AcDbLine
 10
-567.9252979214115
 20
383.0704503782625
 30
0.0
 11
-611.4314732306425
 21
412.4157361595783
 31
0.0
  0
LINE
  5
1F7
330
1F
100
AcDbEntity
  8
ceco.net 81
100
AcDbLine
 10
-580.9482990945475
 20
363.016787148034
 30
0.0
 11
-625.4521073216364
 21
390.8258529523919
 31
0.0
  0
LINE
  5
1F8
330
1F
100
AcDbEntity
  8
ceco.net 81
100
AcDbLine
 10
-604.8559092176806
 20
321.6075917272181
 30
0.0
 11
-651.1911707733124
 21
346.2444873148489
 31
0.0
  0
LINE
  5
1F9
330
1F
100
AcDbEntity
  8
ceco.net 81
100
AcDbLine
 10
-615.7113904274283
 20
300.3025102626533
 30
0.0
 11
-662.8782410499775
 21
323.3073204112887
 31
0.0
  0
LINE
  5
1FA
330
1F
100
AcDbEntity
  8
ceco.net 81
100
AcDbLine
 10
-625.8167221510102
 20
278.6315564473894
 30
0.0
 11
-673.7576962984899
 21
299.9762533394822
 31
0.0
  0
LINE
  5
1FB
330
1F
100
AcDbEntity
  8
ceco.net 81
100
AcDbLine
 10
-635.1595925983255
 20
256.621133000495
 30
0.0
 11
-683.816281578478
 21
276.2797114107808
 31
0.0
  0
LINE
  5
1FC
330
1F
100
AcDbEntity
  8
ceco.net 81
100
AcDbLine
 10
-651.5133610801021
 20
211.6895233738243
 30
0.0
 11
-701.4228379200995
 21
227.9060954278194
 31
0.0
  0
LINE
  5
1FD
330
1F
100
AcDbEntity
  8
ceco.net 81
100
AcDbLine
 10
-658.5043345667732
 20
188.8230794391942
 30
0.0
 11
-708.9493581049127
 21
203.2879571732499
 31
0.0
  0
LINE
  5
1FE
330
1F
100
AcDbEntity
  8
ceco.net 81
100
AcDbLine
 10
-664.6930219565907
 20
165.7265836682329
 30
0.0
 11
-715.612132702151
 21
178.4221438569741
 31
0.0
  0
LINE
  5
1FF
330
1F
100
AcDbEntity
  8
ceco.net 81
100
AcDbLine
 10
-670.0718832872658
 20
142.4281755832951
 30
0.0
 11
-721.4030441472918
 21
153.3389506422329
 31
0.0
  0
LINE
  5
200
330
1F
100
AcDbEntity
  8
ceco.net 81
100
AcDbLine
 10
-678.3749091477725
 20
95.33937597278452
 30
0.0
 11
-730.3421270737658
 21
102.6428921572645
 31
0.0
  0
LINE
  5
201
330
1F
100
AcDbEntity
  8
ceco.net 81
100
AcDbLine
 10
-681.2889577195769
 20
71.60635489606329
 30
0.0
 11
-733.4794076595135
 21
77.09179222517173
 31
0.0
  0
LINE
  5
202
330
1F
100
AcDbEntity
  8
ceco.net 81
100
AcDbLine
 10
-683.3729606409193
 20
47.78609250601505
 30
0.0
 11
-735.7230565708705
 21
51.44676781933322
 31
0.0
  0
LINE
  5
203
330
1F
100
AcDbEntity
  8
ceco.net 81
100
AcDbLine
 10
-684.6243788752545
 20
23.90761012313112
 30
0.0
 11
-737.0703402672439
 21
25.7390634516737
 31
0.0
  0
LINE
  5
204
330
1F
100
AcDbEntity
  8
ceco.net 81
100
AcDbLine
 10
-684.6243788752549
 20
-23.90761012313658
 30
0.0
 11
-737.0703402672439
 21
-25.7390634516795
 31
0.0
  0
LINE
  5
205
330
1F
100
AcDbEntity
  8
ceco.net 81
100
AcDbLine
 10
-683.3729606409183
 20
-47.78609250602016
 30
0.0
 11
-735.7230565708696
 21
-51.44676781933879
 31
0.0
  0
LINE
  5
206
330
1F
100
AcDbEntity
  8
ceco.net 81
100
AcDbLine
 10
-681.2889577195765
 20
-71.60635489606864
 30
0.0
 11
-733.479407659513
 21
-77.09179222517753
 31
0.0
  0
LINE
  5
207
330
1F
100
AcDbEntity
  8
ceco.net 81
100
AcDbLine
 10
-678.3749091477725
 20
-95.33937597278953
 30
0.0
 11
-730.3421270737653
 21
-102.6428921572697
 31
0.0
  0
LINE
  5
208
330
1F
100
AcDbEntity
  8
ceco.net 81
100
AcDbLine
 10
-670.0718832872649
 20
-142.4281755833004
 30
0.0
 11
-721.4030441472909
 21
-153.3389506422385
 31
0.0
  0
LINE
  5
209
330
1F
100
AcDbEntity
  8
ceco.net 81
100
AcDbLine
 10
-664.6930219565892
 20
-165.7265836682378
 30
0.0
 11
-715.6121327021501
 21
-178.4221438569794
 31
0.0
  0
LINE
  5
20A
330
1F
100
AcDbEntity
  8
ceco.net 81
100
AcDbLine
 10
-658.5043345667713
 20
-188.8230794391992
 30
0.0
 11
-708.9493581049104
 21
-203.2879571732552
 31
0.0
  0
LINE
  5
20B
330
1F
100
AcDbEntity
  8
ceco.net 81
100
AcDbLine
 10
-651.5133610801008
 20
-211.6895233738294
 30
0.0
 11
-701.4228379200976
 21
-227.9060954278248
 31
0.0
  0
LINE
  5
20C
330
1F
100
AcDbEntity
  8
ceco.net 81
100
AcDbLine
 10
-635.1595925983233
 20
-256.6211330004999
 30
0.0
 11
-683.8162815784754
 21
-276.2797114107862
 31
0.0
  0
LINE
  5
20D
330
1F
100
AcDbEntity
  8
ceco.net 81
100
AcDbLine
 10
-625.8167221510075
 20
-278.631556447394
 30
0.0
 11
-673.7576962984872
 21
-299.976253339487
 31
0.0
  0
LINE
  5
20E
330
1F
100
AcDbEntity
  8
ceco.net 81
100
AcDbLine
 10
-615.7113904274265
 20
-300.3025102626583
 30
0.0
 11
-662.8782410499757
 21
-323.3073204112937
 31
0.0
  0
LINE
  5
20F
330
1F
100
AcDbEntity
  8
ceco.net 81
100
AcDbLine
 10
-604.8559092176787
 20
-321.6075917272229
 30
0.0
 11
-651.1911707733101
 21
-346.2444873148539
 31
0.0
  0
LINE
  5
210
330
1F
100
AcDbEntity
  8
ceco.net 81
100
AcDbLine
 10
-580.9482990945446
 20
-363.0167871480385
 30
0.0
 11
-625.4521073216332
 21
-390.8258529523969
 31
0.0
  0
LINE
  5
211
330
1F
100
AcDbEntity
  8
ceco.net 81
100
AcDbLine
 10
-567.9252979214084
 20
-383.0704503782668
 30
0.0
 11
-611.4314732306393
 21
-412.4157361595831
 31
0.0
  0
LINE
  5
212
330
1F
100
AcDbEntity
  8
ceco.net 81
100
AcDbLine
 10
-554.210367254941
 20
-402.6574012721891
 30
0.0
 11
-596.6659040733116
 21
-433.503154320033
 31
0.0
  0
LINE
  5
213
330
1F
100
AcDbEntity
  8
ceco.net 81
100
AcDbLine
 10
-539.820216625536
 20
-421.7537761472782
 30
0.0
 11
-581.1733894212075
 21
-454.0624156629856
 31
0.0
  0
LINE
  5
214
330
1F
100
AcDbEntity
  8
ceco.net 81
100
AcDbLine
 10
-509.0851854968018
 20
-458.3823599134412
 30
0.0
 11
-548.0838872778608
 21
-493.4969487194726
 31
0.0
  0
LINE
  5
215
330
1F
100
AcDbEntity
  8
ceco.net 81
100
AcDbLine
 10
-492.7777508985347
 20
-475.8699425173968
 30
0.0
 11
-530.5272142479327
 21
-512.3241755289019
 31
0.0
  0
LINE
  5
216
330
1F
100
AcDbEntity
  8
ceco.net 81
100
AcDbLine
 10
-475.8699425173911
 20
-492.7777508985401
 30
0.0
 11
-512.3241755288956
 21
-530.5272142479386
 31
0.0
  0
LINE
  5
217
330
1F
100
AcDbEntity
  8
ceco.net 81
100
AcDbLine
 10
-458.3823599134359
 20
-509.0851854968069
 30
0.0
 11
-493.4969487194669
 21
-548.0838872778664
 31
0.0
  0
LINE
  5
218
330
1F
100
AcDbEntity
  8
ceco.net 81
100
AcDbLine
 10
-421.7537761472731
 20
-539.8202166255406
 30
0.0
 11
-454.0624156629801
 21
-581.1733894212131
 31
0.0
  0
LINE
  5
219
330
1F
100
AcDbEntity
  8
ceco.net 81
100
AcDbLine
 10
-402.6574012721832
 20
-554.2103672549448
 30
0.0
 11
-433.5031543200271
 21
-596.6659040733162
 31
0.0
  0
LINE
  5
21A
330
1F
100
AcDbEntity
  8
ceco.net 81
100
AcDbLine
 10
-383.0704503782614
 20
-567.9252979214125
 30
0.0
 11
-412.4157361595774
 21
-611.4314732306435
 31
0.0
  0
LINE
  5
21B
330
1F
100
AcDbEntity
  8
ceco.net 81
100
AcDbLine
 10
-363.0167871480334
 20
-580.9482990945481
 30
0.0
 11
-390.8258529523914
 21
-625.4521073216371
 31
0.0
  0
LINE
  5
21C
330
1F
100
AcDbEntity
  8
ceco.net 81
100
AcDbLine
 10
-321.607591727218
 20
-604.8559092176816
 30
0.0
 11
-346.244487314849
 21
-651.1911707733134
 31
0.0
  0
LINE
  5
21D
330
1F
100
AcDbEntity
  8
ceco.net 81
100
AcDbLine
 10
-300.3025102626536
 20
-615.7113904274293
 30
0.0
 11
-323.3073204112888
 21
-662.8782410499785
 31
0.0
  0
LINE
  5
21E
330
1F
100
AcDbEntity
  8
ceco.net 81
100
AcDbLine
 10
-278.6315564473898
 20
-625.8167221510103
 30
0.0
 11
-299.9762533394828
 21
-673.75769629849
 31
0.0
  0
LINE
  5
21F
330
1F
100
AcDbEntity
  8
ceco.net 81
100
AcDbLine
 10
-256.6211330004957
 20
-635.1595925983257
 30
0.0
 11
-276.2797114107816
 21
-683.8162815784782
 31
0.0
  0
LINE
  5
220
330
1F
100
AcDbEntity
  8
ceco.net 81
100
AcDbLine
 10
-211.6895233738255
 20
-651.5133610801028
 30
0.0
 11
-227.9060954278206
 21
-701.4228379201
 31
0.0
  0
LINE
  5
221
330
1F
100
AcDbEntity
  8
ceco.net 81
100
AcDbLine
 10
-188.8230794391959
 20
-658.5043345667728
 30
0.0
 11
-203.2879571732519
 21
-708.9493581049124
 31
0.0
  0
LINE
  5
222
330
1F
100
AcDbEntity
  8
ceco.net 81
100
AcDbLine
 10
-165.7265836682349
 20
-664.6930219565907
 30
0.0
 11
-178.4221438569761
 21
-715.6121327021516
 31
0.0
  0
LINE
  5
223
330
1F
100
AcDbEntity
  8
ceco.net 81
100
AcDbLine
 10
-142.4281755832976
 20
-670.0718832872659
 30
0.0
 11
-153.3389506422354
 21
-721.403044147292
 31
0.0
  0
LINE
  5
224
330
1F
100
AcDbEntity
  8
ceco.net 81
100
AcDbLine
 10
-95.33937597278736
 20
-678.3749091477731
 30
0.0
 11
-102.6428921572678
 21
-730.3421270737664
 31
0.0
  0
LINE
  5
225
330
1F
100
AcDbEntity
  8
ceco.net 81
100
AcDbLine
 10
-71.60635489606647
 20
-681.288957719578
 30
0.0
 11
-77.09179222517559
 21
-733.4794076595145
 31
0.0
  0
LINE
  5
226
330
1F
100
AcDbEntity
  8
ceco.net 81
100
AcDbLine
 10
-47.78609250601857
 20
-683.3729606409198
 30
0.0
 11
-51.44676781933686
 21
-735.7230565708711
 31
0.0
  0
LINE
  5
227
330
1F
100
AcDbEntity
  8
ceco.net 81
100
AcDbLine
 10
-23.90761012313487
 20
-684.6243788752559
 30
0.0
 11
-25.73906345167779
 21
-737.0703402672448
 31
0.0
  0
LINE
  5
228
330
1F
100
AcDbEntity
  8
ceco.net 81
100
AcDbLine
 10
23.90761012313214
 20
-684.6243788752559
 30
0.0
 11
25.73906345167461
 21
-737.0703402672453
 31
0.0
  0
LINE
  5
229
330
1F
100
AcDbEntity
  8
ceco.net 81
100
AcDbLine
 10
47.78609250601539
 20
-683.3729606409202
 30
0.0
 11
51.44676781933367
 21
-735.7230565708715
 31
0.0
  0
LINE
  5
22A
330
1F
100
AcDbEntity
  8
ceco.net 81
100
AcDbLine
 10
71.60635489606375
 20
-681.288957719578
 30
0.0
 11
77.09179222517196
 21
-733.479407659515
 31
0.0
  0
LINE
  5
22B
330
1F
100
AcDbEntity
  8
ceco.net 81
100
AcDbLine
 10
95.33937597278418
 20
-678.3749091477735
 30
0.0
 11
102.6428921572642
 21
-730.3421270737668
 31
0.0
  0
LINE
  5
22C
330
1F
100
AcDbEntity
  8
ceco.net 81
100
AcDbLine
 10
142.4281755832944
 20
-670.0718832872667
 30
0.0
 11
153.3389506422317
 21
-721.4030441472933
 31
0.0
  0
LINE
  5
22D
330
1F
100
AcDbEntity
  8
ceco.net 81
100
AcDbLine
 10
165.7265836682318
 20
-664.6930219565921
 30
0.0
 11
178.4221438569729
 21
-715.6121327021529
 31
0.0
  0
LINE
  5
22E
330
1F
100
AcDbEntity
  8
ceco.net 81
100
AcDbLine
 10
188.8230794391929
 20
-658.5043345667746
 30
0.0
 11
203.2879571732483
 21
-708.9493581049147
 31
0.0
  0
LINE
  5
22F
330
1F
100
AcDbEntity
  8
ceco.net 81
100
AcDbLine
 10
211.6895233738227
 20
-651.5133610801041
 30
0.0
 11
227.9060954278175
 21
-701.4228379201014
 31
0.0
  0
LINE
  5
230
330
1F
100
AcDbEntity
  8
ceco.net 81
100
AcDbLine
 10
256.6211330004934
 20
-635.1595925983279
 30
0.0
 11
276.2797114107788
 21
-683.81628157848
 31
0.0
  0
LINE
  5
231
330
1F
100
AcDbEntity
  8
ceco.net 81
100
AcDbLine
 10
278.631556447387
 20
-625.8167221510121
 30
0.0
 11
299.9762533394796
 21
-673.7576962984913
 31
0.0
  0
LINE
  5
232
330
1F
100
AcDbEntity
  8
ceco.net 81
100
AcDbLine
 10
300.3025102626511
 20
-615.7113904274316
 30
0.0
 11
323.3073204112861
 21
-662.8782410499812
 31
0.0
  0
LINE
  5
233
330
1F
100
AcDbEntity
  8
ceco.net 81
100
AcDbLine
 10
321.6075917272155
 20
-604.8559092176843
 30
0.0
 11
346.244487314846
 21
-651.1911707733162
 31
0.0
  0
LINE
  5
234
330
1F
100
AcDbEntity
  8
ceco.net 81
100
AcDbLine
 10
363.0167871480312
 20
-580.9482990945513
 30
0.0
 11
390.8258529523886
 21
-625.4521073216402
 31
0.0
  0
LINE
  5
235
330
1F
100
AcDbEntity
  8
ceco.net 81
100
AcDbLine
 10
383.070450378259
 20
-567.9252979214153
 30
0.0
 11
412.4157361595743
 21
-611.4314732306467
 31
0.0
  0
LINE
  5
236
330
1F
100
AcDbEntity
  8
ceco.net 81
100
AcDbLine
 10
402.6574012721812
 20
-554.210367254948
 30
0.0
 11
433.5031543200248
 21
-596.6659040733194
 31
0.0
  0
LINE
  5
237
330
1F
100
AcDbEntity
  8
ceco.net 81
100
AcDbLine
 10
421.7537761472708
 20
-539.8202166255438
 30
0.0
 11
454.0624156629778
 21
-581.1733894212162
 31
0.0
  0
LINE
  5
238
330
1F
100
AcDbEntity
  8
ceco.net 81
100
AcDbLine
 10
458.3823599134339
 20
-509.0851854968105
 30
0.0
 11
493.4969487194648
 21
-548.0838872778701
 31
0.0
  0
LINE
  5
239
330
1F
100
AcDbEntity
  8
ceco.net 81
100
AcDbLine
 10
475.8699425173895
 20
-492.7777508985435
 30
0.0
 11
512.324175528894
 21
-530.5272142479424
 31
0.0
  0
LINE
  5
23A
330
1F
100
AcDbEntity
  8
ceco.net 81
100
AcDbLine
 10
492.7777508985323
 20
-475.8699425174009
 30
0.0
 11
530.5272142479302
 21
-512.3241755289062
 31
0.0
  0
LINE
  5
23B
330
1F
100
AcDbEntity
  8
ceco.net 81
100
AcDbLine
 10
509.0851854967995
 20
-458.3823599134458
 30
0.0
 11
548.0838872778585
 21
-493.4969487194776
 31
0.0
  0
LINE
  5
23C
330
1F
100
AcDbEntity
  8
ceco.net 81
100
AcDbLine
 10
539.8202166255336
 20
-421.7537761472835
 30
0.0
 11
581.1733894212052
 21
-454.0624156629913
 31
0.0
  0
LINE
  5
23D
330
1F
100
AcDbEntity
  8
ceco.net 81
100
AcDbLine
 10
554.2103672549392
 20
-402.657401272194
 30
0.0
 11
596.6659040733097
 21
-433.503154320039
 31
0.0
  0
LINE
  5
23E
330
1F
100
AcDbEntity
  8
ceco.net 81
100
AcDbLine
 10
567.9252979214061
 20
-383.0704503782726
 30
0.0
 11
611.4314732306366
 21
-412.4157361595892
 31
0.0
  0
LINE
  5
23F
330
1F
100
AcDbEntity
  8
ceco.net 81
100
AcDbLine
 10
580.9482990945425
 20
-363.0167871480447
 30
0.0
 11
625.452107321631
 21
-390.8258529524035
 31
0.0
  0
LINE
  5
240
330
1F
100
AcDbEntity
  8
ceco.net 81
100
AcDbLine
 10
604.855909217677
 20
-321.6075917272297
 30
0.0
 11
651.1911707733079
 21
-346.2444873148614
 31
0.0
  0
LINE
  5
241
330
1F
100
AcDbEntity
  8
ceco.net 81
100
AcDbLine
 10
615.7113904274251
 20
-300.3025102626657
 30
0.0
 11
662.8782410499739
 21
-323.3073204113015
 31
0.0
  0
LINE
  5
242
330
1F
100
AcDbEntity
  8
ceco.net 81
100
AcDbLine
 10
625.8167221510062
 20
-278.6315564474019
 30
0.0
 11
673.7576962984853
 21
-299.9762533394956
 31
0.0
  0
LINE
  5
243
330
1F
100
AcDbEntity
  8
ceco.net 81
100
AcDbLine
 10
635.1595925983224
 20
-256.6211330005082
 30
0.0
 11
683.8162815784744
 21
-276.2797114107952
 31
0.0
  0
LINE
  5
244
330
1F
100
AcDbEntity
  8
ceco.net 81
100
AcDbLine
 10
651.5133610800994
 20
-211.6895233738385
 30
0.0
 11
701.4228379200963
 21
-227.9060954278345
 31
0.0
  0
LINE
  5
245
330
1F
100
AcDbEntity
  8
ceco.net 81
100
AcDbLine
 10
658.5043345667709
 20
-188.8230794392087
 30
0.0
 11
708.94935810491
 21
-203.2879571732656
 31
0.0
  0
LINE
  5
246
330
1F
100
AcDbEntity
  8
ceco.net 81
100
AcDbLine
 10
664.6930219565888
 20
-165.7265836682478
 30
0.0
 11
715.6121327021492
 21
-178.4221438569902
 31
0.0
  0
LINE
  5
247
330
1F
100
AcDbEntity
  8
ceco.net 81
100
AcDbLine
 10
670.0718832872639
 20
-142.4281755833104
 30
0.0
 11
721.4030441472901
 21
-153.3389506422494
 31
0.0
  0
LINE
  5
248
330
1F
100
AcDbEntity
  8
ceco.net 81
100
AcDbLine
 10
678.374909147772
 20
-95.33937597280067
 30
0.0
 11
730.3421270737649
 21
-102.6428921572818
 31
0.0
  0
LINE
  5
249
330
1F
100
AcDbEntity
  8
ceco.net 81
100
AcDbLine
 10
681.2889577195774
 20
-71.60635489608001
 30
0.0
 11
733.4794076595139
 21
-77.09179222518958
 31
0.0
  0
LINE
  5
24A
330
1F
100
AcDbEntity
  8
ceco.net 81
100
AcDbLine
 10
683.3729606409197
 20
-47.78609250603188
 30
0.0
 11
735.7230565708705
 21
-51.44676781935141
 31
0.0
  0
LINE
  5
24B
330
1F
100
AcDbEntity
  8
ceco.net 81
100
AcDbLine
 10
684.6243788752563
 20
-23.9076101231484
 30
0.0
 11
737.0703402672452
 21
-25.73906345169223
 31
0.0
  0
TEXT
  5
24C
330
1F
100
AcDbEntity
  8
ceco.net 81
100
AcDbText
 10
787.6775093415643
 20
128.9644933216577
 30
0.0
 40
32.52040744843194
  1
80
 72
     1
 11
812.0678149278884
 21
145.2246970458737
 31
0.0
100
AcDbText
 73
     2
  0
TEXT
  5
24D
330
1F
100
AcDbEntity
  8
ceco.net 81
100
AcDbText
 10
750.1223705320953
 20
267.7723000596031
 30
0.0
 40
32.52040744843194
  1
70
 72
     1
 11
774.5126761184192
 21
284.0325037838191
 31
0.0
100
AcDbText
 73
     2
  0
TEXT
  5
24E
330
1F
100
AcDbEntity
  8
ceco.net 81
100
AcDbText
 10
606.2687032140105
 20
515.5419806383531
 30
0.0
 40
32.52040744843194
  1
50
 72
     1
 11
630.6590088003344
 21
531.8021843625691
 31
0.0
100
AcDbText
 73
     2
  0
TEXT
  5
24F
330
1F
100
AcDbEntity
  8
ceco.net 81
100
AcDbText
 10
501.6310616393507
 20
616.9754981122803
 30
0.0
 40
32.52040744843194
  1
4O
 72
     1
 11
528.7314011797106
 21
633.2357018364963
 31
0.0
100
AcDbText
 73
     2
  0
TEXT
  5
250
330
1F
100
AcDbEntity
  8
ceco.net 81
100
AcDbText
 10
255.875324978995
 20
759.6235021219911
 30
0.0
 40
32.52040744843194
  1
20
 72
     1
 11
280.265630565319
 21
775.8837058462071
 31
0.0
100
AcDbText
 73
     2
  0
TEXT
  5
251
330
1F
100
AcDbEntity
  8
ceco.net 81
100
AcDbText
 10
122.3067366036707
 20
796.5037012393134
 30
0.0
 40
32.52040744843194
  1
10
 72
     1
 11
141.2769742819227
 21
812.7639049635293
 31
0.0
100
AcDbText
 73
     2
  0
TEXT
  5
252
330
1F
100
AcDbEntity
  8
ceco.net 81
100
AcDbText
 10
-185.8752063564126
 20
795.8076112036713
 30
0.0
 40
32.52040744843194
  1
350
 72
     1
 11
-145.2246970458727
 21
812.0678149278873
 31
0.0
100
AcDbText
 73
     2
  0
TEXT
  5
254
330
1F
100
AcDbEntity
  8
ceco.net 81
100
AcDbText
 10
-572.4526936731083
 20
614.3988050761175
 30
0.0
 40
32.52040744843194
  1
320
 72
     1
 11
-531.8021843625683
 21
630.6590088003335
 31
0.0
100
AcDbText
 73
     2
  0
TEXT
  5
255
330
1F
100
AcDbEntity
  8
ceco.net 81
100
AcDbText
 10
-668.4661432389634
 20
512.4711974554936
 30
0.0
 40
32.52040744843194
  1
310
 72
     1
 11
-633.2357018364955
 21
528.7314011797096
 31
0.0
100
AcDbText
 73
     2
  0
TEXT
  5
256
330
1F
100
AcDbEntity
  8
ceco.net 81
100
AcDbText
 10
-816.5342151567468
 20
264.0054268411025
 30
0.0
 40
32.52040744843194
  1
290
 72
     1
 11
-775.8837058462067
 21
280.2656305653184
 31
0.0
100
AcDbText
 73
     2
  0
TEXT
  5
257
330
1F
100
AcDbEntity
  8
ceco.net 81
100
AcDbText
 10
-864.2606934262916
 20
128.9644933216578
 30
0.0
 40
32.52040744843194
  1
280
 72
     1
 11
-823.6101841157516
 21
145.2246970458738
 31
0.0
100
AcDbText
 73
     2
  0
TEXT
  5
258
330
1F
100
AcDbEntity
  8
ceco.net 81
100
AcDbText
 10
-852.7183242384261
 20
-161.484900770089
 30
0.0
 40
32.52040744843194
  1
260
 72
     1
 11
-812.0678149278861
 21
-145.224697045873
 31
0.0
100
AcDbText
 73
     2
  0
TEXT
  5
259
330
1F
100
AcDbEntity
  8
ceco.net 81
100
AcDbText
 10
-815.1631854289583
 20
-300.2927075080344
 30
0.0
 40
32.52040744843194
  1
250
 72
     1
 11
-774.5126761184183
 21
-284.0325037838184
 31
0.0
100
AcDbText
 73
     2
  0
TEXT
  5
25A
330
1F
100
AcDbEntity
  8
ceco.net 81
100
AcDbText
 10
-671.3095181108736
 20
-548.0623880867844
 30
0.0
 40
32.52040744843194
  1
230
 72
     1
 11
-630.6590088003336
 21
-531.8021843625684
 31
0.0
100
AcDbText
 73
     2
  0
TEXT
  5
25B
330
1F
100
AcDbEntity
  8
ceco.net 81
100
AcDbText
 10
-569.3819104902502
 20
-649.4959055607112
 30
0.0
 40
32.52040744843194
  1
220
 72
     1
 11
-528.7314011797102
 21
-633.2357018364952
 31
0.0
100
AcDbText
 73
     2
  0
TEXT
  5
25C
330
1F
100
AcDbEntity
  8
ceco.net 81
100
AcDbText
 10
-318.2061059218225
 20
-792.1439095704229
 30
0.0
 40
32.52040744843194
  1
200
 72
     1
 11
-280.2656305653186
 21
-775.8837058462069
 31
0.0
100
AcDbText
 73
     2
  0
TEXT
  5
25D
330
1F
100
AcDbEntity
  8
ceco.net 81
100
AcDbText
 10
-176.5074156843907
 20
-829.0241086877452
 30
0.0
 40
32.52040744843194
  1
190
 72
     1
 11
-141.2769742819227
 21
-812.7639049635291
 31
0.0
100
AcDbText
 73
     2
  0
TEXT
  5
25E
330
1F
100
AcDbEntity
  8
ceco.net 81
100
AcDbText
 10
109.9942556434048
 20
-828.3280186521039
 30
0.0
 40
32.52040744843194
  1
170
 72
     1
 11
145.2246970458727
 21
-812.067814927888
 31
0.0
100
AcDbText
 73
     2
  0
TEXT
  5
25F
330
1F
100
AcDbEntity
  8
ceco.net 81
100
AcDbText
 10
248.8020623813504
 20
-790.7728798426358
 30
0.0
 40
32.52040744843194
  1
160
 72
     1
 11
284.0325037838183
 21
-774.5126761184198
 31
0.0
100
AcDbText
 73
     2
  0
TEXT
  5
260
330
1F
100
AcDbEntity
  8
ceco.net 81
100
AcDbText
 10
496.5717429601004
 20
-646.9192125245515
 30
0.0
 40
32.52040744843194
  1
140
 72
     1
 11
531.8021843625683
 21
-630.6590088003355
 31
0.0
100
AcDbText
 73
     2
  0
TEXT
  5
261
330
1F
100
AcDbEntity
  8
ceco.net 81
100
AcDbText
 10
598.0052604340276
 20
-544.9916049039281
 30
0.0
 40
32.52040744843194
  1
130
 72
     1
 11
633.2357018364955
 21
-528.7314011797121
 31
0.0
100
AcDbText
 73
     2
  0
TEXT
  5
262
330
1F
100
AcDbEntity
  8
ceco.net 81
100
AcDbText
 10
746.0733323518117
 20
-296.5258342895372
 30
0.0
 40
32.52040744843194
  1
110
 72
     1
 11
775.8837058462077
 21
-280.2656305653213
 31
0.0
100
AcDbText
 73
     2
  0
TEXT
  5
263
330
1F
100
AcDbEntity
  8
ceco.net 81
100
AcDbText
 10
780.2434975150971
 20
-157.5371780061414
 30
0.0
 40
32.52040744843194
  1
100
 72
     1
 11
812.7639049635289
 21
-141.2769742819255
 31
0.0
100
AcDbText
 73
     2
  0
TEXT
  5
264
330
1F
100
AcDbEntity
  8
ceco.net 81
100
AcDbText
 10
-320.073182520441
 20
759.6235021219911
 30
0.0
 40
32.52040744843194
  1
340
 72
     1
 11
-279.4226732099011
 21
775.8837058462071
 31
0.0
100
AcDbText
 73
     2
  0
CIRCLE
  5
265
330
1F
100
AcDbEntity
  8
ceco.net 81
100
AcDbCircle
 10
0.0
 20
0.0
 30
0.0
 40
685.041687762235
  0
ENDSEC
  0
SECTION
  2
OBJECTS
  0
DICTIONARY
  5
C
330
0
100
AcDbDictionary
281
     1
  3
ACAD_GROUP
350
D
  3
ACAD_LAYOUT
350
1A
  3
ACAD_MLINESTYLE
350
17
  3
ACAD_PLOTSETTINGS
350
19
  3
ACAD_PLOTSTYLENAME
350
E
  3
AcDbVariableDictionary
350
5E
  0
DICTIONARY
  5
76
330
2
100
AcDbDictionary
280
     1
281
     1
  3
ACAD_LAYERFILTERS
360
268
  3
ACAD_LAYERSTATES
360
77
  0
DICTIONARY
  5
D
102
{ACAD_REACTORS
330
C
102
}
330
C
100
AcDbDictionary
281
     1
  0
DICTIONARY
  5
1A
102
{ACAD_REACTORS
330
C
102
}
330
C
100
AcDbDictionary
281
     1
  3
Layout1
350
51
  3
Layout2
350
56
  3
Model
350
22
  0
DICTIONARY
  5
17
102
{ACAD_REACTORS
330
C
102
}
330
C
100
AcDbDictionary
281
     1
  3
Standard
350
18
  0
DICTIONARY
  5
19
102
{ACAD_REACTORS
330
C
102
}
330
C
100
AcDbDictionary
281
     1
  0
ACDBDICTIONARYWDFLT
  5
E
102
{ACAD_REACTORS
330
C
102
}
330
C
100
AcDbDictionary
281
     1
  3
Normal
350
F
100
AcDbDictionaryWithDefault
340
F
  0
DICTIONARY
  5
5E
102
{ACAD_REACTORS
330
C
102
}
330
C
100
AcDbDictionary
281
     1
  3
DIMASSOC
350
5F
  3
HIDETEXT
350
63
  0
DICTIONARY
  5
268
102
{ACAD_REACTORS
330
76
102
}
330
76
100
AcDbDictionary
280
     1
281
     1
  0
DICTIONARY
  5
77
102
{ACAD_REACTORS
330
76
102
}
330
76
100
AcDbDictionary
281
     1
  0
LAYOUT
  5
51
102
{ACAD_REACTORS
330
1A
102
}
330
1A
100
AcDbPlotSettings
  1

  2
None
  4

  6

 40
0.0
 41
0.0
 42
0.0
 43
0.0
 44
0.0
 45
0.0
 46
0.0
 47
0.0
 48
0.0
 49
0.0
140
0.0
141
0.0
142
1.0
143
1.0
 70
   688
 72
     0
 73
     0
 74
     5
  7

 75
    16
147
1.0
148
0.0
149
0.0
100
AcDbLayout
  1
Layout1
 70
     1
 71
     1
 10
0.0
 20
0.0
 11
12.0
 21
9.0
 12
0.0
 22
0.0
 32
0.0
 14
0.0
 24
0.0
 34
0.0
 15
0.0
 25
0.0
 35
0.0
146
0.0
 13
0.0
 23
0.0
 33
0.0
 16
1.0
 26
0.0
 36
0.0
 17
0.0
 27
1.0
 37
0.0
 76
     0
330
50
  0
LAYOUT
  5
56
102
{ACAD_REACTORS
330
1A
102
}
330
1A
100
AcDbPlotSettings
  1

  2
None
  4

  6

 40
0.0
 41
0.0
 42
0.0
 43
0.0
 44
0.0
 45
0.0
 46
0.0
 47
0.0
 48
0.0
 49
0.0
140
0.0
141
0.0
142
1.0
143
1.0
 70
   688
 72
     0
 73
     0
 74
     5
  7

 75
    16
147
1.0
148
0.0
149
0.0
100
AcDbLayout
  1
Layout2
 70
     1
 71
     2
 10
0.0
 20
0.0
 11
12.0
 21
9.0
 12
0.0
 22
0.0
 32
0.0
 14
0.0
 24
0.0
 34
0.0
 15
0.0
 25
0.0
 35
0.0
146
0.0
 13
0.0
 23
0.0
 33
0.0
 16
1.0
 26
0.0
 36
0.0
 17
0.0
 27
1.0
 37
0.0
 76
     0
330
55
  0
LAYOUT
  5
22
102
{ACAD_REACTORS
330
1A
102
}
330
1A
100
AcDbPlotSettings
  1

  2
none_device
  4
ANSI_A_(8.50_x_11.00_Inches)
  6

 40
6.349999904632568
 41
19.04999923706054
 42
6.350006103515625
 43
19.04998779296875
 44
215.8999938964843
 45
279.3999938964843
 46
0.0
 47
0.0
 48
0.0
 49
0.0
140
0.0
141
0.0
142
1.0
143
78.436453180766
 70
 11952
 72
     0
 73
     1
 74
     0
  7

 75
     0
147
0.0127491741332998
148
0.0
149
0.0
100
AcDbLayout
  1
Model
 70
     1
 71
     0
 10
0.0
 20
0.0
 11
12.0
 21
9.0
 12
0.0
 22
0.0
 32
0.0
 14
0.0
 24
0.0
 34
0.0
 15
0.0
 25
0.0
 35
0.0
146
0.0
 13
0.0
 23
0.0
 33
0.0
 16
1.0
 26
0.0
 36
0.0
 17
0.0
 27
1.0
 37
0.0
 76
     0
330
1F
  0
MLINESTYLE
  5
18
102
{ACAD_REACTORS
330
17
102
}
330
17
100
AcDbMlineStyle
  2
STANDARD
 70
     0
  3

 62
   256
 51
90.0
 52
90.0
 71
     2
 49
0.5
 62
   256
  6
BYLAYER
 49
-0.5
 62
   256
  6
BYLAYER
  0
ACDBPLACEHOLDER
  5
F
102
{ACAD_REACTORS
330
E
102
}
330
E
  0
DICTIONARYVAR
  5
5F
102
{ACAD_REACTORS
330
5E
102
}
330
5E
100
DictionaryVariables
280
     0
  1
2
  0
DICTIONARYVAR
  5
63
102
{ACAD_REACTORS
330
5E
102
}
330
5E
100
DictionaryVariables
280
     0
  1
1
  0
ENDSEC
  0
EOF
